{
	"patcher" : 	{
		"fileversion" : 1,
		"rect" : [ 45.0, 116.0, 679.0, 502.0 ],
		"bglocked" : 0,
		"defrect" : [ 45.0, 116.0, 679.0, 502.0 ],
		"openrect" : [ 0.0, 0.0, 0.0, 0.0 ],
		"openinpresentation" : 0,
		"default_fontsize" : 12.0,
		"default_fontface" : 0,
		"default_fontname" : "Arial",
		"gridonopen" : 0,
		"gridsize" : [ 15.0, 15.0 ],
		"gridsnaponopen" : 0,
		"toolbarvisible" : 1,
		"boxanimatetime" : 200,
		"imprint" : 0,
		"enablehscroll" : 1,
		"enablevscroll" : 1,
		"devicewidth" : 0.0,
		"boxes" : [ 			{
				"box" : 				{
					"maxclass" : "flonum",
					"outlettype" : [ "float", "bang" ],
					"id" : "obj-14",
					"fontname" : "Arial",
					"patching_rect" : [ 205.0, 105.0, 50.0, 20.0 ],
					"fontsize" : 12.0,
					"numinlets" : 1,
					"numoutlets" : 2
				}

			}
, 			{
				"box" : 				{
					"maxclass" : "newobj",
					"text" : "p zoomer",
					"outlettype" : [ "" ],
					"id" : "obj-12",
					"fontname" : "Arial",
					"patching_rect" : [ 205.0, 146.0, 61.0, 20.0 ],
					"fontsize" : 12.0,
					"numinlets" : 1,
					"numoutlets" : 1,
					"patcher" : 					{
						"fileversion" : 1,
						"rect" : [ 341.0, 237.0, 640.0, 480.0 ],
						"bglocked" : 0,
						"defrect" : [ 341.0, 237.0, 640.0, 480.0 ],
						"openrect" : [ 0.0, 0.0, 0.0, 0.0 ],
						"openinpresentation" : 0,
						"default_fontsize" : 12.0,
						"default_fontface" : 0,
						"default_fontname" : "Arial",
						"gridonopen" : 0,
						"gridsize" : [ 15.0, 15.0 ],
						"gridsnaponopen" : 0,
						"toolbarvisible" : 1,
						"boxanimatetime" : 200,
						"imprint" : 0,
						"enablehscroll" : 1,
						"enablevscroll" : 1,
						"devicewidth" : 0.0,
						"boxes" : [ 							{
								"box" : 								{
									"maxclass" : "inlet",
									"outlettype" : [ "float" ],
									"id" : "obj-5",
									"patching_rect" : [ 94.0, 17.0, 25.0, 25.0 ],
									"numinlets" : 0,
									"numoutlets" : 1,
									"comment" : ""
								}

							}
, 							{
								"box" : 								{
									"maxclass" : "outlet",
									"id" : "obj-4",
									"patching_rect" : [ 89.0, 138.0, 25.0, 25.0 ],
									"numinlets" : 1,
									"numoutlets" : 0,
									"comment" : ""
								}

							}
, 							{
								"box" : 								{
									"maxclass" : "message",
									"text" : "zoom_y $1",
									"outlettype" : [ "" ],
									"id" : "obj-3",
									"fontname" : "Arial",
									"patching_rect" : [ 162.0, 74.0, 69.0, 18.0 ],
									"fontsize" : 12.0,
									"numinlets" : 2,
									"numoutlets" : 1,
									"presentation_rect" : [ 162.0, 74.0, 0.0, 0.0 ]
								}

							}
, 							{
								"box" : 								{
									"maxclass" : "message",
									"text" : "zoom_x $1",
									"outlettype" : [ "" ],
									"id" : "obj-2",
									"fontname" : "Arial",
									"patching_rect" : [ 83.0, 74.0, 69.0, 18.0 ],
									"fontsize" : 12.0,
									"numinlets" : 2,
									"numoutlets" : 1
								}

							}
 ],
						"lines" : [ 							{
								"patchline" : 								{
									"source" : [ "obj-5", 0 ],
									"destination" : [ "obj-3", 0 ],
									"hidden" : 0,
									"midpoints" : [  ]
								}

							}
, 							{
								"patchline" : 								{
									"source" : [ "obj-5", 0 ],
									"destination" : [ "obj-2", 0 ],
									"hidden" : 0,
									"midpoints" : [  ]
								}

							}
, 							{
								"patchline" : 								{
									"source" : [ "obj-3", 0 ],
									"destination" : [ "obj-4", 0 ],
									"hidden" : 0,
									"midpoints" : [  ]
								}

							}
, 							{
								"patchline" : 								{
									"source" : [ "obj-2", 0 ],
									"destination" : [ "obj-4", 0 ],
									"hidden" : 0,
									"midpoints" : [  ]
								}

							}
 ]
					}
,
					"saved_object_attributes" : 					{
						"fontname" : "Arial",
						"default_fontface" : 0,
						"globalpatchername" : "",
						"fontface" : 0,
						"default_fontname" : "Arial",
						"fontsize" : 12.0,
						"default_fontsize" : 12.0
					}

				}

			}
, 			{
				"box" : 				{
					"maxclass" : "message",
					"text" : "reset",
					"outlettype" : [ "" ],
					"id" : "obj-11",
					"fontname" : "Arial",
					"patching_rect" : [ 598.0, 103.0, 37.0, 18.0 ],
					"fontsize" : 12.0,
					"numinlets" : 2,
					"numoutlets" : 1
				}

			}
, 			{
				"box" : 				{
					"maxclass" : "comment",
					"text" : "A cube with the texture...",
					"id" : "obj-7",
					"fontname" : "Arial",
					"patching_rect" : [ 30.0, 275.0, 213.0, 27.0 ],
					"fontsize" : 18.0,
					"numinlets" : 1,
					"numoutlets" : 0,
					"presentation_rect" : [ 30.0, 275.0, 0.0, 0.0 ]
				}

			}
, 			{
				"box" : 				{
					"maxclass" : "comment",
					"text" : "The movie as texture...",
					"id" : "obj-6",
					"fontname" : "Arial",
					"patching_rect" : [ 70.0, 23.0, 200.0, 27.0 ],
					"fontsize" : 18.0,
					"numinlets" : 1,
					"numoutlets" : 0
				}

			}
, 			{
				"box" : 				{
					"maxclass" : "newobj",
					"text" : "p esc_fullscreen",
					"outlettype" : [ "" ],
					"id" : "obj-4",
					"fontname" : "Arial",
					"patching_rect" : [ 343.0, 232.0, 97.0, 20.0 ],
					"fontsize" : 12.0,
					"numinlets" : 0,
					"numoutlets" : 1,
					"patcher" : 					{
						"fileversion" : 1,
						"rect" : [ 0.0, 0.0, 640.0, 480.0 ],
						"bglocked" : 0,
						"defrect" : [ 0.0, 0.0, 640.0, 480.0 ],
						"openrect" : [ 0.0, 0.0, 0.0, 0.0 ],
						"openinpresentation" : 0,
						"default_fontsize" : 12.0,
						"default_fontface" : 0,
						"default_fontname" : "Arial",
						"gridonopen" : 0,
						"gridsize" : [ 15.0, 15.0 ],
						"gridsnaponopen" : 0,
						"toolbarvisible" : 1,
						"boxanimatetime" : 200,
						"imprint" : 0,
						"enablehscroll" : 1,
						"enablevscroll" : 1,
						"devicewidth" : 0.0,
						"boxes" : [ 							{
								"box" : 								{
									"maxclass" : "toggle",
									"outlettype" : [ "int" ],
									"id" : "obj-52",
									"patching_rect" : [ 50.0, 168.0, 22.0, 22.0 ],
									"numinlets" : 1,
									"numoutlets" : 1
								}

							}
, 							{
								"box" : 								{
									"maxclass" : "message",
									"text" : "fullscreen $1",
									"outlettype" : [ "" ],
									"id" : "obj-53",
									"fontname" : "Arial",
									"patching_rect" : [ 50.0, 194.0, 91.0, 18.0 ],
									"fontsize" : 12.0,
									"numinlets" : 2,
									"numoutlets" : 1
								}

							}
, 							{
								"box" : 								{
									"maxclass" : "newobj",
									"text" : "sel 27",
									"outlettype" : [ "bang", "" ],
									"id" : "obj-54",
									"fontname" : "Arial",
									"patching_rect" : [ 50.0, 134.0, 52.0, 20.0 ],
									"fontsize" : 12.0,
									"numinlets" : 2,
									"numoutlets" : 2
								}

							}
, 							{
								"box" : 								{
									"maxclass" : "newobj",
									"text" : "key",
									"outlettype" : [ "int", "int", "int", "int" ],
									"id" : "obj-55",
									"fontname" : "Arial",
									"patching_rect" : [ 50.0, 100.0, 36.0, 20.0 ],
									"fontsize" : 12.0,
									"numinlets" : 0,
									"numoutlets" : 4
								}

							}
, 							{
								"box" : 								{
									"maxclass" : "outlet",
									"id" : "obj-3",
									"patching_rect" : [ 50.0, 272.0, 25.0, 25.0 ],
									"numinlets" : 1,
									"numoutlets" : 0,
									"comment" : ""
								}

							}
 ],
						"lines" : [ 							{
								"patchline" : 								{
									"source" : [ "obj-52", 0 ],
									"destination" : [ "obj-53", 0 ],
									"hidden" : 0,
									"midpoints" : [  ]
								}

							}
, 							{
								"patchline" : 								{
									"source" : [ "obj-54", 0 ],
									"destination" : [ "obj-52", 0 ],
									"hidden" : 0,
									"midpoints" : [  ]
								}

							}
, 							{
								"patchline" : 								{
									"source" : [ "obj-55", 0 ],
									"destination" : [ "obj-54", 0 ],
									"hidden" : 0,
									"midpoints" : [  ]
								}

							}
, 							{
								"patchline" : 								{
									"source" : [ "obj-53", 0 ],
									"destination" : [ "obj-3", 0 ],
									"hidden" : 0,
									"midpoints" : [  ]
								}

							}
 ]
					}
,
					"saved_object_attributes" : 					{
						"fontname" : "Arial",
						"default_fontface" : 0,
						"globalpatchername" : "",
						"fontface" : 0,
						"default_fontname" : "Arial",
						"fontsize" : 12.0,
						"default_fontsize" : 12.0
					}

				}

			}
, 			{
				"box" : 				{
					"maxclass" : "newobj",
					"text" : "jit.gl.handle movie_texture @inherit_transform 1",
					"linecount" : 2,
					"outlettype" : [ "", "" ],
					"id" : "obj-59",
					"fontname" : "Arial",
					"patching_rect" : [ 466.0, 136.0, 153.0, 34.0 ],
					"fontsize" : 12.0,
					"numinlets" : 1,
					"numoutlets" : 2
				}

			}
, 			{
				"box" : 				{
					"maxclass" : "toggle",
					"outlettype" : [ "int" ],
					"id" : "obj-8",
					"patching_rect" : [ 177.0, 105.0, 22.0, 22.0 ],
					"numinlets" : 1,
					"numoutlets" : 1
				}

			}
, 			{
				"box" : 				{
					"maxclass" : "newobj",
					"text" : "p rotate_me",
					"outlettype" : [ "" ],
					"id" : "obj-9",
					"fontname" : "Arial",
					"patching_rect" : [ 111.0, 146.0, 85.0, 20.0 ],
					"fontsize" : 12.0,
					"numinlets" : 2,
					"numoutlets" : 1,
					"patcher" : 					{
						"fileversion" : 1,
						"rect" : [ 40.0, 104.0, 650.0, 648.0 ],
						"bglocked" : 0,
						"defrect" : [ 40.0, 104.0, 650.0, 648.0 ],
						"openrect" : [ 0.0, 0.0, 0.0, 0.0 ],
						"openinpresentation" : 0,
						"default_fontsize" : 12.0,
						"default_fontface" : 0,
						"default_fontname" : "Arial",
						"gridonopen" : 0,
						"gridsize" : [ 8.0, 8.0 ],
						"gridsnaponopen" : 0,
						"toolbarvisible" : 1,
						"boxanimatetime" : 200,
						"imprint" : 0,
						"enablehscroll" : 1,
						"enablevscroll" : 1,
						"devicewidth" : 0.0,
						"boxes" : [ 							{
								"box" : 								{
									"maxclass" : "message",
									"text" : "0",
									"outlettype" : [ "" ],
									"id" : "obj-18",
									"fontname" : "Arial",
									"patching_rect" : [ 288.0, 153.0, 32.5, 18.0 ],
									"fontsize" : 12.0,
									"numinlets" : 2,
									"numoutlets" : 1
								}

							}
, 							{
								"box" : 								{
									"maxclass" : "newobj",
									"text" : "sel 0",
									"outlettype" : [ "bang", "" ],
									"id" : "obj-16",
									"fontname" : "Arial",
									"patching_rect" : [ 288.0, 113.0, 36.0, 20.0 ],
									"fontsize" : 12.0,
									"numinlets" : 2,
									"numoutlets" : 2
								}

							}
, 							{
								"box" : 								{
									"maxclass" : "outlet",
									"id" : "obj-1",
									"patching_rect" : [ 156.0, 437.0, 15.0, 15.0 ],
									"numinlets" : 1,
									"numoutlets" : 0,
									"comment" : ""
								}

							}
, 							{
								"box" : 								{
									"maxclass" : "inlet",
									"outlettype" : [ "int" ],
									"id" : "obj-2",
									"patching_rect" : [ 253.0, 66.0, 15.0, 15.0 ],
									"numinlets" : 0,
									"numoutlets" : 1,
									"comment" : ""
								}

							}
, 							{
								"box" : 								{
									"maxclass" : "inlet",
									"outlettype" : [ "jit_matrix" ],
									"id" : "obj-3",
									"patching_rect" : [ 174.0, 55.0, 15.0, 15.0 ],
									"numinlets" : 0,
									"numoutlets" : 1,
									"comment" : ""
								}

							}
, 							{
								"box" : 								{
									"maxclass" : "flonum",
									"triscale" : 0.9,
									"outlettype" : [ "float", "bang" ],
									"id" : "obj-4",
									"fontname" : "Arial",
									"patching_rect" : [ 175.0, 236.0, 35.0, 17.0 ],
									"htextcolor" : [ 0.870588, 0.870588, 0.870588, 1.0 ],
									"fontsize" : 9.0,
									"numinlets" : 1,
									"bgcolor" : [ 0.866667, 0.866667, 0.866667, 1.0 ],
									"numoutlets" : 2
								}

							}
, 							{
								"box" : 								{
									"maxclass" : "newobj",
									"text" : "* 1.",
									"outlettype" : [ "float" ],
									"id" : "obj-5",
									"fontname" : "Arial",
									"patching_rect" : [ 158.0, 254.0, 27.0, 17.0 ],
									"fontsize" : 9.0,
									"numinlets" : 2,
									"numoutlets" : 1
								}

							}
, 							{
								"box" : 								{
									"maxclass" : "newobj",
									"text" : "counter 360",
									"outlettype" : [ "int", "", "", "int" ],
									"id" : "obj-6",
									"fontname" : "Arial",
									"patching_rect" : [ 158.0, 216.0, 66.0, 17.0 ],
									"fontsize" : 9.0,
									"numinlets" : 5,
									"numoutlets" : 4
								}

							}
, 							{
								"box" : 								{
									"maxclass" : "newobj",
									"text" : "t b",
									"outlettype" : [ "bang" ],
									"id" : "obj-7",
									"fontname" : "Arial",
									"patching_rect" : [ 158.0, 195.0, 20.0, 17.0 ],
									"fontsize" : 9.0,
									"numinlets" : 1,
									"numoutlets" : 1
								}

							}
, 							{
								"box" : 								{
									"maxclass" : "newobj",
									"text" : "gate",
									"outlettype" : [ "" ],
									"id" : "obj-8",
									"fontname" : "Arial",
									"patching_rect" : [ 158.0, 120.0, 27.0, 17.0 ],
									"fontsize" : 9.0,
									"numinlets" : 2,
									"numoutlets" : 1
								}

							}
, 							{
								"box" : 								{
									"maxclass" : "newobj",
									"text" : "expr ($f1/360.)*6.283185",
									"outlettype" : [ "" ],
									"id" : "obj-9",
									"fontname" : "Arial",
									"patching_rect" : [ 156.0, 318.0, 135.0, 17.0 ],
									"fontsize" : 9.0,
									"numinlets" : 1,
									"numoutlets" : 1
								}

							}
, 							{
								"box" : 								{
									"maxclass" : "flonum",
									"triscale" : 0.9,
									"outlettype" : [ "float", "bang" ],
									"id" : "obj-10",
									"fontname" : "Arial",
									"patching_rect" : [ 156.0, 297.0, 35.0, 17.0 ],
									"htextcolor" : [ 0.870588, 0.870588, 0.870588, 1.0 ],
									"fontsize" : 9.0,
									"numinlets" : 1,
									"bgcolor" : [ 0.866667, 0.866667, 0.866667, 1.0 ],
									"numoutlets" : 2
								}

							}
, 							{
								"box" : 								{
									"maxclass" : "flonum",
									"triscale" : 0.9,
									"outlettype" : [ "float", "bang" ],
									"id" : "obj-11",
									"fontname" : "Arial",
									"patching_rect" : [ 156.0, 363.0, 45.0, 17.0 ],
									"htextcolor" : [ 0.870588, 0.870588, 0.870588, 1.0 ],
									"fontsize" : 9.0,
									"numinlets" : 1,
									"bgcolor" : [ 0.866667, 0.866667, 0.866667, 1.0 ],
									"numoutlets" : 2
								}

							}
, 							{
								"box" : 								{
									"maxclass" : "message",
									"text" : "theta $1",
									"outlettype" : [ "" ],
									"id" : "obj-12",
									"fontname" : "Arial",
									"patching_rect" : [ 156.0, 384.0, 45.0, 15.0 ],
									"fontsize" : 9.0,
									"numinlets" : 2,
									"numoutlets" : 1
								}

							}
, 							{
								"box" : 								{
									"maxclass" : "comment",
									"text" : "radians",
									"id" : "obj-13",
									"fontname" : "Arial",
									"patching_rect" : [ 207.0, 363.0, 62.0, 17.0 ],
									"fontsize" : 9.0,
									"numinlets" : 1,
									"numoutlets" : 0
								}

							}
, 							{
								"box" : 								{
									"maxclass" : "comment",
									"text" : "degrees",
									"id" : "obj-14",
									"fontname" : "Arial",
									"patching_rect" : [ 204.0, 302.0, 50.0, 17.0 ],
									"fontsize" : 9.0,
									"numinlets" : 1,
									"numoutlets" : 0
								}

							}
, 							{
								"box" : 								{
									"maxclass" : "comment",
									"text" : "auto rotate",
									"id" : "obj-15",
									"fontname" : "Arial",
									"patching_rect" : [ 198.0, 102.0, 57.0, 17.0 ],
									"fontsize" : 9.0,
									"numinlets" : 1,
									"numoutlets" : 0
								}

							}
 ],
						"lines" : [ 							{
								"patchline" : 								{
									"source" : [ "obj-18", 0 ],
									"destination" : [ "obj-6", 3 ],
									"hidden" : 0,
									"midpoints" : [  ]
								}

							}
, 							{
								"patchline" : 								{
									"source" : [ "obj-16", 0 ],
									"destination" : [ "obj-18", 0 ],
									"hidden" : 0,
									"midpoints" : [  ]
								}

							}
, 							{
								"patchline" : 								{
									"source" : [ "obj-2", 0 ],
									"destination" : [ "obj-16", 0 ],
									"hidden" : 0,
									"midpoints" : [  ]
								}

							}
, 							{
								"patchline" : 								{
									"source" : [ "obj-5", 0 ],
									"destination" : [ "obj-10", 0 ],
									"hidden" : 0,
									"midpoints" : [  ]
								}

							}
, 							{
								"patchline" : 								{
									"source" : [ "obj-10", 0 ],
									"destination" : [ "obj-9", 0 ],
									"hidden" : 0,
									"midpoints" : [  ]
								}

							}
, 							{
								"patchline" : 								{
									"source" : [ "obj-9", 0 ],
									"destination" : [ "obj-11", 0 ],
									"hidden" : 0,
									"midpoints" : [  ]
								}

							}
, 							{
								"patchline" : 								{
									"source" : [ "obj-11", 0 ],
									"destination" : [ "obj-12", 0 ],
									"hidden" : 0,
									"midpoints" : [  ]
								}

							}
, 							{
								"patchline" : 								{
									"source" : [ "obj-12", 0 ],
									"destination" : [ "obj-1", 0 ],
									"hidden" : 0,
									"midpoints" : [  ]
								}

							}
, 							{
								"patchline" : 								{
									"source" : [ "obj-2", 0 ],
									"destination" : [ "obj-8", 0 ],
									"hidden" : 0,
									"midpoints" : [  ]
								}

							}
, 							{
								"patchline" : 								{
									"source" : [ "obj-8", 0 ],
									"destination" : [ "obj-7", 0 ],
									"hidden" : 0,
									"midpoints" : [  ]
								}

							}
, 							{
								"patchline" : 								{
									"source" : [ "obj-7", 0 ],
									"destination" : [ "obj-6", 0 ],
									"hidden" : 0,
									"midpoints" : [  ]
								}

							}
, 							{
								"patchline" : 								{
									"source" : [ "obj-6", 0 ],
									"destination" : [ "obj-5", 0 ],
									"hidden" : 0,
									"midpoints" : [  ]
								}

							}
, 							{
								"patchline" : 								{
									"source" : [ "obj-3", 0 ],
									"destination" : [ "obj-8", 1 ],
									"hidden" : 0,
									"midpoints" : [  ]
								}

							}
, 							{
								"patchline" : 								{
									"source" : [ "obj-4", 0 ],
									"destination" : [ "obj-5", 1 ],
									"hidden" : 0,
									"midpoints" : [  ]
								}

							}
 ]
					}
,
					"saved_object_attributes" : 					{
						"fontname" : "Arial",
						"default_fontface" : 0,
						"globalpatchername" : "",
						"fontface" : 0,
						"default_fontname" : "Arial",
						"fontsize" : 12.0,
						"default_fontsize" : 12.0
					}

				}

			}
, 			{
				"box" : 				{
					"maxclass" : "newobj",
					"text" : "jit.rota @boundmode 4",
					"outlettype" : [ "jit_matrix", "" ],
					"id" : "obj-15",
					"fontname" : "Arial",
					"patching_rect" : [ 30.0, 185.0, 132.0, 20.0 ],
					"fontsize" : 12.0,
					"numinlets" : 1,
					"numoutlets" : 2
				}

			}
, 			{
				"box" : 				{
					"maxclass" : "newobj",
					"text" : "p more_OpenGL",
					"id" : "obj-22",
					"fontname" : "Arial",
					"patching_rect" : [ 28.0, 460.0, 114.0, 20.0 ],
					"fontsize" : 12.0,
					"numinlets" : 0,
					"numoutlets" : 0,
					"patcher" : 					{
						"fileversion" : 1,
						"rect" : [ 578.0, 154.0, 486.0, 680.0 ],
						"bglocked" : 0,
						"defrect" : [ 578.0, 154.0, 486.0, 680.0 ],
						"openrect" : [ 0.0, 0.0, 0.0, 0.0 ],
						"openinpresentation" : 0,
						"default_fontsize" : 12.0,
						"default_fontface" : 0,
						"default_fontname" : "Arial",
						"gridonopen" : 0,
						"gridsize" : [ 8.0, 8.0 ],
						"gridsnaponopen" : 0,
						"toolbarvisible" : 1,
						"boxanimatetime" : 200,
						"imprint" : 0,
						"enablehscroll" : 1,
						"enablevscroll" : 1,
						"devicewidth" : 0.0,
						"boxes" : [ 							{
								"box" : 								{
									"maxclass" : "newobj",
									"text" : "s otherdata",
									"id" : "obj-1",
									"fontname" : "Arial",
									"patching_rect" : [ 60.0, 587.0, 112.0, 27.0 ],
									"fontsize" : 18.0,
									"numinlets" : 1,
									"numoutlets" : 0
								}

							}
, 							{
								"box" : 								{
									"maxclass" : "newobj",
									"text" : "vexpr $i1/255.",
									"outlettype" : [ "" ],
									"id" : "obj-2",
									"fontname" : "Arial",
									"patching_rect" : [ 112.0, 450.0, 143.0, 27.0 ],
									"fontsize" : 18.0,
									"numinlets" : 1,
									"numoutlets" : 1
								}

							}
, 							{
								"box" : 								{
									"maxclass" : "swatch",
									"outlettype" : [ "", "float" ],
									"id" : "obj-3",
									"patching_rect" : [ 112.0, 385.0, 145.0, 58.0 ],
									"numinlets" : 3,
									"compatibility" : 1,
									"numoutlets" : 2
								}

							}
, 							{
								"box" : 								{
									"maxclass" : "flonum",
									"triscale" : 0.9,
									"outlettype" : [ "float", "bang" ],
									"id" : "obj-4",
									"fontname" : "Arial",
									"patching_rect" : [ 259.0, 154.0, 47.0, 27.0 ],
									"htextcolor" : [ 0.870588, 0.870588, 0.870588, 1.0 ],
									"fontsize" : 18.0,
									"numinlets" : 1,
									"bgcolor" : [ 0.866667, 0.866667, 0.866667, 1.0 ],
									"numoutlets" : 2
								}

							}
, 							{
								"box" : 								{
									"maxclass" : "flonum",
									"triscale" : 0.9,
									"outlettype" : [ "float", "bang" ],
									"id" : "obj-5",
									"fontname" : "Arial",
									"patching_rect" : [ 210.0, 155.0, 47.0, 27.0 ],
									"htextcolor" : [ 0.870588, 0.870588, 0.870588, 1.0 ],
									"fontsize" : 18.0,
									"numinlets" : 1,
									"bgcolor" : [ 0.866667, 0.866667, 0.866667, 1.0 ],
									"numoutlets" : 2
								}

							}
, 							{
								"box" : 								{
									"maxclass" : "flonum",
									"triscale" : 0.9,
									"outlettype" : [ "float", "bang" ],
									"id" : "obj-6",
									"fontname" : "Arial",
									"patching_rect" : [ 161.0, 155.0, 47.0, 27.0 ],
									"htextcolor" : [ 0.870588, 0.870588, 0.870588, 1.0 ],
									"fontsize" : 18.0,
									"numinlets" : 1,
									"bgcolor" : [ 0.866667, 0.866667, 0.866667, 1.0 ],
									"numoutlets" : 2
								}

							}
, 							{
								"box" : 								{
									"maxclass" : "message",
									"text" : "rotate $1 $2 $3 $4",
									"outlettype" : [ "" ],
									"id" : "obj-7",
									"fontname" : "Arial",
									"patching_rect" : [ 112.0, 219.0, 184.0, 25.0 ],
									"fontsize" : 18.0,
									"numinlets" : 2,
									"numoutlets" : 1
								}

							}
, 							{
								"box" : 								{
									"maxclass" : "newobj",
									"text" : "pak 0. 0. 0. 0.",
									"outlettype" : [ "" ],
									"id" : "obj-8",
									"fontname" : "Arial",
									"patching_rect" : [ 112.0, 185.0, 159.0, 27.0 ],
									"fontsize" : 18.0,
									"numinlets" : 4,
									"numoutlets" : 1
								}

							}
, 							{
								"box" : 								{
									"maxclass" : "flonum",
									"triscale" : 0.9,
									"outlettype" : [ "float", "bang" ],
									"id" : "obj-9",
									"fontname" : "Arial",
									"patching_rect" : [ 112.0, 155.0, 47.0, 27.0 ],
									"htextcolor" : [ 0.870588, 0.870588, 0.870588, 1.0 ],
									"fontsize" : 18.0,
									"numinlets" : 1,
									"bgcolor" : [ 0.866667, 0.866667, 0.866667, 1.0 ],
									"numoutlets" : 2
								}

							}
, 							{
								"box" : 								{
									"maxclass" : "flonum",
									"triscale" : 0.9,
									"outlettype" : [ "float", "bang" ],
									"id" : "obj-10",
									"fontname" : "Arial",
									"patching_rect" : [ 210.0, 270.0, 47.0, 27.0 ],
									"htextcolor" : [ 0.870588, 0.870588, 0.870588, 1.0 ],
									"fontsize" : 18.0,
									"numinlets" : 1,
									"bgcolor" : [ 0.866667, 0.866667, 0.866667, 1.0 ],
									"numoutlets" : 2
								}

							}
, 							{
								"box" : 								{
									"maxclass" : "flonum",
									"triscale" : 0.9,
									"outlettype" : [ "float", "bang" ],
									"id" : "obj-11",
									"fontname" : "Arial",
									"patching_rect" : [ 161.0, 270.0, 47.0, 27.0 ],
									"htextcolor" : [ 0.870588, 0.870588, 0.870588, 1.0 ],
									"fontsize" : 18.0,
									"numinlets" : 1,
									"bgcolor" : [ 0.866667, 0.866667, 0.866667, 1.0 ],
									"numoutlets" : 2
								}

							}
, 							{
								"box" : 								{
									"maxclass" : "message",
									"text" : "position $1 $2 $3",
									"outlettype" : [ "" ],
									"id" : "obj-12",
									"fontname" : "Arial",
									"patching_rect" : [ 112.0, 334.0, 194.0, 25.0 ],
									"fontsize" : 18.0,
									"numinlets" : 2,
									"numoutlets" : 1
								}

							}
, 							{
								"box" : 								{
									"maxclass" : "newobj",
									"text" : "pak 0. 0. 0.",
									"outlettype" : [ "" ],
									"id" : "obj-13",
									"fontname" : "Arial",
									"patching_rect" : [ 112.0, 300.0, 109.0, 27.0 ],
									"fontsize" : 18.0,
									"numinlets" : 3,
									"numoutlets" : 1
								}

							}
, 							{
								"box" : 								{
									"maxclass" : "flonum",
									"triscale" : 0.9,
									"outlettype" : [ "float", "bang" ],
									"id" : "obj-14",
									"fontname" : "Arial",
									"patching_rect" : [ 112.0, 270.0, 47.0, 27.0 ],
									"htextcolor" : [ 0.870588, 0.870588, 0.870588, 1.0 ],
									"fontsize" : 18.0,
									"numinlets" : 1,
									"bgcolor" : [ 0.866667, 0.866667, 0.866667, 1.0 ],
									"numoutlets" : 2
								}

							}
, 							{
								"box" : 								{
									"maxclass" : "flonum",
									"triscale" : 0.9,
									"outlettype" : [ "float", "bang" ],
									"id" : "obj-15",
									"fontname" : "Arial",
									"patching_rect" : [ 111.0, 1.0, 80.0, 27.0 ],
									"htextcolor" : [ 0.870588, 0.870588, 0.870588, 1.0 ],
									"fontsize" : 18.0,
									"numinlets" : 1,
									"bgcolor" : [ 0.866667, 0.866667, 0.866667, 1.0 ],
									"numoutlets" : 2
								}

							}
, 							{
								"box" : 								{
									"maxclass" : "flonum",
									"triscale" : 0.9,
									"outlettype" : [ "float", "bang" ],
									"id" : "obj-16",
									"fontname" : "Arial",
									"patching_rect" : [ 239.0, 36.0, 48.0, 27.0 ],
									"htextcolor" : [ 0.870588, 0.870588, 0.870588, 1.0 ],
									"fontsize" : 18.0,
									"numinlets" : 1,
									"bgcolor" : [ 0.866667, 0.866667, 0.866667, 1.0 ],
									"numoutlets" : 2
								}

							}
, 							{
								"box" : 								{
									"maxclass" : "flonum",
									"triscale" : 0.9,
									"outlettype" : [ "float", "bang" ],
									"id" : "obj-17",
									"fontname" : "Arial",
									"patching_rect" : [ 175.0, 36.0, 48.0, 27.0 ],
									"htextcolor" : [ 0.870588, 0.870588, 0.870588, 1.0 ],
									"fontsize" : 18.0,
									"numinlets" : 1,
									"bgcolor" : [ 0.866667, 0.866667, 0.866667, 1.0 ],
									"numoutlets" : 2
								}

							}
, 							{
								"box" : 								{
									"maxclass" : "message",
									"text" : "scale $1 $2 $3",
									"outlettype" : [ "" ],
									"id" : "obj-18",
									"fontname" : "Arial",
									"patching_rect" : [ 111.0, 100.0, 144.0, 25.0 ],
									"fontsize" : 18.0,
									"numinlets" : 2,
									"numoutlets" : 1
								}

							}
, 							{
								"box" : 								{
									"maxclass" : "newobj",
									"text" : "pak 0. 0. 0.",
									"outlettype" : [ "" ],
									"id" : "obj-19",
									"fontname" : "Arial",
									"patching_rect" : [ 111.0, 67.0, 139.0, 27.0 ],
									"fontsize" : 18.0,
									"numinlets" : 3,
									"numoutlets" : 1
								}

							}
, 							{
								"box" : 								{
									"maxclass" : "flonum",
									"triscale" : 0.9,
									"outlettype" : [ "float", "bang" ],
									"id" : "obj-20",
									"fontname" : "Arial",
									"patching_rect" : [ 111.0, 36.0, 48.0, 27.0 ],
									"htextcolor" : [ 0.870588, 0.870588, 0.870588, 1.0 ],
									"fontsize" : 18.0,
									"numinlets" : 1,
									"bgcolor" : [ 0.866667, 0.866667, 0.866667, 1.0 ],
									"numoutlets" : 2
								}

							}
, 							{
								"box" : 								{
									"maxclass" : "message",
									"text" : "color $1 $2 $3 1.",
									"outlettype" : [ "" ],
									"id" : "obj-21",
									"fontname" : "Arial",
									"patching_rect" : [ 112.0, 488.0, 176.0, 25.0 ],
									"fontsize" : 18.0,
									"numinlets" : 2,
									"numoutlets" : 1
								}

							}
, 							{
								"box" : 								{
									"maxclass" : "comment",
									"text" : "Note: this is RGBA, not ARGB",
									"linecount" : 2,
									"id" : "obj-22",
									"fontname" : "Arial",
									"patching_rect" : [ 122.0, 519.0, 160.0, 48.0 ],
									"fontsize" : 18.0,
									"numinlets" : 1,
									"numoutlets" : 0
								}

							}
 ],
						"lines" : [ 							{
								"patchline" : 								{
									"source" : [ "obj-21", 0 ],
									"destination" : [ "obj-1", 0 ],
									"hidden" : 0,
									"midpoints" : [ 121.5, 537.0, 69.5, 537.0 ]
								}

							}
, 							{
								"patchline" : 								{
									"source" : [ "obj-18", 0 ],
									"destination" : [ "obj-1", 0 ],
									"hidden" : 0,
									"midpoints" : [ 120.5, 142.0, 69.5, 142.0 ]
								}

							}
, 							{
								"patchline" : 								{
									"source" : [ "obj-12", 0 ],
									"destination" : [ "obj-1", 0 ],
									"hidden" : 0,
									"midpoints" : [ 121.5, 373.0, 69.5, 373.0 ]
								}

							}
, 							{
								"patchline" : 								{
									"source" : [ "obj-7", 0 ],
									"destination" : [ "obj-1", 0 ],
									"hidden" : 0,
									"midpoints" : [ 121.5, 259.0, 69.5, 259.0 ]
								}

							}
, 							{
								"patchline" : 								{
									"source" : [ "obj-15", 0 ],
									"destination" : [ "obj-20", 0 ],
									"hidden" : 0,
									"midpoints" : [  ]
								}

							}
, 							{
								"patchline" : 								{
									"source" : [ "obj-20", 0 ],
									"destination" : [ "obj-19", 0 ],
									"hidden" : 0,
									"midpoints" : [  ]
								}

							}
, 							{
								"patchline" : 								{
									"source" : [ "obj-19", 0 ],
									"destination" : [ "obj-18", 0 ],
									"hidden" : 0,
									"midpoints" : [  ]
								}

							}
, 							{
								"patchline" : 								{
									"source" : [ "obj-9", 0 ],
									"destination" : [ "obj-8", 0 ],
									"hidden" : 0,
									"midpoints" : [  ]
								}

							}
, 							{
								"patchline" : 								{
									"source" : [ "obj-8", 0 ],
									"destination" : [ "obj-7", 0 ],
									"hidden" : 0,
									"midpoints" : [  ]
								}

							}
, 							{
								"patchline" : 								{
									"source" : [ "obj-14", 0 ],
									"destination" : [ "obj-13", 0 ],
									"hidden" : 0,
									"midpoints" : [  ]
								}

							}
, 							{
								"patchline" : 								{
									"source" : [ "obj-13", 0 ],
									"destination" : [ "obj-12", 0 ],
									"hidden" : 0,
									"midpoints" : [  ]
								}

							}
, 							{
								"patchline" : 								{
									"source" : [ "obj-3", 0 ],
									"destination" : [ "obj-2", 0 ],
									"hidden" : 0,
									"midpoints" : [  ]
								}

							}
, 							{
								"patchline" : 								{
									"source" : [ "obj-2", 0 ],
									"destination" : [ "obj-21", 0 ],
									"hidden" : 0,
									"midpoints" : [  ]
								}

							}
, 							{
								"patchline" : 								{
									"source" : [ "obj-6", 0 ],
									"destination" : [ "obj-8", 1 ],
									"hidden" : 0,
									"midpoints" : [  ]
								}

							}
, 							{
								"patchline" : 								{
									"source" : [ "obj-11", 0 ],
									"destination" : [ "obj-13", 1 ],
									"hidden" : 0,
									"midpoints" : [  ]
								}

							}
, 							{
								"patchline" : 								{
									"source" : [ "obj-15", 0 ],
									"destination" : [ "obj-17", 0 ],
									"hidden" : 0,
									"midpoints" : [  ]
								}

							}
, 							{
								"patchline" : 								{
									"source" : [ "obj-17", 0 ],
									"destination" : [ "obj-19", 1 ],
									"hidden" : 0,
									"midpoints" : [  ]
								}

							}
, 							{
								"patchline" : 								{
									"source" : [ "obj-5", 0 ],
									"destination" : [ "obj-8", 2 ],
									"hidden" : 0,
									"midpoints" : [  ]
								}

							}
, 							{
								"patchline" : 								{
									"source" : [ "obj-10", 0 ],
									"destination" : [ "obj-13", 2 ],
									"hidden" : 0,
									"midpoints" : [  ]
								}

							}
, 							{
								"patchline" : 								{
									"source" : [ "obj-15", 0 ],
									"destination" : [ "obj-16", 0 ],
									"hidden" : 0,
									"midpoints" : [  ]
								}

							}
, 							{
								"patchline" : 								{
									"source" : [ "obj-16", 0 ],
									"destination" : [ "obj-19", 2 ],
									"hidden" : 0,
									"midpoints" : [  ]
								}

							}
, 							{
								"patchline" : 								{
									"source" : [ "obj-4", 0 ],
									"destination" : [ "obj-8", 3 ],
									"hidden" : 0,
									"midpoints" : [  ]
								}

							}
 ]
					}
,
					"saved_object_attributes" : 					{
						"fontname" : "Arial",
						"default_fontface" : 0,
						"globalpatchername" : "",
						"fontface" : 0,
						"default_fontname" : "Arial",
						"fontsize" : 12.0,
						"default_fontsize" : 12.0
					}

				}

			}
, 			{
				"box" : 				{
					"maxclass" : "toggle",
					"outlettype" : [ "int" ],
					"id" : "obj-24",
					"patching_rect" : [ 466.0, 72.0, 22.0, 22.0 ],
					"numinlets" : 1,
					"numoutlets" : 1
				}

			}
, 			{
				"box" : 				{
					"maxclass" : "message",
					"text" : "auto_rotate $1",
					"outlettype" : [ "" ],
					"id" : "obj-25",
					"fontname" : "Arial",
					"patching_rect" : [ 466.0, 103.0, 112.0, 18.0 ],
					"fontsize" : 12.0,
					"numinlets" : 2,
					"numoutlets" : 1
				}

			}
, 			{
				"box" : 				{
					"maxclass" : "toggle",
					"outlettype" : [ "int" ],
					"id" : "obj-27",
					"patching_rect" : [ 30.0, 22.0, 22.0, 22.0 ],
					"numinlets" : 1,
					"numoutlets" : 1
				}

			}
, 			{
				"box" : 				{
					"maxclass" : "toggle",
					"outlettype" : [ "int" ],
					"id" : "obj-28",
					"patching_rect" : [ 343.0, 26.0, 22.0, 22.0 ],
					"numinlets" : 1,
					"numoutlets" : 1
				}

			}
, 			{
				"box" : 				{
					"maxclass" : "newobj",
					"text" : "r otherdata",
					"outlettype" : [ "" ],
					"id" : "obj-29",
					"fontname" : "Arial",
					"patching_rect" : [ 64.0, 399.0, 84.0, 20.0 ],
					"fontsize" : 12.0,
					"numinlets" : 0,
					"numoutlets" : 1
				}

			}
, 			{
				"box" : 				{
					"maxclass" : "toggle",
					"outlettype" : [ "int" ],
					"id" : "obj-30",
					"patching_rect" : [ 64.0, 341.0, 22.0, 22.0 ],
					"numinlets" : 1,
					"numoutlets" : 1
				}

			}
, 			{
				"box" : 				{
					"maxclass" : "message",
					"text" : "smooth_shading $1",
					"outlettype" : [ "" ],
					"id" : "obj-31",
					"fontname" : "Arial",
					"patching_rect" : [ 64.0, 370.0, 127.0, 18.0 ],
					"fontsize" : 12.0,
					"numinlets" : 2,
					"numoutlets" : 1
				}

			}
, 			{
				"box" : 				{
					"maxclass" : "message",
					"text" : "texture movietext",
					"outlettype" : [ "" ],
					"id" : "obj-32",
					"fontname" : "Arial",
					"patching_rect" : [ 29.0, 315.0, 132.0, 18.0 ],
					"fontsize" : 12.0,
					"numinlets" : 2,
					"numoutlets" : 1
				}

			}
, 			{
				"box" : 				{
					"maxclass" : "message",
					"text" : "read",
					"outlettype" : [ "" ],
					"id" : "obj-33",
					"fontname" : "Arial",
					"patching_rect" : [ 128.0, 58.0, 47.0, 18.0 ],
					"fontsize" : 12.0,
					"numinlets" : 2,
					"numoutlets" : 1
				}

			}
, 			{
				"box" : 				{
					"maxclass" : "newobj",
					"text" : "metro 20",
					"outlettype" : [ "bang" ],
					"id" : "obj-34",
					"fontname" : "Arial",
					"patching_rect" : [ 30.0, 58.0, 64.0, 20.0 ],
					"fontsize" : 12.0,
					"numinlets" : 2,
					"numoutlets" : 1
				}

			}
, 			{
				"box" : 				{
					"maxclass" : "newobj",
					"text" : "jit.qt.movie 256 256",
					"outlettype" : [ "jit_matrix", "" ],
					"id" : "obj-35",
					"fontname" : "Arial",
					"patching_rect" : [ 30.0, 105.0, 137.0, 20.0 ],
					"fontsize" : 12.0,
					"numinlets" : 1,
					"numoutlets" : 2
				}

			}
, 			{
				"box" : 				{
					"maxclass" : "newobj",
					"text" : "jit.gl.texture movie_texture @name movietext",
					"outlettype" : [ "jit_gl_texture", "" ],
					"id" : "obj-37",
					"fontname" : "Arial",
					"patching_rect" : [ 30.0, 214.0, 251.0, 20.0 ],
					"fontsize" : 12.0,
					"numinlets" : 1,
					"numoutlets" : 2
				}

			}
, 			{
				"box" : 				{
					"maxclass" : "newobj",
					"text" : "t b erase",
					"outlettype" : [ "bang", "erase" ],
					"id" : "obj-50",
					"fontname" : "Arial",
					"patching_rect" : [ 343.0, 98.0, 80.0, 20.0 ],
					"fontsize" : 12.0,
					"numinlets" : 1,
					"numoutlets" : 2
				}

			}
, 			{
				"box" : 				{
					"maxclass" : "newobj",
					"text" : "jit.gl.gridshape movie_texture @shape cube",
					"outlettype" : [ "jit_matrix", "" ],
					"id" : "obj-51",
					"fontname" : "Arial",
					"patching_rect" : [ 29.0, 431.0, 244.0, 20.0 ],
					"fontsize" : 12.0,
					"numinlets" : 1,
					"numoutlets" : 2
				}

			}
, 			{
				"box" : 				{
					"maxclass" : "newobj",
					"text" : "qmetro 2",
					"outlettype" : [ "bang" ],
					"id" : "obj-56",
					"fontname" : "Arial",
					"patching_rect" : [ 343.0, 61.0, 99.0, 20.0 ],
					"fontsize" : 12.0,
					"numinlets" : 2,
					"numoutlets" : 1
				}

			}
, 			{
				"box" : 				{
					"maxclass" : "newobj",
					"text" : "jit.window movie_texture @depthbuffer 1 @floating 1",
					"outlettype" : [ "bang", "" ],
					"id" : "obj-57",
					"fontname" : "Arial",
					"patching_rect" : [ 343.0, 265.0, 291.0, 20.0 ],
					"fontsize" : 12.0,
					"numinlets" : 1,
					"numoutlets" : 2
				}

			}
, 			{
				"box" : 				{
					"maxclass" : "newobj",
					"text" : "jit.gl.render movie_texture @camera 0 0 4",
					"outlettype" : [ "bang", "" ],
					"id" : "obj-58",
					"fontname" : "Arial",
					"patching_rect" : [ 343.0, 191.0, 234.0, 20.0 ],
					"fontsize" : 12.0,
					"numinlets" : 1,
					"numoutlets" : 2
				}

			}
 ],
		"lines" : [ 			{
				"patchline" : 				{
					"source" : [ "obj-14", 0 ],
					"destination" : [ "obj-12", 0 ],
					"hidden" : 0,
					"midpoints" : [  ]
				}

			}
, 			{
				"patchline" : 				{
					"source" : [ "obj-12", 0 ],
					"destination" : [ "obj-15", 0 ],
					"hidden" : 0,
					"midpoints" : [ 214.5, 175.0, 39.5, 175.0 ]
				}

			}
, 			{
				"patchline" : 				{
					"source" : [ "obj-11", 0 ],
					"destination" : [ "obj-59", 0 ],
					"hidden" : 0,
					"midpoints" : [ 607.5, 130.5, 475.5, 130.5 ]
				}

			}
, 			{
				"patchline" : 				{
					"source" : [ "obj-4", 0 ],
					"destination" : [ "obj-57", 0 ],
					"hidden" : 0,
					"midpoints" : [  ]
				}

			}
, 			{
				"patchline" : 				{
					"source" : [ "obj-59", 0 ],
					"destination" : [ "obj-58", 0 ],
					"hidden" : 0,
					"midpoints" : [  ]
				}

			}
, 			{
				"patchline" : 				{
					"source" : [ "obj-50", 1 ],
					"destination" : [ "obj-58", 0 ],
					"hidden" : 0,
					"midpoints" : [ 413.5, 142.0, 352.5, 142.0 ]
				}

			}
, 			{
				"patchline" : 				{
					"source" : [ "obj-50", 0 ],
					"destination" : [ "obj-58", 0 ],
					"hidden" : 0,
					"midpoints" : [  ]
				}

			}
, 			{
				"patchline" : 				{
					"source" : [ "obj-28", 0 ],
					"destination" : [ "obj-56", 0 ],
					"hidden" : 0,
					"midpoints" : [  ]
				}

			}
, 			{
				"patchline" : 				{
					"source" : [ "obj-56", 0 ],
					"destination" : [ "obj-50", 0 ],
					"hidden" : 0,
					"midpoints" : [  ]
				}

			}
, 			{
				"patchline" : 				{
					"source" : [ "obj-24", 0 ],
					"destination" : [ "obj-25", 0 ],
					"hidden" : 0,
					"midpoints" : [  ]
				}

			}
, 			{
				"patchline" : 				{
					"source" : [ "obj-35", 0 ],
					"destination" : [ "obj-9", 0 ],
					"hidden" : 0,
					"midpoints" : [ 39.5, 136.0, 120.5, 136.0 ]
				}

			}
, 			{
				"patchline" : 				{
					"source" : [ "obj-8", 0 ],
					"destination" : [ "obj-9", 1 ],
					"hidden" : 0,
					"midpoints" : [  ]
				}

			}
, 			{
				"patchline" : 				{
					"source" : [ "obj-30", 0 ],
					"destination" : [ "obj-31", 0 ],
					"hidden" : 0,
					"midpoints" : [  ]
				}

			}
, 			{
				"patchline" : 				{
					"source" : [ "obj-27", 0 ],
					"destination" : [ "obj-34", 0 ],
					"hidden" : 0,
					"midpoints" : [  ]
				}

			}
, 			{
				"patchline" : 				{
					"source" : [ "obj-33", 0 ],
					"destination" : [ "obj-35", 0 ],
					"hidden" : 0,
					"midpoints" : [ 137.5, 95.0, 39.5, 95.0 ]
				}

			}
, 			{
				"patchline" : 				{
					"source" : [ "obj-34", 0 ],
					"destination" : [ "obj-35", 0 ],
					"hidden" : 0,
					"midpoints" : [ 39.5, 95.0, 39.5, 95.0 ]
				}

			}
, 			{
				"patchline" : 				{
					"source" : [ "obj-32", 0 ],
					"destination" : [ "obj-51", 0 ],
					"hidden" : 0,
					"midpoints" : [ 38.5, 422.0, 38.5, 422.0 ]
				}

			}
, 			{
				"patchline" : 				{
					"source" : [ "obj-31", 0 ],
					"destination" : [ "obj-51", 0 ],
					"hidden" : 0,
					"midpoints" : [ 73.5, 393.0, 38.5, 393.0 ]
				}

			}
, 			{
				"patchline" : 				{
					"source" : [ "obj-29", 0 ],
					"destination" : [ "obj-51", 0 ],
					"hidden" : 0,
					"midpoints" : [ 73.5, 425.0, 38.5, 425.0 ]
				}

			}
, 			{
				"patchline" : 				{
					"source" : [ "obj-25", 0 ],
					"destination" : [ "obj-59", 0 ],
					"hidden" : 0,
					"midpoints" : [  ]
				}

			}
, 			{
				"patchline" : 				{
					"source" : [ "obj-15", 0 ],
					"destination" : [ "obj-37", 0 ],
					"hidden" : 0,
					"midpoints" : [  ]
				}

			}
, 			{
				"patchline" : 				{
					"source" : [ "obj-9", 0 ],
					"destination" : [ "obj-15", 0 ],
					"hidden" : 0,
					"midpoints" : [ 120.5, 175.0, 39.5, 175.0 ]
				}

			}
, 			{
				"patchline" : 				{
					"source" : [ "obj-35", 0 ],
					"destination" : [ "obj-15", 0 ],
					"hidden" : 0,
					"midpoints" : [  ]
				}

			}
 ]
	}

}
