{
	"patcher" : 	{
		"fileversion" : 1,
		"rect" : [ 25.0, 69.0, 1031.0, 796.0 ],
		"bglocked" : 0,
		"defrect" : [ 25.0, 69.0, 1031.0, 796.0 ],
		"openrect" : [ 0.0, 0.0, 0.0, 0.0 ],
		"openinpresentation" : 0,
		"default_fontsize" : 12.0,
		"default_fontface" : 0,
		"default_fontname" : "Arial",
		"gridonopen" : 0,
		"gridsize" : [ 8.0, 8.0 ],
		"gridsnaponopen" : 0,
		"toolbarvisible" : 1,
		"boxanimatetime" : 200,
		"imprint" : 0,
		"enablehscroll" : 1,
		"enablevscroll" : 1,
		"devicewidth" : 0.0,
		"boxes" : [ 			{
				"box" : 				{
					"maxclass" : "newobj",
					"text" : "loadmess 0",
					"numoutlets" : 1,
					"fontname" : "Arial",
					"outlettype" : [ "" ],
					"patching_rect" : [ 40.0, 8.0, 72.0, 20.0 ],
					"id" : "obj-17",
					"fontsize" : 12.0,
					"numinlets" : 1
				}

			}
, 			{
				"box" : 				{
					"maxclass" : "newobj",
					"text" : "loadmess 30",
					"numoutlets" : 1,
					"fontname" : "Arial",
					"outlettype" : [ "" ],
					"patching_rect" : [ 302.0, 528.0, 79.0, 20.0 ],
					"id" : "obj-10",
					"fontsize" : 12.0,
					"numinlets" : 1
				}

			}
, 			{
				"box" : 				{
					"maxclass" : "jit.pwindow",
					"numoutlets" : 2,
					"outlettype" : [ "", "" ],
					"patching_rect" : [ 220.0, 626.0, 160.0, 120.0 ],
					"id" : "obj-9",
					"numinlets" : 1
				}

			}
, 			{
				"box" : 				{
					"maxclass" : "comment",
					"text" : "< We can use that technique to make a selectable 30-frame video delay (which will give us a second of delay at 30 frames/sec.",
					"linecount" : 2,
					"numoutlets" : 0,
					"fontname" : "Arial",
					"patching_rect" : [ 327.0, 591.0, 361.0, 34.0 ],
					"id" : "obj-6",
					"fontsize" : 12.0,
					"numinlets" : 1
				}

			}
, 			{
				"box" : 				{
					"maxclass" : "jit.pwindow",
					"numoutlets" : 2,
					"outlettype" : [ "", "" ],
					"patching_rect" : [ 299.0, 424.0, 80.0, 60.0 ],
					"id" : "obj-5",
					"numinlets" : 1
				}

			}
, 			{
				"box" : 				{
					"maxclass" : "jit.pwindow",
					"numoutlets" : 2,
					"outlettype" : [ "", "" ],
					"patching_rect" : [ 71.0, 420.0, 80.0, 60.0 ],
					"id" : "obj-4",
					"numinlets" : 1
				}

			}
, 			{
				"box" : 				{
					"maxclass" : "number",
					"maximum" : 30,
					"numoutlets" : 2,
					"triscale" : 0.9,
					"minimum" : 1,
					"fontname" : "Arial",
					"outlettype" : [ "int", "bang" ],
					"patching_rect" : [ 302.0, 563.0, 62.0, 20.0 ],
					"id" : "obj-3",
					"fontsize" : 12.0,
					"numinlets" : 1,
					"bgcolor" : [ 0.866667, 0.866667, 0.866667, 1.0 ],
					"triangle" : 0
				}

			}
, 			{
				"box" : 				{
					"maxclass" : "comment",
					"text" : "< Here's the humble jit.matrix object doing a new trick: you can specify whether or not matrices are automatically passed along using the \"thru\" attribute. It does for a matrix what the int of float objects do - stores something until it receives a bang. Used in this way, each jit.matrix object becomes a one-frame video delay.",
					"linecount" : 8,
					"numoutlets" : 0,
					"fontname" : "Arial",
					"patching_rect" : [ 418.0, 392.0, 239.0, 117.0 ],
					"id" : "obj-2",
					"fontsize" : 12.0,
					"numinlets" : 1
				}

			}
, 			{
				"box" : 				{
					"maxclass" : "newobj",
					"text" : "t l b",
					"numoutlets" : 2,
					"fontname" : "Arial",
					"outlettype" : [ "", "bang" ],
					"patching_rect" : [ 299.0, 350.0, 54.0, 20.0 ],
					"id" : "obj-21",
					"fontsize" : 12.0,
					"numinlets" : 1
				}

			}
, 			{
				"box" : 				{
					"maxclass" : "newobj",
					"text" : "jit.matrix @thru 0",
					"numoutlets" : 2,
					"fontname" : "Arial",
					"outlettype" : [ "jit_matrix", "" ],
					"patching_rect" : [ 299.0, 391.0, 109.0, 20.0 ],
					"id" : "obj-22",
					"fontsize" : 12.0,
					"numinlets" : 1
				}

			}
, 			{
				"box" : 				{
					"maxclass" : "newobj",
					"text" : "t l b",
					"numoutlets" : 2,
					"fontname" : "Arial",
					"outlettype" : [ "", "bang" ],
					"patching_rect" : [ 184.0, 350.0, 54.0, 20.0 ],
					"id" : "obj-24",
					"fontsize" : 12.0,
					"numinlets" : 1
				}

			}
, 			{
				"box" : 				{
					"maxclass" : "newobj",
					"text" : "jit.matrix @thru 0",
					"numoutlets" : 2,
					"fontname" : "Arial",
					"outlettype" : [ "jit_matrix", "" ],
					"patching_rect" : [ 184.0, 391.0, 109.0, 20.0 ],
					"id" : "obj-25",
					"fontsize" : 12.0,
					"numinlets" : 1
				}

			}
, 			{
				"box" : 				{
					"maxclass" : "newobj",
					"text" : "t l b",
					"numoutlets" : 2,
					"fontname" : "Arial",
					"outlettype" : [ "", "bang" ],
					"patching_rect" : [ 71.0, 350.0, 54.0, 20.0 ],
					"id" : "obj-27",
					"fontsize" : 12.0,
					"numinlets" : 1
				}

			}
, 			{
				"box" : 				{
					"maxclass" : "newobj",
					"text" : "jit.matrix @thru 0",
					"numoutlets" : 2,
					"fontname" : "Arial",
					"outlettype" : [ "jit_matrix", "" ],
					"patching_rect" : [ 71.0, 391.0, 109.0, 20.0 ],
					"id" : "obj-28",
					"fontsize" : 12.0,
					"numinlets" : 1
				}

			}
, 			{
				"box" : 				{
					"maxclass" : "newobj",
					"text" : "p 30-frame-delay",
					"numoutlets" : 1,
					"fontname" : "Arial",
					"outlettype" : [ "" ],
					"patching_rect" : [ 220.0, 591.0, 101.0, 20.0 ],
					"id" : "obj-1",
					"fontsize" : 12.0,
					"numinlets" : 2,
					"patcher" : 					{
						"fileversion" : 1,
						"rect" : [ 259.0, 115.0, 1181.0, 654.0 ],
						"bglocked" : 0,
						"defrect" : [ 259.0, 115.0, 1181.0, 654.0 ],
						"openrect" : [ 0.0, 0.0, 0.0, 0.0 ],
						"openinpresentation" : 0,
						"default_fontsize" : 12.0,
						"default_fontface" : 0,
						"default_fontname" : "Arial",
						"gridonopen" : 0,
						"gridsize" : [ 8.0, 8.0 ],
						"gridsnaponopen" : 0,
						"toolbarvisible" : 1,
						"boxanimatetime" : 200,
						"imprint" : 0,
						"enablehscroll" : 1,
						"enablevscroll" : 1,
						"devicewidth" : 0.0,
						"visible" : 1,
						"boxes" : [ 							{
								"box" : 								{
									"maxclass" : "outlet",
									"numoutlets" : 0,
									"patching_rect" : [ 700.0, 420.0, 25.0, 25.0 ],
									"id" : "obj-73",
									"numinlets" : 1,
									"comment" : ""
								}

							}
, 							{
								"box" : 								{
									"maxclass" : "inlet",
									"numoutlets" : 1,
									"outlettype" : [ "int" ],
									"patching_rect" : [ 1065.0, -86.0, 25.0, 25.0 ],
									"id" : "obj-70",
									"numinlets" : 0,
									"comment" : ""
								}

							}
, 							{
								"box" : 								{
									"maxclass" : "inlet",
									"numoutlets" : 1,
									"outlettype" : [ "jit_matrix" ],
									"patching_rect" : [ 18.0, -86.0, 25.0, 25.0 ],
									"id" : "obj-69",
									"numinlets" : 0,
									"comment" : ""
								}

							}
, 							{
								"box" : 								{
									"maxclass" : "newobj",
									"text" : "t l b",
									"numoutlets" : 2,
									"fontname" : "Arial",
									"outlettype" : [ "", "bang" ],
									"patching_rect" : [ 593.0, 282.0, 54.0, 20.0 ],
									"id" : "obj-57",
									"fontsize" : 12.0,
									"numinlets" : 1
								}

							}
, 							{
								"box" : 								{
									"maxclass" : "newobj",
									"text" : "jit.matrix @thru 0",
									"numoutlets" : 2,
									"fontname" : "Arial",
									"outlettype" : [ "jit_matrix", "" ],
									"patching_rect" : [ 593.0, 323.0, 109.0, 20.0 ],
									"id" : "obj-58",
									"fontsize" : 12.0,
									"numinlets" : 1
								}

							}
, 							{
								"box" : 								{
									"maxclass" : "newobj",
									"text" : "t l b",
									"numoutlets" : 2,
									"fontname" : "Arial",
									"outlettype" : [ "", "bang" ],
									"patching_rect" : [ 476.0, 282.0, 54.0, 20.0 ],
									"id" : "obj-59",
									"fontsize" : 12.0,
									"numinlets" : 1
								}

							}
, 							{
								"box" : 								{
									"maxclass" : "newobj",
									"text" : "jit.matrix @thru 0",
									"numoutlets" : 2,
									"fontname" : "Arial",
									"outlettype" : [ "jit_matrix", "" ],
									"patching_rect" : [ 476.0, 323.0, 109.0, 20.0 ],
									"id" : "obj-60",
									"fontsize" : 12.0,
									"numinlets" : 1
								}

							}
, 							{
								"box" : 								{
									"maxclass" : "newobj",
									"text" : "t l b",
									"numoutlets" : 2,
									"fontname" : "Arial",
									"outlettype" : [ "", "bang" ],
									"patching_rect" : [ 361.0, 282.0, 54.0, 20.0 ],
									"id" : "obj-61",
									"fontsize" : 12.0,
									"numinlets" : 1
								}

							}
, 							{
								"box" : 								{
									"maxclass" : "newobj",
									"text" : "jit.matrix @thru 0",
									"numoutlets" : 2,
									"fontname" : "Arial",
									"outlettype" : [ "jit_matrix", "" ],
									"patching_rect" : [ 361.0, 323.0, 109.0, 20.0 ],
									"id" : "obj-62",
									"fontsize" : 12.0,
									"numinlets" : 1
								}

							}
, 							{
								"box" : 								{
									"maxclass" : "newobj",
									"text" : "t l b",
									"numoutlets" : 2,
									"fontname" : "Arial",
									"outlettype" : [ "", "bang" ],
									"patching_rect" : [ 246.0, 282.0, 54.0, 20.0 ],
									"id" : "obj-63",
									"fontsize" : 12.0,
									"numinlets" : 1
								}

							}
, 							{
								"box" : 								{
									"maxclass" : "newobj",
									"text" : "jit.matrix @thru 0",
									"numoutlets" : 2,
									"fontname" : "Arial",
									"outlettype" : [ "jit_matrix", "" ],
									"patching_rect" : [ 246.0, 323.0, 109.0, 20.0 ],
									"id" : "obj-64",
									"fontsize" : 12.0,
									"numinlets" : 1
								}

							}
, 							{
								"box" : 								{
									"maxclass" : "newobj",
									"text" : "t l b",
									"numoutlets" : 2,
									"fontname" : "Arial",
									"outlettype" : [ "", "bang" ],
									"patching_rect" : [ 131.0, 282.0, 54.0, 20.0 ],
									"id" : "obj-65",
									"fontsize" : 12.0,
									"numinlets" : 1
								}

							}
, 							{
								"box" : 								{
									"maxclass" : "newobj",
									"text" : "jit.matrix @thru 0",
									"numoutlets" : 2,
									"fontname" : "Arial",
									"outlettype" : [ "jit_matrix", "" ],
									"patching_rect" : [ 131.0, 323.0, 109.0, 20.0 ],
									"id" : "obj-66",
									"fontsize" : 12.0,
									"numinlets" : 1
								}

							}
, 							{
								"box" : 								{
									"maxclass" : "newobj",
									"text" : "t l b",
									"numoutlets" : 2,
									"fontname" : "Arial",
									"outlettype" : [ "", "bang" ],
									"patching_rect" : [ 18.0, 282.0, 54.0, 20.0 ],
									"id" : "obj-67",
									"fontsize" : 12.0,
									"numinlets" : 1
								}

							}
, 							{
								"box" : 								{
									"maxclass" : "newobj",
									"text" : "jit.matrix @thru 0",
									"numoutlets" : 2,
									"fontname" : "Arial",
									"outlettype" : [ "jit_matrix", "" ],
									"patching_rect" : [ 18.0, 323.0, 109.0, 20.0 ],
									"id" : "obj-68",
									"fontsize" : 12.0,
									"numinlets" : 1
								}

							}
, 							{
								"box" : 								{
									"maxclass" : "newobj",
									"text" : "t l b",
									"numoutlets" : 2,
									"fontname" : "Arial",
									"outlettype" : [ "", "bang" ],
									"patching_rect" : [ 593.0, 191.0, 54.0, 20.0 ],
									"id" : "obj-45",
									"fontsize" : 12.0,
									"numinlets" : 1
								}

							}
, 							{
								"box" : 								{
									"maxclass" : "newobj",
									"text" : "jit.matrix @thru 0",
									"numoutlets" : 2,
									"fontname" : "Arial",
									"outlettype" : [ "jit_matrix", "" ],
									"patching_rect" : [ 593.0, 232.0, 109.0, 20.0 ],
									"id" : "obj-46",
									"fontsize" : 12.0,
									"numinlets" : 1
								}

							}
, 							{
								"box" : 								{
									"maxclass" : "newobj",
									"text" : "t l b",
									"numoutlets" : 2,
									"fontname" : "Arial",
									"outlettype" : [ "", "bang" ],
									"patching_rect" : [ 476.0, 191.0, 54.0, 20.0 ],
									"id" : "obj-47",
									"fontsize" : 12.0,
									"numinlets" : 1
								}

							}
, 							{
								"box" : 								{
									"maxclass" : "newobj",
									"text" : "jit.matrix @thru 0",
									"numoutlets" : 2,
									"fontname" : "Arial",
									"outlettype" : [ "jit_matrix", "" ],
									"patching_rect" : [ 476.0, 232.0, 109.0, 20.0 ],
									"id" : "obj-48",
									"fontsize" : 12.0,
									"numinlets" : 1
								}

							}
, 							{
								"box" : 								{
									"maxclass" : "newobj",
									"text" : "t l b",
									"numoutlets" : 2,
									"fontname" : "Arial",
									"outlettype" : [ "", "bang" ],
									"patching_rect" : [ 361.0, 191.0, 54.0, 20.0 ],
									"id" : "obj-49",
									"fontsize" : 12.0,
									"numinlets" : 1
								}

							}
, 							{
								"box" : 								{
									"maxclass" : "newobj",
									"text" : "jit.matrix @thru 0",
									"numoutlets" : 2,
									"fontname" : "Arial",
									"outlettype" : [ "jit_matrix", "" ],
									"patching_rect" : [ 361.0, 232.0, 109.0, 20.0 ],
									"id" : "obj-50",
									"fontsize" : 12.0,
									"numinlets" : 1
								}

							}
, 							{
								"box" : 								{
									"maxclass" : "newobj",
									"text" : "t l b",
									"numoutlets" : 2,
									"fontname" : "Arial",
									"outlettype" : [ "", "bang" ],
									"patching_rect" : [ 246.0, 191.0, 54.0, 20.0 ],
									"id" : "obj-51",
									"fontsize" : 12.0,
									"numinlets" : 1
								}

							}
, 							{
								"box" : 								{
									"maxclass" : "newobj",
									"text" : "jit.matrix @thru 0",
									"numoutlets" : 2,
									"fontname" : "Arial",
									"outlettype" : [ "jit_matrix", "" ],
									"patching_rect" : [ 246.0, 232.0, 109.0, 20.0 ],
									"id" : "obj-52",
									"fontsize" : 12.0,
									"numinlets" : 1
								}

							}
, 							{
								"box" : 								{
									"maxclass" : "newobj",
									"text" : "t l b",
									"numoutlets" : 2,
									"fontname" : "Arial",
									"outlettype" : [ "", "bang" ],
									"patching_rect" : [ 131.0, 191.0, 54.0, 20.0 ],
									"id" : "obj-53",
									"fontsize" : 12.0,
									"numinlets" : 1
								}

							}
, 							{
								"box" : 								{
									"maxclass" : "newobj",
									"text" : "jit.matrix @thru 0",
									"numoutlets" : 2,
									"fontname" : "Arial",
									"outlettype" : [ "jit_matrix", "" ],
									"patching_rect" : [ 131.0, 232.0, 109.0, 20.0 ],
									"id" : "obj-54",
									"fontsize" : 12.0,
									"numinlets" : 1
								}

							}
, 							{
								"box" : 								{
									"maxclass" : "newobj",
									"text" : "t l b",
									"numoutlets" : 2,
									"fontname" : "Arial",
									"outlettype" : [ "", "bang" ],
									"patching_rect" : [ 18.0, 191.0, 54.0, 20.0 ],
									"id" : "obj-55",
									"fontsize" : 12.0,
									"numinlets" : 1
								}

							}
, 							{
								"box" : 								{
									"maxclass" : "newobj",
									"text" : "jit.matrix @thru 0",
									"numoutlets" : 2,
									"fontname" : "Arial",
									"outlettype" : [ "jit_matrix", "" ],
									"patching_rect" : [ 18.0, 232.0, 109.0, 20.0 ],
									"id" : "obj-56",
									"fontsize" : 12.0,
									"numinlets" : 1
								}

							}
, 							{
								"box" : 								{
									"maxclass" : "newobj",
									"text" : "t l b",
									"numoutlets" : 2,
									"fontname" : "Arial",
									"outlettype" : [ "", "bang" ],
									"patching_rect" : [ 593.0, 99.0, 54.0, 20.0 ],
									"id" : "obj-23",
									"fontsize" : 12.0,
									"numinlets" : 1
								}

							}
, 							{
								"box" : 								{
									"maxclass" : "newobj",
									"text" : "jit.matrix @thru 0",
									"numoutlets" : 2,
									"fontname" : "Arial",
									"outlettype" : [ "jit_matrix", "" ],
									"patching_rect" : [ 593.0, 140.0, 109.0, 20.0 ],
									"id" : "obj-26",
									"fontsize" : 12.0,
									"numinlets" : 1
								}

							}
, 							{
								"box" : 								{
									"maxclass" : "newobj",
									"text" : "t l b",
									"numoutlets" : 2,
									"fontname" : "Arial",
									"outlettype" : [ "", "bang" ],
									"patching_rect" : [ 476.0, 99.0, 54.0, 20.0 ],
									"id" : "obj-30",
									"fontsize" : 12.0,
									"numinlets" : 1
								}

							}
, 							{
								"box" : 								{
									"maxclass" : "newobj",
									"text" : "jit.matrix @thru 0",
									"numoutlets" : 2,
									"fontname" : "Arial",
									"outlettype" : [ "jit_matrix", "" ],
									"patching_rect" : [ 476.0, 140.0, 109.0, 20.0 ],
									"id" : "obj-36",
									"fontsize" : 12.0,
									"numinlets" : 1
								}

							}
, 							{
								"box" : 								{
									"maxclass" : "newobj",
									"text" : "t l b",
									"numoutlets" : 2,
									"fontname" : "Arial",
									"outlettype" : [ "", "bang" ],
									"patching_rect" : [ 361.0, 99.0, 54.0, 20.0 ],
									"id" : "obj-37",
									"fontsize" : 12.0,
									"numinlets" : 1
								}

							}
, 							{
								"box" : 								{
									"maxclass" : "newobj",
									"text" : "jit.matrix @thru 0",
									"numoutlets" : 2,
									"fontname" : "Arial",
									"outlettype" : [ "jit_matrix", "" ],
									"patching_rect" : [ 361.0, 140.0, 109.0, 20.0 ],
									"id" : "obj-38",
									"fontsize" : 12.0,
									"numinlets" : 1
								}

							}
, 							{
								"box" : 								{
									"maxclass" : "newobj",
									"text" : "t l b",
									"numoutlets" : 2,
									"fontname" : "Arial",
									"outlettype" : [ "", "bang" ],
									"patching_rect" : [ 246.0, 99.0, 54.0, 20.0 ],
									"id" : "obj-39",
									"fontsize" : 12.0,
									"numinlets" : 1
								}

							}
, 							{
								"box" : 								{
									"maxclass" : "newobj",
									"text" : "jit.matrix @thru 0",
									"numoutlets" : 2,
									"fontname" : "Arial",
									"outlettype" : [ "jit_matrix", "" ],
									"patching_rect" : [ 246.0, 140.0, 109.0, 20.0 ],
									"id" : "obj-40",
									"fontsize" : 12.0,
									"numinlets" : 1
								}

							}
, 							{
								"box" : 								{
									"maxclass" : "newobj",
									"text" : "t l b",
									"numoutlets" : 2,
									"fontname" : "Arial",
									"outlettype" : [ "", "bang" ],
									"patching_rect" : [ 131.0, 99.0, 54.0, 20.0 ],
									"id" : "obj-41",
									"fontsize" : 12.0,
									"numinlets" : 1
								}

							}
, 							{
								"box" : 								{
									"maxclass" : "newobj",
									"text" : "jit.matrix @thru 0",
									"numoutlets" : 2,
									"fontname" : "Arial",
									"outlettype" : [ "jit_matrix", "" ],
									"patching_rect" : [ 131.0, 140.0, 109.0, 20.0 ],
									"id" : "obj-42",
									"fontsize" : 12.0,
									"numinlets" : 1
								}

							}
, 							{
								"box" : 								{
									"maxclass" : "newobj",
									"text" : "t l b",
									"numoutlets" : 2,
									"fontname" : "Arial",
									"outlettype" : [ "", "bang" ],
									"patching_rect" : [ 18.0, 99.0, 54.0, 20.0 ],
									"id" : "obj-43",
									"fontsize" : 12.0,
									"numinlets" : 1
								}

							}
, 							{
								"box" : 								{
									"maxclass" : "newobj",
									"text" : "jit.matrix @thru 0",
									"numoutlets" : 2,
									"fontname" : "Arial",
									"outlettype" : [ "jit_matrix", "" ],
									"patching_rect" : [ 18.0, 140.0, 109.0, 20.0 ],
									"id" : "obj-44",
									"fontsize" : 12.0,
									"numinlets" : 1
								}

							}
, 							{
								"box" : 								{
									"maxclass" : "newobj",
									"text" : "switch 24",
									"numoutlets" : 1,
									"fontname" : "Arial",
									"outlettype" : [ "" ],
									"patching_rect" : [ 700.0, 391.0, 343.0, 20.0 ],
									"id" : "obj-20",
									"fontsize" : 12.0,
									"numinlets" : 25
								}

							}
, 							{
								"box" : 								{
									"maxclass" : "newobj",
									"text" : "t l b",
									"numoutlets" : 2,
									"fontname" : "Arial",
									"outlettype" : [ "", "bang" ],
									"patching_rect" : [ 593.0, 6.0, 54.0, 20.0 ],
									"id" : "obj-12",
									"fontsize" : 12.0,
									"numinlets" : 1
								}

							}
, 							{
								"box" : 								{
									"maxclass" : "newobj",
									"text" : "jit.matrix @thru 0",
									"numoutlets" : 2,
									"fontname" : "Arial",
									"outlettype" : [ "jit_matrix", "" ],
									"patching_rect" : [ 593.0, 47.0, 109.0, 20.0 ],
									"id" : "obj-13",
									"fontsize" : 12.0,
									"numinlets" : 1
								}

							}
, 							{
								"box" : 								{
									"maxclass" : "newobj",
									"text" : "t l b",
									"numoutlets" : 2,
									"fontname" : "Arial",
									"outlettype" : [ "", "bang" ],
									"patching_rect" : [ 476.0, 6.0, 54.0, 20.0 ],
									"id" : "obj-15",
									"fontsize" : 12.0,
									"numinlets" : 1
								}

							}
, 							{
								"box" : 								{
									"maxclass" : "newobj",
									"text" : "jit.matrix @thru 0",
									"numoutlets" : 2,
									"fontname" : "Arial",
									"outlettype" : [ "jit_matrix", "" ],
									"patching_rect" : [ 476.0, 47.0, 109.0, 20.0 ],
									"id" : "obj-16",
									"fontsize" : 12.0,
									"numinlets" : 1
								}

							}
, 							{
								"box" : 								{
									"maxclass" : "newobj",
									"text" : "t l b",
									"numoutlets" : 2,
									"fontname" : "Arial",
									"outlettype" : [ "", "bang" ],
									"patching_rect" : [ 361.0, 6.0, 54.0, 20.0 ],
									"id" : "obj-18",
									"fontsize" : 12.0,
									"numinlets" : 1
								}

							}
, 							{
								"box" : 								{
									"maxclass" : "newobj",
									"text" : "jit.matrix @thru 0",
									"numoutlets" : 2,
									"fontname" : "Arial",
									"outlettype" : [ "jit_matrix", "" ],
									"patching_rect" : [ 361.0, 47.0, 109.0, 20.0 ],
									"id" : "obj-19",
									"fontsize" : 12.0,
									"numinlets" : 1
								}

							}
, 							{
								"box" : 								{
									"maxclass" : "newobj",
									"text" : "t l b",
									"numoutlets" : 2,
									"fontname" : "Arial",
									"outlettype" : [ "", "bang" ],
									"patching_rect" : [ 246.0, 6.0, 54.0, 20.0 ],
									"id" : "obj-21",
									"fontsize" : 12.0,
									"numinlets" : 1
								}

							}
, 							{
								"box" : 								{
									"maxclass" : "newobj",
									"text" : "jit.matrix @thru 0",
									"numoutlets" : 2,
									"fontname" : "Arial",
									"outlettype" : [ "jit_matrix", "" ],
									"patching_rect" : [ 246.0, 47.0, 109.0, 20.0 ],
									"id" : "obj-22",
									"fontsize" : 12.0,
									"numinlets" : 1
								}

							}
, 							{
								"box" : 								{
									"maxclass" : "newobj",
									"text" : "t l b",
									"numoutlets" : 2,
									"fontname" : "Arial",
									"outlettype" : [ "", "bang" ],
									"patching_rect" : [ 131.0, 6.0, 54.0, 20.0 ],
									"id" : "obj-24",
									"fontsize" : 12.0,
									"numinlets" : 1
								}

							}
, 							{
								"box" : 								{
									"maxclass" : "newobj",
									"text" : "jit.matrix @thru 0",
									"numoutlets" : 2,
									"fontname" : "Arial",
									"outlettype" : [ "jit_matrix", "" ],
									"patching_rect" : [ 131.0, 47.0, 109.0, 20.0 ],
									"id" : "obj-25",
									"fontsize" : 12.0,
									"numinlets" : 1
								}

							}
, 							{
								"box" : 								{
									"maxclass" : "newobj",
									"text" : "t l b",
									"numoutlets" : 2,
									"fontname" : "Arial",
									"outlettype" : [ "", "bang" ],
									"patching_rect" : [ 18.0, 6.0, 54.0, 20.0 ],
									"id" : "obj-27",
									"fontsize" : 12.0,
									"numinlets" : 1
								}

							}
, 							{
								"box" : 								{
									"maxclass" : "newobj",
									"text" : "jit.matrix @thru 0",
									"numoutlets" : 2,
									"fontname" : "Arial",
									"outlettype" : [ "jit_matrix", "" ],
									"patching_rect" : [ 18.0, 47.0, 109.0, 20.0 ],
									"id" : "obj-28",
									"fontsize" : 12.0,
									"numinlets" : 1
								}

							}
 ],
						"lines" : [ 							{
								"patchline" : 								{
									"source" : [ "obj-20", 0 ],
									"destination" : [ "obj-73", 0 ],
									"hidden" : 0,
									"midpoints" : [  ]
								}

							}
, 							{
								"patchline" : 								{
									"source" : [ "obj-70", 0 ],
									"destination" : [ "obj-20", 0 ],
									"hidden" : 0,
									"midpoints" : [ 1074.5, 205.5, 709.5, 205.5 ]
								}

							}
, 							{
								"patchline" : 								{
									"source" : [ "obj-69", 0 ],
									"destination" : [ "obj-27", 0 ],
									"hidden" : 0,
									"midpoints" : [  ]
								}

							}
, 							{
								"patchline" : 								{
									"source" : [ "obj-58", 0 ],
									"destination" : [ "obj-20", 24 ],
									"hidden" : 0,
									"midpoints" : [ 602.5, 354.0, 1033.5, 354.0 ]
								}

							}
, 							{
								"patchline" : 								{
									"source" : [ "obj-60", 0 ],
									"destination" : [ "obj-20", 23 ],
									"hidden" : 0,
									"midpoints" : [ 485.5, 354.0, 1020.0, 354.0 ]
								}

							}
, 							{
								"patchline" : 								{
									"source" : [ "obj-62", 0 ],
									"destination" : [ "obj-20", 22 ],
									"hidden" : 0,
									"midpoints" : [ 370.5, 354.0, 1006.5, 354.0 ]
								}

							}
, 							{
								"patchline" : 								{
									"source" : [ "obj-64", 0 ],
									"destination" : [ "obj-20", 21 ],
									"hidden" : 0,
									"midpoints" : [ 255.5, 354.0, 993.0, 354.0 ]
								}

							}
, 							{
								"patchline" : 								{
									"source" : [ "obj-66", 0 ],
									"destination" : [ "obj-20", 20 ],
									"hidden" : 0,
									"midpoints" : [ 140.5, 354.0, 979.5, 354.0 ]
								}

							}
, 							{
								"patchline" : 								{
									"source" : [ "obj-68", 0 ],
									"destination" : [ "obj-20", 19 ],
									"hidden" : 0,
									"midpoints" : [ 27.5, 354.0, 966.0, 354.0 ]
								}

							}
, 							{
								"patchline" : 								{
									"source" : [ "obj-46", 0 ],
									"destination" : [ "obj-67", 0 ],
									"hidden" : 0,
									"midpoints" : [ 602.5, 271.0, 27.5, 271.0 ]
								}

							}
, 							{
								"patchline" : 								{
									"source" : [ "obj-67", 1 ],
									"destination" : [ "obj-68", 0 ],
									"hidden" : 0,
									"midpoints" : [ 62.5, 314.0, 27.5, 314.0 ]
								}

							}
, 							{
								"patchline" : 								{
									"source" : [ "obj-67", 0 ],
									"destination" : [ "obj-68", 0 ],
									"hidden" : 0,
									"midpoints" : [  ]
								}

							}
, 							{
								"patchline" : 								{
									"source" : [ "obj-68", 0 ],
									"destination" : [ "obj-65", 0 ],
									"hidden" : 0,
									"midpoints" : [  ]
								}

							}
, 							{
								"patchline" : 								{
									"source" : [ "obj-65", 0 ],
									"destination" : [ "obj-66", 0 ],
									"hidden" : 0,
									"midpoints" : [  ]
								}

							}
, 							{
								"patchline" : 								{
									"source" : [ "obj-65", 1 ],
									"destination" : [ "obj-66", 0 ],
									"hidden" : 0,
									"midpoints" : [ 175.5, 314.0, 140.5, 314.0 ]
								}

							}
, 							{
								"patchline" : 								{
									"source" : [ "obj-66", 0 ],
									"destination" : [ "obj-63", 0 ],
									"hidden" : 0,
									"midpoints" : [  ]
								}

							}
, 							{
								"patchline" : 								{
									"source" : [ "obj-63", 0 ],
									"destination" : [ "obj-64", 0 ],
									"hidden" : 0,
									"midpoints" : [  ]
								}

							}
, 							{
								"patchline" : 								{
									"source" : [ "obj-63", 1 ],
									"destination" : [ "obj-64", 0 ],
									"hidden" : 0,
									"midpoints" : [ 290.5, 314.0, 255.5, 314.0 ]
								}

							}
, 							{
								"patchline" : 								{
									"source" : [ "obj-64", 0 ],
									"destination" : [ "obj-61", 0 ],
									"hidden" : 0,
									"midpoints" : [  ]
								}

							}
, 							{
								"patchline" : 								{
									"source" : [ "obj-61", 1 ],
									"destination" : [ "obj-62", 0 ],
									"hidden" : 0,
									"midpoints" : [ 405.5, 314.0, 370.5, 314.0 ]
								}

							}
, 							{
								"patchline" : 								{
									"source" : [ "obj-61", 0 ],
									"destination" : [ "obj-62", 0 ],
									"hidden" : 0,
									"midpoints" : [  ]
								}

							}
, 							{
								"patchline" : 								{
									"source" : [ "obj-62", 0 ],
									"destination" : [ "obj-59", 0 ],
									"hidden" : 0,
									"midpoints" : [  ]
								}

							}
, 							{
								"patchline" : 								{
									"source" : [ "obj-59", 1 ],
									"destination" : [ "obj-60", 0 ],
									"hidden" : 0,
									"midpoints" : [ 520.5, 314.0, 485.5, 314.0 ]
								}

							}
, 							{
								"patchline" : 								{
									"source" : [ "obj-59", 0 ],
									"destination" : [ "obj-60", 0 ],
									"hidden" : 0,
									"midpoints" : [  ]
								}

							}
, 							{
								"patchline" : 								{
									"source" : [ "obj-60", 0 ],
									"destination" : [ "obj-57", 0 ],
									"hidden" : 0,
									"midpoints" : [  ]
								}

							}
, 							{
								"patchline" : 								{
									"source" : [ "obj-57", 0 ],
									"destination" : [ "obj-58", 0 ],
									"hidden" : 0,
									"midpoints" : [  ]
								}

							}
, 							{
								"patchline" : 								{
									"source" : [ "obj-57", 1 ],
									"destination" : [ "obj-58", 0 ],
									"hidden" : 0,
									"midpoints" : [ 637.5, 314.0, 602.5, 314.0 ]
								}

							}
, 							{
								"patchline" : 								{
									"source" : [ "obj-46", 0 ],
									"destination" : [ "obj-20", 18 ],
									"hidden" : 0,
									"midpoints" : [ 602.5, 263.0, 952.5, 263.0 ]
								}

							}
, 							{
								"patchline" : 								{
									"source" : [ "obj-48", 0 ],
									"destination" : [ "obj-20", 17 ],
									"hidden" : 0,
									"midpoints" : [ 485.5, 263.0, 939.0, 263.0 ]
								}

							}
, 							{
								"patchline" : 								{
									"source" : [ "obj-50", 0 ],
									"destination" : [ "obj-20", 16 ],
									"hidden" : 0,
									"midpoints" : [ 370.5, 263.0, 925.5, 263.0 ]
								}

							}
, 							{
								"patchline" : 								{
									"source" : [ "obj-52", 0 ],
									"destination" : [ "obj-20", 15 ],
									"hidden" : 0,
									"midpoints" : [ 255.5, 263.0, 912.0, 263.0 ]
								}

							}
, 							{
								"patchline" : 								{
									"source" : [ "obj-54", 0 ],
									"destination" : [ "obj-20", 14 ],
									"hidden" : 0,
									"midpoints" : [ 140.5, 263.0, 898.5, 263.0 ]
								}

							}
, 							{
								"patchline" : 								{
									"source" : [ "obj-56", 0 ],
									"destination" : [ "obj-20", 13 ],
									"hidden" : 0,
									"midpoints" : [ 27.5, 263.0, 885.0, 263.0 ]
								}

							}
, 							{
								"patchline" : 								{
									"source" : [ "obj-26", 0 ],
									"destination" : [ "obj-55", 0 ],
									"hidden" : 0,
									"midpoints" : [ 602.5, 179.0, 27.5, 179.0 ]
								}

							}
, 							{
								"patchline" : 								{
									"source" : [ "obj-55", 1 ],
									"destination" : [ "obj-56", 0 ],
									"hidden" : 0,
									"midpoints" : [ 62.5, 223.0, 27.5, 223.0 ]
								}

							}
, 							{
								"patchline" : 								{
									"source" : [ "obj-55", 0 ],
									"destination" : [ "obj-56", 0 ],
									"hidden" : 0,
									"midpoints" : [  ]
								}

							}
, 							{
								"patchline" : 								{
									"source" : [ "obj-56", 0 ],
									"destination" : [ "obj-53", 0 ],
									"hidden" : 0,
									"midpoints" : [  ]
								}

							}
, 							{
								"patchline" : 								{
									"source" : [ "obj-53", 0 ],
									"destination" : [ "obj-54", 0 ],
									"hidden" : 0,
									"midpoints" : [  ]
								}

							}
, 							{
								"patchline" : 								{
									"source" : [ "obj-53", 1 ],
									"destination" : [ "obj-54", 0 ],
									"hidden" : 0,
									"midpoints" : [ 175.5, 223.0, 140.5, 223.0 ]
								}

							}
, 							{
								"patchline" : 								{
									"source" : [ "obj-54", 0 ],
									"destination" : [ "obj-51", 0 ],
									"hidden" : 0,
									"midpoints" : [  ]
								}

							}
, 							{
								"patchline" : 								{
									"source" : [ "obj-51", 0 ],
									"destination" : [ "obj-52", 0 ],
									"hidden" : 0,
									"midpoints" : [  ]
								}

							}
, 							{
								"patchline" : 								{
									"source" : [ "obj-51", 1 ],
									"destination" : [ "obj-52", 0 ],
									"hidden" : 0,
									"midpoints" : [ 290.5, 223.0, 255.5, 223.0 ]
								}

							}
, 							{
								"patchline" : 								{
									"source" : [ "obj-52", 0 ],
									"destination" : [ "obj-49", 0 ],
									"hidden" : 0,
									"midpoints" : [  ]
								}

							}
, 							{
								"patchline" : 								{
									"source" : [ "obj-49", 1 ],
									"destination" : [ "obj-50", 0 ],
									"hidden" : 0,
									"midpoints" : [ 405.5, 223.0, 370.5, 223.0 ]
								}

							}
, 							{
								"patchline" : 								{
									"source" : [ "obj-49", 0 ],
									"destination" : [ "obj-50", 0 ],
									"hidden" : 0,
									"midpoints" : [  ]
								}

							}
, 							{
								"patchline" : 								{
									"source" : [ "obj-50", 0 ],
									"destination" : [ "obj-47", 0 ],
									"hidden" : 0,
									"midpoints" : [  ]
								}

							}
, 							{
								"patchline" : 								{
									"source" : [ "obj-47", 1 ],
									"destination" : [ "obj-48", 0 ],
									"hidden" : 0,
									"midpoints" : [ 520.5, 223.0, 485.5, 223.0 ]
								}

							}
, 							{
								"patchline" : 								{
									"source" : [ "obj-47", 0 ],
									"destination" : [ "obj-48", 0 ],
									"hidden" : 0,
									"midpoints" : [  ]
								}

							}
, 							{
								"patchline" : 								{
									"source" : [ "obj-48", 0 ],
									"destination" : [ "obj-45", 0 ],
									"hidden" : 0,
									"midpoints" : [  ]
								}

							}
, 							{
								"patchline" : 								{
									"source" : [ "obj-45", 0 ],
									"destination" : [ "obj-46", 0 ],
									"hidden" : 0,
									"midpoints" : [  ]
								}

							}
, 							{
								"patchline" : 								{
									"source" : [ "obj-45", 1 ],
									"destination" : [ "obj-46", 0 ],
									"hidden" : 0,
									"midpoints" : [ 637.5, 223.0, 602.5, 223.0 ]
								}

							}
, 							{
								"patchline" : 								{
									"source" : [ "obj-26", 0 ],
									"destination" : [ "obj-20", 12 ],
									"hidden" : 0,
									"midpoints" : [ 602.5, 171.5, 871.5, 171.5 ]
								}

							}
, 							{
								"patchline" : 								{
									"source" : [ "obj-36", 0 ],
									"destination" : [ "obj-20", 11 ],
									"hidden" : 0,
									"midpoints" : [ 485.5, 171.5, 858.0, 171.5 ]
								}

							}
, 							{
								"patchline" : 								{
									"source" : [ "obj-38", 0 ],
									"destination" : [ "obj-20", 10 ],
									"hidden" : 0,
									"midpoints" : [ 370.5, 171.5, 844.5, 171.5 ]
								}

							}
, 							{
								"patchline" : 								{
									"source" : [ "obj-40", 0 ],
									"destination" : [ "obj-20", 9 ],
									"hidden" : 0,
									"midpoints" : [ 255.5, 171.5, 831.0, 171.5 ]
								}

							}
, 							{
								"patchline" : 								{
									"source" : [ "obj-42", 0 ],
									"destination" : [ "obj-20", 8 ],
									"hidden" : 0,
									"midpoints" : [ 140.5, 171.5, 817.5, 171.5 ]
								}

							}
, 							{
								"patchline" : 								{
									"source" : [ "obj-44", 0 ],
									"destination" : [ "obj-20", 7 ],
									"hidden" : 0,
									"midpoints" : [ 27.5, 171.5, 804.0, 171.5 ]
								}

							}
, 							{
								"patchline" : 								{
									"source" : [ "obj-13", 0 ],
									"destination" : [ "obj-43", 0 ],
									"hidden" : 0,
									"midpoints" : [ 602.5, 90.0, 27.5, 90.0 ]
								}

							}
, 							{
								"patchline" : 								{
									"source" : [ "obj-23", 1 ],
									"destination" : [ "obj-26", 0 ],
									"hidden" : 0,
									"midpoints" : [ 637.5, 131.0, 602.5, 131.0 ]
								}

							}
, 							{
								"patchline" : 								{
									"source" : [ "obj-23", 0 ],
									"destination" : [ "obj-26", 0 ],
									"hidden" : 0,
									"midpoints" : [  ]
								}

							}
, 							{
								"patchline" : 								{
									"source" : [ "obj-36", 0 ],
									"destination" : [ "obj-23", 0 ],
									"hidden" : 0,
									"midpoints" : [  ]
								}

							}
, 							{
								"patchline" : 								{
									"source" : [ "obj-30", 0 ],
									"destination" : [ "obj-36", 0 ],
									"hidden" : 0,
									"midpoints" : [  ]
								}

							}
, 							{
								"patchline" : 								{
									"source" : [ "obj-30", 1 ],
									"destination" : [ "obj-36", 0 ],
									"hidden" : 0,
									"midpoints" : [ 520.5, 131.0, 485.5, 131.0 ]
								}

							}
, 							{
								"patchline" : 								{
									"source" : [ "obj-38", 0 ],
									"destination" : [ "obj-30", 0 ],
									"hidden" : 0,
									"midpoints" : [  ]
								}

							}
, 							{
								"patchline" : 								{
									"source" : [ "obj-37", 0 ],
									"destination" : [ "obj-38", 0 ],
									"hidden" : 0,
									"midpoints" : [  ]
								}

							}
, 							{
								"patchline" : 								{
									"source" : [ "obj-37", 1 ],
									"destination" : [ "obj-38", 0 ],
									"hidden" : 0,
									"midpoints" : [ 405.5, 131.0, 370.5, 131.0 ]
								}

							}
, 							{
								"patchline" : 								{
									"source" : [ "obj-40", 0 ],
									"destination" : [ "obj-37", 0 ],
									"hidden" : 0,
									"midpoints" : [  ]
								}

							}
, 							{
								"patchline" : 								{
									"source" : [ "obj-39", 1 ],
									"destination" : [ "obj-40", 0 ],
									"hidden" : 0,
									"midpoints" : [ 290.5, 131.0, 255.5, 131.0 ]
								}

							}
, 							{
								"patchline" : 								{
									"source" : [ "obj-39", 0 ],
									"destination" : [ "obj-40", 0 ],
									"hidden" : 0,
									"midpoints" : [  ]
								}

							}
, 							{
								"patchline" : 								{
									"source" : [ "obj-42", 0 ],
									"destination" : [ "obj-39", 0 ],
									"hidden" : 0,
									"midpoints" : [  ]
								}

							}
, 							{
								"patchline" : 								{
									"source" : [ "obj-41", 1 ],
									"destination" : [ "obj-42", 0 ],
									"hidden" : 0,
									"midpoints" : [ 175.5, 131.0, 140.5, 131.0 ]
								}

							}
, 							{
								"patchline" : 								{
									"source" : [ "obj-41", 0 ],
									"destination" : [ "obj-42", 0 ],
									"hidden" : 0,
									"midpoints" : [  ]
								}

							}
, 							{
								"patchline" : 								{
									"source" : [ "obj-44", 0 ],
									"destination" : [ "obj-41", 0 ],
									"hidden" : 0,
									"midpoints" : [  ]
								}

							}
, 							{
								"patchline" : 								{
									"source" : [ "obj-43", 0 ],
									"destination" : [ "obj-44", 0 ],
									"hidden" : 0,
									"midpoints" : [  ]
								}

							}
, 							{
								"patchline" : 								{
									"source" : [ "obj-43", 1 ],
									"destination" : [ "obj-44", 0 ],
									"hidden" : 0,
									"midpoints" : [ 62.5, 131.0, 27.5, 131.0 ]
								}

							}
, 							{
								"patchline" : 								{
									"source" : [ "obj-13", 0 ],
									"destination" : [ "obj-20", 6 ],
									"hidden" : 0,
									"midpoints" : [ 602.5, 78.5, 790.5, 78.5 ]
								}

							}
, 							{
								"patchline" : 								{
									"source" : [ "obj-16", 0 ],
									"destination" : [ "obj-20", 5 ],
									"hidden" : 0,
									"midpoints" : [ 485.5, 78.5, 777.0, 78.5 ]
								}

							}
, 							{
								"patchline" : 								{
									"source" : [ "obj-19", 0 ],
									"destination" : [ "obj-20", 4 ],
									"hidden" : 0,
									"midpoints" : [ 370.5, 78.5, 763.5, 78.5 ]
								}

							}
, 							{
								"patchline" : 								{
									"source" : [ "obj-22", 0 ],
									"destination" : [ "obj-20", 3 ],
									"hidden" : 0,
									"midpoints" : [ 255.5, 78.5, 750.0, 78.5 ]
								}

							}
, 							{
								"patchline" : 								{
									"source" : [ "obj-25", 0 ],
									"destination" : [ "obj-20", 2 ],
									"hidden" : 0,
									"midpoints" : [ 140.5, 78.5, 736.5, 78.5 ]
								}

							}
, 							{
								"patchline" : 								{
									"source" : [ "obj-28", 0 ],
									"destination" : [ "obj-20", 1 ],
									"hidden" : 0,
									"midpoints" : [ 27.5, 78.5, 723.0, 78.5 ]
								}

							}
, 							{
								"patchline" : 								{
									"source" : [ "obj-27", 1 ],
									"destination" : [ "obj-28", 0 ],
									"hidden" : 0,
									"midpoints" : [ 62.5, 38.0, 27.5, 38.0 ]
								}

							}
, 							{
								"patchline" : 								{
									"source" : [ "obj-27", 0 ],
									"destination" : [ "obj-28", 0 ],
									"hidden" : 0,
									"midpoints" : [  ]
								}

							}
, 							{
								"patchline" : 								{
									"source" : [ "obj-28", 0 ],
									"destination" : [ "obj-24", 0 ],
									"hidden" : 0,
									"midpoints" : [  ]
								}

							}
, 							{
								"patchline" : 								{
									"source" : [ "obj-24", 0 ],
									"destination" : [ "obj-25", 0 ],
									"hidden" : 0,
									"midpoints" : [  ]
								}

							}
, 							{
								"patchline" : 								{
									"source" : [ "obj-24", 1 ],
									"destination" : [ "obj-25", 0 ],
									"hidden" : 0,
									"midpoints" : [ 175.5, 38.0, 140.5, 38.0 ]
								}

							}
, 							{
								"patchline" : 								{
									"source" : [ "obj-25", 0 ],
									"destination" : [ "obj-21", 0 ],
									"hidden" : 0,
									"midpoints" : [  ]
								}

							}
, 							{
								"patchline" : 								{
									"source" : [ "obj-21", 0 ],
									"destination" : [ "obj-22", 0 ],
									"hidden" : 0,
									"midpoints" : [  ]
								}

							}
, 							{
								"patchline" : 								{
									"source" : [ "obj-21", 1 ],
									"destination" : [ "obj-22", 0 ],
									"hidden" : 0,
									"midpoints" : [ 290.5, 38.0, 255.5, 38.0 ]
								}

							}
, 							{
								"patchline" : 								{
									"source" : [ "obj-22", 0 ],
									"destination" : [ "obj-18", 0 ],
									"hidden" : 0,
									"midpoints" : [  ]
								}

							}
, 							{
								"patchline" : 								{
									"source" : [ "obj-18", 1 ],
									"destination" : [ "obj-19", 0 ],
									"hidden" : 0,
									"midpoints" : [ 405.5, 38.0, 370.5, 38.0 ]
								}

							}
, 							{
								"patchline" : 								{
									"source" : [ "obj-18", 0 ],
									"destination" : [ "obj-19", 0 ],
									"hidden" : 0,
									"midpoints" : [  ]
								}

							}
, 							{
								"patchline" : 								{
									"source" : [ "obj-19", 0 ],
									"destination" : [ "obj-15", 0 ],
									"hidden" : 0,
									"midpoints" : [  ]
								}

							}
, 							{
								"patchline" : 								{
									"source" : [ "obj-15", 1 ],
									"destination" : [ "obj-16", 0 ],
									"hidden" : 0,
									"midpoints" : [ 520.5, 38.0, 485.5, 38.0 ]
								}

							}
, 							{
								"patchline" : 								{
									"source" : [ "obj-15", 0 ],
									"destination" : [ "obj-16", 0 ],
									"hidden" : 0,
									"midpoints" : [  ]
								}

							}
, 							{
								"patchline" : 								{
									"source" : [ "obj-16", 0 ],
									"destination" : [ "obj-12", 0 ],
									"hidden" : 0,
									"midpoints" : [  ]
								}

							}
, 							{
								"patchline" : 								{
									"source" : [ "obj-12", 0 ],
									"destination" : [ "obj-13", 0 ],
									"hidden" : 0,
									"midpoints" : [  ]
								}

							}
, 							{
								"patchline" : 								{
									"source" : [ "obj-12", 1 ],
									"destination" : [ "obj-13", 0 ],
									"hidden" : 0,
									"midpoints" : [ 637.5, 38.0, 602.5, 38.0 ]
								}

							}
 ]
					}
,
					"saved_object_attributes" : 					{
						"default_fontname" : "Arial",
						"fontname" : "Arial",
						"default_fontsize" : 12.0,
						"fontface" : 0,
						"fontsize" : 12.0,
						"globalpatchername" : "",
						"default_fontface" : 0
					}

				}

			}
, 			{
				"box" : 				{
					"maxclass" : "newobj",
					"text" : "s framecount",
					"numoutlets" : 0,
					"fontname" : "Arial",
					"patching_rect" : [ 307.0, 273.0, 80.0, 20.0 ],
					"id" : "obj-64",
					"fontsize" : 12.0,
					"numinlets" : 1
				}

			}
, 			{
				"box" : 				{
					"maxclass" : "newobj",
					"text" : "jit.qt.movie 360 240",
					"numoutlets" : 2,
					"fontname" : "Arial",
					"outlettype" : [ "jit_matrix", "" ],
					"patching_rect" : [ 40.0, 149.0, 215.0, 20.0 ],
					"id" : "obj-61",
					"fontsize" : 12.0,
					"numinlets" : 1
				}

			}
, 			{
				"box" : 				{
					"maxclass" : "umenu",
					"numoutlets" : 3,
					"items" : [ "storycam", ",", "shakeycam", ",", "blathercam" ],
					"fontname" : "Arial",
					"outlettype" : [ "int", "", "" ],
					"types" : [  ],
					"patching_rect" : [ 40.0, 33.0, 100.0, 20.0 ],
					"id" : "obj-60",
					"fontsize" : 12.0,
					"numinlets" : 1
				}

			}
, 			{
				"box" : 				{
					"maxclass" : "comment",
					"text" : "current time",
					"numoutlets" : 0,
					"fontname" : "Arial",
					"patching_rect" : [ 394.0, 215.0, 77.0, 20.0 ],
					"id" : "obj-37",
					"fontsize" : 12.0,
					"numinlets" : 1
				}

			}
, 			{
				"box" : 				{
					"maxclass" : "comment",
					"text" : "# of frames",
					"numoutlets" : 0,
					"fontname" : "Arial",
					"patching_rect" : [ 370.0, 245.0, 77.0, 20.0 ],
					"id" : "obj-38",
					"fontsize" : 12.0,
					"numinlets" : 1
				}

			}
, 			{
				"box" : 				{
					"maxclass" : "flonum",
					"numoutlets" : 2,
					"triscale" : 0.9,
					"fontname" : "Arial",
					"outlettype" : [ "float", "bang" ],
					"patching_rect" : [ 236.0, 275.0, 66.0, 20.0 ],
					"id" : "obj-39",
					"fontsize" : 12.0,
					"numinlets" : 1,
					"bgcolor" : [ 0.866667, 0.866667, 0.866667, 1.0 ],
					"triangle" : 0
				}

			}
, 			{
				"box" : 				{
					"maxclass" : "number",
					"numoutlets" : 2,
					"triscale" : 0.9,
					"fontname" : "Arial",
					"outlettype" : [ "int", "bang" ],
					"patching_rect" : [ 307.0, 245.0, 62.0, 20.0 ],
					"id" : "obj-40",
					"fontsize" : 12.0,
					"numinlets" : 1,
					"bgcolor" : [ 0.866667, 0.866667, 0.866667, 1.0 ],
					"triangle" : 0
				}

			}
, 			{
				"box" : 				{
					"maxclass" : "number",
					"numoutlets" : 2,
					"triscale" : 0.9,
					"fontname" : "Arial",
					"outlettype" : [ "int", "bang" ],
					"patching_rect" : [ 331.0, 215.0, 62.0, 20.0 ],
					"id" : "obj-41",
					"fontsize" : 12.0,
					"numinlets" : 1,
					"bgcolor" : [ 0.866667, 0.866667, 0.866667, 1.0 ],
					"triangle" : 0
				}

			}
, 			{
				"box" : 				{
					"maxclass" : "newobj",
					"text" : "p movieinfo",
					"numoutlets" : 6,
					"fontname" : "Arial",
					"outlettype" : [ "float", "", "", "", "", "" ],
					"patching_rect" : [ 236.0, 177.0, 138.0, 20.0 ],
					"id" : "obj-42",
					"fontsize" : 12.0,
					"numinlets" : 1,
					"patcher" : 					{
						"fileversion" : 1,
						"rect" : [ 30.0, 89.0, 896.0, 329.0 ],
						"bglocked" : 0,
						"defrect" : [ 30.0, 89.0, 896.0, 329.0 ],
						"openrect" : [ 0.0, 0.0, 0.0, 0.0 ],
						"openinpresentation" : 0,
						"default_fontsize" : 10.0,
						"default_fontface" : 0,
						"default_fontname" : "Arial",
						"gridonopen" : 0,
						"gridsize" : [ 15.0, 15.0 ],
						"gridsnaponopen" : 0,
						"toolbarvisible" : 1,
						"boxanimatetime" : 200,
						"imprint" : 0,
						"enablehscroll" : 1,
						"enablevscroll" : 1,
						"devicewidth" : 0.0,
						"boxes" : [ 							{
								"box" : 								{
									"maxclass" : "outlet",
									"numoutlets" : 0,
									"patching_rect" : [ 111.0, 253.0, 24.0, 24.0 ],
									"id" : "obj-1",
									"numinlets" : 1,
									"comment" : "movie duration (QT units)"
								}

							}
, 							{
								"box" : 								{
									"maxclass" : "outlet",
									"numoutlets" : 0,
									"patching_rect" : [ 280.0, 253.0, 24.0, 24.0 ],
									"id" : "obj-2",
									"numinlets" : 1,
									"comment" : "connect to inlet of jit.qt.movie object"
								}

							}
, 							{
								"box" : 								{
									"maxclass" : "outlet",
									"numoutlets" : 0,
									"patching_rect" : [ 231.0, 253.0, 24.0, 24.0 ],
									"id" : "obj-3",
									"numinlets" : 1,
									"comment" : "current time in movie"
								}

							}
, 							{
								"box" : 								{
									"maxclass" : "outlet",
									"numoutlets" : 0,
									"patching_rect" : [ 182.0, 253.0, 24.0, 24.0 ],
									"id" : "obj-4",
									"numinlets" : 1,
									"comment" : "# of frames in QT movie"
								}

							}
, 							{
								"box" : 								{
									"maxclass" : "outlet",
									"numoutlets" : 0,
									"patching_rect" : [ 135.0, 253.0, 24.0, 24.0 ],
									"id" : "obj-5",
									"numinlets" : 1,
									"comment" : "QT movie rate"
								}

							}
, 							{
								"box" : 								{
									"maxclass" : "outlet",
									"numoutlets" : 0,
									"patching_rect" : [ 38.0, 253.0, 24.0, 24.0 ],
									"id" : "obj-6",
									"numinlets" : 1,
									"comment" : "QT movie duration (seconds)"
								}

							}
, 							{
								"box" : 								{
									"maxclass" : "inlet",
									"numoutlets" : 1,
									"outlettype" : [ "" ],
									"patching_rect" : [ 38.0, 34.0, 24.0, 24.0 ],
									"id" : "obj-7",
									"numinlets" : 0,
									"comment" : "connect to right outlet of jit.qt.movie"
								}

							}
, 							{
								"box" : 								{
									"maxclass" : "newobj",
									"text" : "t getduration gettimescale getrate getframecount gettime",
									"linecount" : 2,
									"numoutlets" : 5,
									"fontname" : "Arial",
									"outlettype" : [ "", "", "", "", "" ],
									"patching_rect" : [ 280.0, 126.0, 271.0, 34.0 ],
									"id" : "obj-8",
									"fontsize" : 12.0,
									"numinlets" : 1
								}

							}
, 							{
								"box" : 								{
									"maxclass" : "newobj",
									"text" : "/ 1.",
									"numoutlets" : 1,
									"fontname" : "Arial",
									"outlettype" : [ "float" ],
									"patching_rect" : [ 38.0, 225.0, 67.0, 20.0 ],
									"id" : "obj-9",
									"fontsize" : 12.0,
									"numinlets" : 2
								}

							}
, 							{
								"box" : 								{
									"maxclass" : "newobj",
									"text" : "route duration timescale rate framecount time read",
									"numoutlets" : 7,
									"fontname" : "Arial",
									"outlettype" : [ "", "", "", "", "", "", "" ],
									"patching_rect" : [ 38.0, 74.0, 309.0, 20.0 ],
									"id" : "obj-10",
									"fontsize" : 12.0,
									"numinlets" : 1
								}

							}
 ],
						"lines" : [ 							{
								"patchline" : 								{
									"source" : [ "obj-8", 0 ],
									"destination" : [ "obj-2", 0 ],
									"hidden" : 0,
									"midpoints" : [ 289.5, 206.0, 289.5, 206.0 ]
								}

							}
, 							{
								"patchline" : 								{
									"source" : [ "obj-8", 1 ],
									"destination" : [ "obj-2", 0 ],
									"hidden" : 0,
									"midpoints" : [ 352.5, 206.0, 289.5, 206.0 ]
								}

							}
, 							{
								"patchline" : 								{
									"source" : [ "obj-8", 2 ],
									"destination" : [ "obj-2", 0 ],
									"hidden" : 0,
									"midpoints" : [ 415.5, 206.0, 289.5, 206.0 ]
								}

							}
, 							{
								"patchline" : 								{
									"source" : [ "obj-8", 3 ],
									"destination" : [ "obj-2", 0 ],
									"hidden" : 0,
									"midpoints" : [ 478.5, 206.0, 289.5, 206.0 ]
								}

							}
, 							{
								"patchline" : 								{
									"source" : [ "obj-8", 4 ],
									"destination" : [ "obj-2", 0 ],
									"hidden" : 0,
									"midpoints" : [ 541.5, 206.0, 289.5, 206.0 ]
								}

							}
, 							{
								"patchline" : 								{
									"source" : [ "obj-9", 0 ],
									"destination" : [ "obj-6", 0 ],
									"hidden" : 0,
									"midpoints" : [  ]
								}

							}
, 							{
								"patchline" : 								{
									"source" : [ "obj-10", 0 ],
									"destination" : [ "obj-1", 0 ],
									"hidden" : 0,
									"midpoints" : [ 47.5, 198.5, 120.5, 198.5 ]
								}

							}
, 							{
								"patchline" : 								{
									"source" : [ "obj-7", 0 ],
									"destination" : [ "obj-10", 0 ],
									"hidden" : 0,
									"midpoints" : [  ]
								}

							}
, 							{
								"patchline" : 								{
									"source" : [ "obj-10", 0 ],
									"destination" : [ "obj-9", 0 ],
									"hidden" : 0,
									"midpoints" : [  ]
								}

							}
, 							{
								"patchline" : 								{
									"source" : [ "obj-10", 1 ],
									"destination" : [ "obj-9", 1 ],
									"hidden" : 0,
									"midpoints" : [  ]
								}

							}
, 							{
								"patchline" : 								{
									"source" : [ "obj-10", 2 ],
									"destination" : [ "obj-5", 0 ],
									"hidden" : 0,
									"midpoints" : [  ]
								}

							}
, 							{
								"patchline" : 								{
									"source" : [ "obj-10", 3 ],
									"destination" : [ "obj-4", 0 ],
									"hidden" : 0,
									"midpoints" : [  ]
								}

							}
, 							{
								"patchline" : 								{
									"source" : [ "obj-10", 4 ],
									"destination" : [ "obj-3", 0 ],
									"hidden" : 0,
									"midpoints" : [  ]
								}

							}
, 							{
								"patchline" : 								{
									"source" : [ "obj-10", 5 ],
									"destination" : [ "obj-8", 0 ],
									"hidden" : 0,
									"midpoints" : [  ]
								}

							}
 ]
					}
,
					"saved_object_attributes" : 					{
						"default_fontname" : "Arial",
						"fontname" : "Arial",
						"default_fontsize" : 10.0,
						"fontface" : 0,
						"fontsize" : 10.0,
						"globalpatchername" : "",
						"default_fontface" : 0
					}

				}

			}
, 			{
				"box" : 				{
					"maxclass" : "comment",
					"text" : "movie length (sec.)",
					"linecount" : 2,
					"numoutlets" : 0,
					"fontname" : "Arial",
					"patching_rect" : [ 237.0, 300.0, 80.0, 34.0 ],
					"id" : "obj-43",
					"fontsize" : 12.0,
					"numinlets" : 1
				}

			}
, 			{
				"box" : 				{
					"maxclass" : "button",
					"numoutlets" : 1,
					"outlettype" : [ "bang" ],
					"patching_rect" : [ 196.0, 99.0, 22.0, 22.0 ],
					"id" : "obj-7",
					"numinlets" : 1
				}

			}
, 			{
				"box" : 				{
					"maxclass" : "number",
					"numoutlets" : 2,
					"triscale" : 0.9,
					"fontname" : "Arial",
					"outlettype" : [ "int", "bang" ],
					"patching_rect" : [ 385.0, 35.0, 62.0, 20.0 ],
					"id" : "obj-8",
					"fontsize" : 12.0,
					"numinlets" : 1,
					"bgcolor" : [ 0.866667, 0.866667, 0.866667, 1.0 ],
					"triangle" : 0
				}

			}
, 			{
				"box" : 				{
					"maxclass" : "jit.pwindow",
					"numoutlets" : 2,
					"outlettype" : [ "", "" ],
					"patching_rect" : [ 40.0, 626.0, 160.0, 120.0 ],
					"id" : "obj-12",
					"numinlets" : 1
				}

			}
, 			{
				"box" : 				{
					"maxclass" : "toggle",
					"numoutlets" : 1,
					"outlettype" : [ "int" ],
					"patching_rect" : [ 336.0, 35.0, 19.0, 19.0 ],
					"id" : "obj-13",
					"numinlets" : 1
				}

			}
, 			{
				"box" : 				{
					"maxclass" : "newobj",
					"text" : "metro 33.299999",
					"numoutlets" : 1,
					"fontname" : "Arial",
					"outlettype" : [ "bang" ],
					"patching_rect" : [ 336.0, 62.0, 99.0, 20.0 ],
					"id" : "obj-14",
					"fontsize" : 12.0,
					"numinlets" : 2
				}

			}
, 			{
				"box" : 				{
					"maxclass" : "message",
					"text" : "read",
					"numoutlets" : 1,
					"fontname" : "Arial",
					"outlettype" : [ "" ],
					"patching_rect" : [ 148.0, 100.0, 44.0, 18.0 ],
					"id" : "obj-15",
					"fontsize" : 12.0,
					"numinlets" : 2
				}

			}
, 			{
				"box" : 				{
					"maxclass" : "newobj",
					"text" : "p out-of-order",
					"numoutlets" : 1,
					"fontname" : "Arial",
					"outlettype" : [ "bang" ],
					"patching_rect" : [ 40.0, 103.0, 83.0, 20.0 ],
					"id" : "obj-16",
					"fontsize" : 12.0,
					"numinlets" : 2,
					"patcher" : 					{
						"fileversion" : 1,
						"rect" : [ 332.0, 44.0, 871.0, 754.0 ],
						"bglocked" : 0,
						"defrect" : [ 332.0, 44.0, 871.0, 754.0 ],
						"openrect" : [ 0.0, 0.0, 0.0, 0.0 ],
						"openinpresentation" : 0,
						"default_fontsize" : 12.0,
						"default_fontface" : 0,
						"default_fontname" : "Arial",
						"gridonopen" : 0,
						"gridsize" : [ 8.0, 8.0 ],
						"gridsnaponopen" : 0,
						"toolbarvisible" : 1,
						"boxanimatetime" : 200,
						"imprint" : 0,
						"enablehscroll" : 1,
						"enablevscroll" : 1,
						"devicewidth" : 0.0,
						"boxes" : [ 							{
								"box" : 								{
									"maxclass" : "comment",
									"text" : "Remember when we said \"Max was about messages?\" Here we use our old friends the drunk and urn objects to generate frame numbers to play outside of the normal order",
									"linecount" : 3,
									"numoutlets" : 0,
									"fontname" : "Arial",
									"patching_rect" : [ 413.0, 23.0, 379.0, 48.0 ],
									"id" : "obj-16",
									"fontsize" : 12.0,
									"numinlets" : 1
								}

							}
, 							{
								"box" : 								{
									"maxclass" : "comment",
									"text" : "< set a new range when you load a new movie",
									"numoutlets" : 0,
									"fontname" : "Arial",
									"patching_rect" : [ 362.0, 239.0, 270.0, 20.0 ],
									"id" : "obj-15",
									"fontsize" : 12.0,
									"numinlets" : 1
								}

							}
, 							{
								"box" : 								{
									"maxclass" : "comment",
									"text" : "< when you change modes, start at frame 0 and reset the urn object",
									"numoutlets" : 0,
									"fontname" : "Arial",
									"patching_rect" : [ 224.0, 125.0, 379.0, 20.0 ],
									"id" : "obj-14",
									"fontsize" : 12.0,
									"numinlets" : 1
								}

							}
, 							{
								"box" : 								{
									"maxclass" : "comment",
									"text" : "< set the frame to display and then send a bang to display it",
									"numoutlets" : 0,
									"fontname" : "Arial",
									"patching_rect" : [ 191.0, 415.0, 353.0, 20.0 ],
									"id" : "obj-13",
									"fontsize" : 12.0,
									"numinlets" : 1
								}

							}
, 							{
								"box" : 								{
									"maxclass" : "comment",
									"text" : "< when you've played every frame, start over",
									"numoutlets" : 0,
									"fontname" : "Arial",
									"patching_rect" : [ 422.0, 338.0, 270.0, 20.0 ],
									"id" : "obj-12",
									"fontsize" : 12.0,
									"numinlets" : 1
								}

							}
, 							{
								"box" : 								{
									"maxclass" : "outlet",
									"numoutlets" : 0,
									"patching_rect" : [ 156.0, 488.0, 25.0, 25.0 ],
									"id" : "obj-8",
									"numinlets" : 1,
									"comment" : ""
								}

							}
, 							{
								"box" : 								{
									"maxclass" : "message",
									"text" : "clear",
									"numoutlets" : 1,
									"fontname" : "Arial",
									"outlettype" : [ "" ],
									"patching_rect" : [ 374.0, 340.0, 37.0, 18.0 ],
									"id" : "obj-6",
									"fontsize" : 12.0,
									"numinlets" : 2
								}

							}
, 							{
								"box" : 								{
									"maxclass" : "inlet",
									"numoutlets" : 1,
									"outlettype" : [ "bang" ],
									"patching_rect" : [ 348.0, 22.0, 25.0, 25.0 ],
									"id" : "obj-57",
									"numinlets" : 0,
									"comment" : ""
								}

							}
, 							{
								"box" : 								{
									"maxclass" : "inlet",
									"numoutlets" : 1,
									"outlettype" : [ "int" ],
									"patching_rect" : [ 32.0, 22.0, 25.0, 25.0 ],
									"id" : "obj-55",
									"numinlets" : 0,
									"comment" : ""
								}

							}
, 							{
								"box" : 								{
									"maxclass" : "newobj",
									"text" : "prepend frame",
									"numoutlets" : 1,
									"fontname" : "Arial",
									"outlettype" : [ "" ],
									"patching_rect" : [ 32.0, 250.0, 89.0, 20.0 ],
									"id" : "obj-54",
									"fontsize" : 12.0,
									"numinlets" : 1
								}

							}
, 							{
								"box" : 								{
									"maxclass" : "newobj",
									"text" : "t 0 i clear",
									"numoutlets" : 3,
									"fontname" : "Arial",
									"outlettype" : [ "int", "int", "clear" ],
									"patching_rect" : [ 32.0, 125.0, 189.0, 20.0 ],
									"id" : "obj-53",
									"fontsize" : 12.0,
									"numinlets" : 1
								}

							}
, 							{
								"box" : 								{
									"maxclass" : "newobj",
									"text" : "+ 1",
									"numoutlets" : 1,
									"fontname" : "Arial",
									"outlettype" : [ "int" ],
									"patching_rect" : [ 32.0, 101.0, 32.5, 20.0 ],
									"id" : "obj-52",
									"fontsize" : 12.0,
									"numinlets" : 2
								}

							}
, 							{
								"box" : 								{
									"maxclass" : "newobj",
									"text" : "prepend frame",
									"numoutlets" : 1,
									"fontname" : "Arial",
									"outlettype" : [ "" ],
									"patching_rect" : [ 233.0, 369.0, 89.0, 20.0 ],
									"id" : "obj-51",
									"fontsize" : 12.0,
									"numinlets" : 1
								}

							}
, 							{
								"box" : 								{
									"maxclass" : "newobj",
									"text" : "t b l",
									"numoutlets" : 2,
									"fontname" : "Arial",
									"outlettype" : [ "bang", "" ],
									"patching_rect" : [ 156.0, 416.0, 32.5, 20.0 ],
									"id" : "obj-49",
									"fontsize" : 12.0,
									"numinlets" : 1
								}

							}
, 							{
								"box" : 								{
									"maxclass" : "newobj",
									"text" : "gate 3",
									"numoutlets" : 3,
									"fontname" : "Arial",
									"outlettype" : [ "", "", "" ],
									"patching_rect" : [ 117.0, 151.0, 250.0, 20.0 ],
									"id" : "obj-48",
									"fontsize" : 12.0,
									"numinlets" : 2
								}

							}
, 							{
								"box" : 								{
									"maxclass" : "newobj",
									"text" : "r framecount",
									"numoutlets" : 1,
									"fontname" : "Arial",
									"outlettype" : [ "" ],
									"patching_rect" : [ 257.0, 238.0, 93.0, 20.0 ],
									"id" : "obj-46",
									"fontsize" : 12.0,
									"numinlets" : 0
								}

							}
, 							{
								"box" : 								{
									"maxclass" : "newobj",
									"text" : "drunk 10 8",
									"numoutlets" : 1,
									"fontname" : "Arial",
									"outlettype" : [ "int" ],
									"patching_rect" : [ 233.0, 315.0, 67.0, 20.0 ],
									"id" : "obj-47",
									"fontsize" : 12.0,
									"numinlets" : 3
								}

							}
, 							{
								"box" : 								{
									"maxclass" : "newobj",
									"text" : "urn 10",
									"numoutlets" : 2,
									"fontname" : "Arial",
									"outlettype" : [ "int", "bang" ],
									"patching_rect" : [ 348.0, 313.0, 45.0, 20.0 ],
									"id" : "obj-44",
									"fontsize" : 12.0,
									"numinlets" : 2
								}

							}
 ],
						"lines" : [ 							{
								"patchline" : 								{
									"source" : [ "obj-44", 0 ],
									"destination" : [ "obj-51", 0 ],
									"hidden" : 0,
									"midpoints" : [ 357.5, 350.5, 242.5, 350.5 ]
								}

							}
, 							{
								"patchline" : 								{
									"source" : [ "obj-53", 0 ],
									"destination" : [ "obj-54", 0 ],
									"hidden" : 0,
									"midpoints" : [  ]
								}

							}
, 							{
								"patchline" : 								{
									"source" : [ "obj-53", 2 ],
									"destination" : [ "obj-44", 0 ],
									"hidden" : 0,
									"midpoints" : [ 211.5, 224.0, 357.5, 224.0 ]
								}

							}
, 							{
								"patchline" : 								{
									"source" : [ "obj-53", 1 ],
									"destination" : [ "obj-48", 0 ],
									"hidden" : 0,
									"midpoints" : [  ]
								}

							}
, 							{
								"patchline" : 								{
									"source" : [ "obj-57", 0 ],
									"destination" : [ "obj-48", 1 ],
									"hidden" : 0,
									"midpoints" : [  ]
								}

							}
, 							{
								"patchline" : 								{
									"source" : [ "obj-52", 0 ],
									"destination" : [ "obj-53", 0 ],
									"hidden" : 0,
									"midpoints" : [  ]
								}

							}
, 							{
								"patchline" : 								{
									"source" : [ "obj-55", 0 ],
									"destination" : [ "obj-52", 0 ],
									"hidden" : 0,
									"midpoints" : [  ]
								}

							}
, 							{
								"patchline" : 								{
									"source" : [ "obj-44", 1 ],
									"destination" : [ "obj-6", 0 ],
									"hidden" : 0,
									"midpoints" : [  ]
								}

							}
, 							{
								"patchline" : 								{
									"source" : [ "obj-6", 0 ],
									"destination" : [ "obj-44", 0 ],
									"hidden" : 0,
									"midpoints" : [ 383.5, 363.0, 419.0, 363.0, 419.0, 295.0, 357.5, 295.0 ]
								}

							}
, 							{
								"patchline" : 								{
									"source" : [ "obj-51", 0 ],
									"destination" : [ "obj-49", 0 ],
									"hidden" : 0,
									"midpoints" : [ 242.5, 402.0, 165.5, 402.0 ]
								}

							}
, 							{
								"patchline" : 								{
									"source" : [ "obj-54", 0 ],
									"destination" : [ "obj-49", 0 ],
									"hidden" : 0,
									"midpoints" : [ 41.5, 278.0, 165.5, 278.0 ]
								}

							}
, 							{
								"patchline" : 								{
									"source" : [ "obj-49", 0 ],
									"destination" : [ "obj-8", 0 ],
									"hidden" : 0,
									"midpoints" : [  ]
								}

							}
, 							{
								"patchline" : 								{
									"source" : [ "obj-49", 1 ],
									"destination" : [ "obj-8", 0 ],
									"hidden" : 0,
									"midpoints" : [ 179.0, 461.5, 165.5, 461.5 ]
								}

							}
, 							{
								"patchline" : 								{
									"source" : [ "obj-48", 2 ],
									"destination" : [ "obj-44", 0 ],
									"hidden" : 0,
									"midpoints" : [  ]
								}

							}
, 							{
								"patchline" : 								{
									"source" : [ "obj-46", 0 ],
									"destination" : [ "obj-44", 1 ],
									"hidden" : 0,
									"midpoints" : [ 266.5, 281.0, 383.5, 281.0 ]
								}

							}
, 							{
								"patchline" : 								{
									"source" : [ "obj-48", 0 ],
									"destination" : [ "obj-8", 0 ],
									"hidden" : 0,
									"midpoints" : [ 126.5, 473.0, 165.5, 473.0 ]
								}

							}
, 							{
								"patchline" : 								{
									"source" : [ "obj-47", 0 ],
									"destination" : [ "obj-51", 0 ],
									"hidden" : 0,
									"midpoints" : [  ]
								}

							}
, 							{
								"patchline" : 								{
									"source" : [ "obj-48", 1 ],
									"destination" : [ "obj-47", 0 ],
									"hidden" : 0,
									"midpoints" : [  ]
								}

							}
, 							{
								"patchline" : 								{
									"source" : [ "obj-46", 0 ],
									"destination" : [ "obj-47", 1 ],
									"hidden" : 0,
									"midpoints" : [ 266.5, 260.0, 266.5, 260.0 ]
								}

							}
 ]
					}
,
					"saved_object_attributes" : 					{
						"default_fontname" : "Arial",
						"fontname" : "Arial",
						"default_fontsize" : 12.0,
						"fontface" : 0,
						"fontsize" : 12.0,
						"globalpatchername" : "",
						"default_fontface" : 0
					}

				}

			}
, 			{
				"box" : 				{
					"maxclass" : "panel",
					"numoutlets" : 0,
					"patching_rect" : [ 64.0, 342.0, 350.0, 75.0 ],
					"id" : "obj-11",
					"numinlets" : 1,
					"bgcolor" : [ 0.0, 0.25098, 0.129412, 0.501961 ]
				}

			}
 ],
		"lines" : [ 			{
				"patchline" : 				{
					"source" : [ "obj-17", 0 ],
					"destination" : [ "obj-60", 0 ],
					"hidden" : 0,
					"midpoints" : [ 49.5, 30.0, 49.5, 30.0 ]
				}

			}
, 			{
				"patchline" : 				{
					"source" : [ "obj-10", 0 ],
					"destination" : [ "obj-3", 0 ],
					"hidden" : 0,
					"midpoints" : [  ]
				}

			}
, 			{
				"patchline" : 				{
					"source" : [ "obj-42", 4 ],
					"destination" : [ "obj-41", 0 ],
					"hidden" : 0,
					"midpoints" : [  ]
				}

			}
, 			{
				"patchline" : 				{
					"source" : [ "obj-42", 3 ],
					"destination" : [ "obj-40", 0 ],
					"hidden" : 0,
					"midpoints" : [  ]
				}

			}
, 			{
				"patchline" : 				{
					"source" : [ "obj-42", 0 ],
					"destination" : [ "obj-39", 0 ],
					"hidden" : 0,
					"midpoints" : [  ]
				}

			}
, 			{
				"patchline" : 				{
					"source" : [ "obj-61", 1 ],
					"destination" : [ "obj-42", 0 ],
					"hidden" : 0,
					"midpoints" : [  ]
				}

			}
, 			{
				"patchline" : 				{
					"source" : [ "obj-61", 0 ],
					"destination" : [ "obj-12", 0 ],
					"hidden" : 0,
					"midpoints" : [  ]
				}

			}
, 			{
				"patchline" : 				{
					"source" : [ "obj-60", 0 ],
					"destination" : [ "obj-16", 0 ],
					"hidden" : 0,
					"midpoints" : [  ]
				}

			}
, 			{
				"patchline" : 				{
					"source" : [ "obj-15", 0 ],
					"destination" : [ "obj-61", 0 ],
					"hidden" : 0,
					"midpoints" : [ 157.5, 142.0, 49.5, 142.0 ]
				}

			}
, 			{
				"patchline" : 				{
					"source" : [ "obj-40", 0 ],
					"destination" : [ "obj-64", 0 ],
					"hidden" : 0,
					"midpoints" : [  ]
				}

			}
, 			{
				"patchline" : 				{
					"source" : [ "obj-42", 5 ],
					"destination" : [ "obj-61", 0 ],
					"hidden" : 0,
					"midpoints" : [ 364.5, 206.0, 389.0, 206.0, 389.0, 142.0, 49.5, 142.0 ]
				}

			}
, 			{
				"patchline" : 				{
					"source" : [ "obj-14", 0 ],
					"destination" : [ "obj-16", 1 ],
					"hidden" : 0,
					"midpoints" : [ 345.5, 90.0, 113.5, 90.0 ]
				}

			}
, 			{
				"patchline" : 				{
					"source" : [ "obj-8", 0 ],
					"destination" : [ "obj-14", 1 ],
					"hidden" : 0,
					"midpoints" : [  ]
				}

			}
, 			{
				"patchline" : 				{
					"source" : [ "obj-13", 0 ],
					"destination" : [ "obj-14", 0 ],
					"hidden" : 0,
					"midpoints" : [  ]
				}

			}
, 			{
				"patchline" : 				{
					"source" : [ "obj-7", 0 ],
					"destination" : [ "obj-61", 0 ],
					"hidden" : 0,
					"midpoints" : [ 205.5, 142.0, 49.5, 142.0 ]
				}

			}
, 			{
				"patchline" : 				{
					"source" : [ "obj-16", 0 ],
					"destination" : [ "obj-61", 0 ],
					"hidden" : 0,
					"midpoints" : [  ]
				}

			}
, 			{
				"patchline" : 				{
					"source" : [ "obj-27", 1 ],
					"destination" : [ "obj-28", 0 ],
					"hidden" : 0,
					"midpoints" : [ 115.5, 382.0, 80.5, 382.0 ]
				}

			}
, 			{
				"patchline" : 				{
					"source" : [ "obj-27", 0 ],
					"destination" : [ "obj-28", 0 ],
					"hidden" : 0,
					"midpoints" : [  ]
				}

			}
, 			{
				"patchline" : 				{
					"source" : [ "obj-28", 0 ],
					"destination" : [ "obj-24", 0 ],
					"hidden" : 0,
					"midpoints" : [  ]
				}

			}
, 			{
				"patchline" : 				{
					"source" : [ "obj-24", 0 ],
					"destination" : [ "obj-25", 0 ],
					"hidden" : 0,
					"midpoints" : [  ]
				}

			}
, 			{
				"patchline" : 				{
					"source" : [ "obj-24", 1 ],
					"destination" : [ "obj-25", 0 ],
					"hidden" : 0,
					"midpoints" : [ 228.5, 382.0, 193.5, 382.0 ]
				}

			}
, 			{
				"patchline" : 				{
					"source" : [ "obj-25", 0 ],
					"destination" : [ "obj-21", 0 ],
					"hidden" : 0,
					"midpoints" : [  ]
				}

			}
, 			{
				"patchline" : 				{
					"source" : [ "obj-21", 0 ],
					"destination" : [ "obj-22", 0 ],
					"hidden" : 0,
					"midpoints" : [  ]
				}

			}
, 			{
				"patchline" : 				{
					"source" : [ "obj-21", 1 ],
					"destination" : [ "obj-22", 0 ],
					"hidden" : 0,
					"midpoints" : [ 343.5, 382.0, 308.5, 382.0 ]
				}

			}
, 			{
				"patchline" : 				{
					"source" : [ "obj-3", 0 ],
					"destination" : [ "obj-1", 1 ],
					"hidden" : 0,
					"midpoints" : [  ]
				}

			}
, 			{
				"patchline" : 				{
					"source" : [ "obj-28", 0 ],
					"destination" : [ "obj-4", 0 ],
					"hidden" : 0,
					"midpoints" : [  ]
				}

			}
, 			{
				"patchline" : 				{
					"source" : [ "obj-22", 0 ],
					"destination" : [ "obj-5", 0 ],
					"hidden" : 0,
					"midpoints" : [  ]
				}

			}
, 			{
				"patchline" : 				{
					"source" : [ "obj-61", 0 ],
					"destination" : [ "obj-27", 0 ],
					"hidden" : 0,
					"midpoints" : [ 49.5, 178.5, 80.5, 178.5 ]
				}

			}
, 			{
				"patchline" : 				{
					"source" : [ "obj-61", 0 ],
					"destination" : [ "obj-1", 0 ],
					"hidden" : 0,
					"midpoints" : [ 49.5, 568.5, 229.5, 568.5 ]
				}

			}
, 			{
				"patchline" : 				{
					"source" : [ "obj-1", 0 ],
					"destination" : [ "obj-9", 0 ],
					"hidden" : 0,
					"midpoints" : [  ]
				}

			}
 ]
	}

}
