{
	"patcher" : 	{
		"fileversion" : 1,
		"rect" : [ 14.0, 44.0, 960.0, 735.0 ],
		"bglocked" : 0,
		"defrect" : [ 14.0, 44.0, 960.0, 735.0 ],
		"openrect" : [ 0.0, 0.0, 0.0, 0.0 ],
		"openinpresentation" : 0,
		"default_fontsize" : 12.0,
		"default_fontface" : 0,
		"default_fontname" : "Arial",
		"gridonopen" : 0,
		"gridsize" : [ 8.0, 8.0 ],
		"gridsnaponopen" : 0,
		"toolbarvisible" : 1,
		"boxanimatetime" : 200,
		"imprint" : 0,
		"enablehscroll" : 1,
		"enablevscroll" : 1,
		"devicewidth" : 0.0,
		"boxes" : [ 			{
				"box" : 				{
					"maxclass" : "newobj",
					"text" : "jit.slide @slide_up 60 @slide_down 60",
					"outlettype" : [ "jit_matrix", "" ],
					"fontsize" : 12.0,
					"numinlets" : 1,
					"patching_rect" : [ 318.0, 455.0, 216.0, 20.0 ],
					"fontname" : "Arial",
					"id" : "obj-3",
					"numoutlets" : 2
				}

			}
, 			{
				"box" : 				{
					"maxclass" : "newobj",
					"text" : "p compositing guide",
					"fontsize" : 12.0,
					"numinlets" : 0,
					"patching_rect" : [ 86.0, 409.0, 117.0, 20.0 ],
					"fontname" : "Arial",
					"id" : "obj-2",
					"numoutlets" : 0,
					"patcher" : 					{
						"fileversion" : 1,
						"rect" : [ 25.0, 69.0, 610.0, 497.0 ],
						"bglocked" : 0,
						"defrect" : [ 25.0, 69.0, 610.0, 497.0 ],
						"openrect" : [ 0.0, 0.0, 0.0, 0.0 ],
						"openinpresentation" : 0,
						"default_fontsize" : 12.0,
						"default_fontface" : 0,
						"default_fontname" : "Arial",
						"gridonopen" : 0,
						"gridsize" : [ 8.0, 8.0 ],
						"gridsnaponopen" : 0,
						"toolbarvisible" : 1,
						"boxanimatetime" : 200,
						"imprint" : 0,
						"enablehscroll" : 1,
						"enablevscroll" : 1,
						"devicewidth" : 0.0,
						"boxes" : [ 							{
								"box" : 								{
									"maxclass" : "comment",
									"text" : "no",
									"fontsize" : 18.0,
									"numinlets" : 1,
									"patching_rect" : [ 339.0, 169.0, 31.0, 27.0 ],
									"fontname" : "Arial",
									"id" : "obj-1",
									"numoutlets" : 0
								}

							}
, 							{
								"box" : 								{
									"maxclass" : "panel",
									"border" : 1,
									"numinlets" : 1,
									"bgcolor" : [ 0.505882, 0.231373, 1.0, 1.0 ],
									"patching_rect" : [ 322.0, 152.0, 64.0, 64.0 ],
									"id" : "obj-2",
									"numoutlets" : 0,
									"rounded" : 0
								}

							}
, 							{
								"box" : 								{
									"maxclass" : "comment",
									"text" : "no",
									"fontsize" : 18.0,
									"numinlets" : 1,
									"patching_rect" : [ 497.0, 170.0, 31.0, 27.0 ],
									"fontname" : "Arial",
									"id" : "obj-3",
									"numoutlets" : 0
								}

							}
, 							{
								"box" : 								{
									"maxclass" : "panel",
									"border" : 1,
									"numinlets" : 1,
									"bgcolor" : [ 0.505882, 0.231373, 1.0, 1.0 ],
									"patching_rect" : [ 480.0, 153.0, 64.0, 64.0 ],
									"id" : "obj-4",
									"numoutlets" : 0,
									"rounded" : 0
								}

							}
, 							{
								"box" : 								{
									"maxclass" : "comment",
									"text" : "yes",
									"fontsize" : 18.0,
									"numinlets" : 1,
									"patching_rect" : [ 181.0, 169.0, 42.0, 27.0 ],
									"fontname" : "Arial",
									"id" : "obj-5",
									"numoutlets" : 0
								}

							}
, 							{
								"box" : 								{
									"maxclass" : "panel",
									"border" : 1,
									"numinlets" : 1,
									"bgcolor" : [ 0.980392, 1.0, 0.294118, 1.0 ],
									"patching_rect" : [ 164.0, 152.0, 64.0, 64.0 ],
									"id" : "obj-6",
									"numoutlets" : 0,
									"rounded" : 0
								}

							}
, 							{
								"box" : 								{
									"maxclass" : "comment",
									"text" : "no",
									"fontsize" : 18.0,
									"numinlets" : 1,
									"patching_rect" : [ 418.0, 169.0, 31.0, 27.0 ],
									"fontname" : "Arial",
									"id" : "obj-7",
									"numoutlets" : 0
								}

							}
, 							{
								"box" : 								{
									"maxclass" : "panel",
									"border" : 1,
									"numinlets" : 1,
									"bgcolor" : [ 0.505882, 0.231373, 1.0, 1.0 ],
									"patching_rect" : [ 401.0, 152.0, 64.0, 64.0 ],
									"id" : "obj-8",
									"numoutlets" : 0,
									"rounded" : 0
								}

							}
, 							{
								"box" : 								{
									"maxclass" : "comment",
									"text" : "no",
									"fontsize" : 18.0,
									"numinlets" : 1,
									"patching_rect" : [ 257.0, 169.0, 31.0, 27.0 ],
									"fontname" : "Arial",
									"id" : "obj-9",
									"numoutlets" : 0
								}

							}
, 							{
								"box" : 								{
									"maxclass" : "panel",
									"border" : 1,
									"numinlets" : 1,
									"bgcolor" : [ 0.505882, 0.231373, 1.0, 1.0 ],
									"patching_rect" : [ 243.0, 152.0, 64.0, 64.0 ],
									"id" : "obj-10",
									"numoutlets" : 0,
									"rounded" : 0
								}

							}
, 							{
								"box" : 								{
									"maxclass" : "comment",
									"text" : "no",
									"fontsize" : 18.0,
									"numinlets" : 1,
									"patching_rect" : [ 339.0, 247.0, 31.0, 27.0 ],
									"fontname" : "Arial",
									"id" : "obj-12",
									"numoutlets" : 0
								}

							}
, 							{
								"box" : 								{
									"maxclass" : "panel",
									"border" : 1,
									"numinlets" : 1,
									"bgcolor" : [ 0.505882, 0.231373, 1.0, 1.0 ],
									"patching_rect" : [ 322.0, 230.0, 64.0, 64.0 ],
									"id" : "obj-13",
									"numoutlets" : 0,
									"rounded" : 0
								}

							}
, 							{
								"box" : 								{
									"maxclass" : "comment",
									"text" : "no",
									"fontsize" : 18.0,
									"numinlets" : 1,
									"patching_rect" : [ 339.0, 89.0, 31.0, 27.0 ],
									"fontname" : "Arial",
									"id" : "obj-14",
									"numoutlets" : 0
								}

							}
, 							{
								"box" : 								{
									"maxclass" : "panel",
									"border" : 1,
									"numinlets" : 1,
									"bgcolor" : [ 0.505882, 0.231373, 1.0, 1.0 ],
									"patching_rect" : [ 322.0, 72.0, 64.0, 64.0 ],
									"id" : "obj-15",
									"numoutlets" : 0,
									"rounded" : 0
								}

							}
, 							{
								"box" : 								{
									"maxclass" : "comment",
									"text" : "rotation",
									"fontsize" : 14.0,
									"numinlets" : 1,
									"patching_rect" : [ 322.0, 45.0, 65.0, 23.0 ],
									"fontname" : "Arial",
									"id" : "obj-16",
									"numoutlets" : 0
								}

							}
, 							{
								"box" : 								{
									"maxclass" : "comment",
									"text" : "yes",
									"fontsize" : 18.0,
									"numinlets" : 1,
									"patching_rect" : [ 333.0, 327.0, 42.0, 27.0 ],
									"fontname" : "Arial",
									"id" : "obj-17",
									"numoutlets" : 0
								}

							}
, 							{
								"box" : 								{
									"maxclass" : "panel",
									"border" : 1,
									"numinlets" : 1,
									"bgcolor" : [ 0.980392, 1.0, 0.294118, 1.0 ],
									"patching_rect" : [ 322.0, 309.0, 64.0, 64.0 ],
									"id" : "obj-18",
									"numoutlets" : 0,
									"rounded" : 0
								}

							}
, 							{
								"box" : 								{
									"maxclass" : "comment",
									"text" : "yes",
									"fontsize" : 18.0,
									"numinlets" : 1,
									"patching_rect" : [ 333.0, 406.0, 42.0, 27.0 ],
									"fontname" : "Arial",
									"id" : "obj-19",
									"numoutlets" : 0
								}

							}
, 							{
								"box" : 								{
									"maxclass" : "panel",
									"border" : 1,
									"numinlets" : 1,
									"bgcolor" : [ 0.980392, 1.0, 0.294118, 1.0 ],
									"patching_rect" : [ 322.0, 388.0, 64.0, 64.0 ],
									"id" : "obj-20",
									"numoutlets" : 0,
									"rounded" : 0
								}

							}
, 							{
								"box" : 								{
									"maxclass" : "comment",
									"text" : "no",
									"fontsize" : 18.0,
									"numinlets" : 1,
									"patching_rect" : [ 497.0, 327.0, 31.0, 27.0 ],
									"fontname" : "Arial",
									"id" : "obj-21",
									"numoutlets" : 0
								}

							}
, 							{
								"box" : 								{
									"maxclass" : "panel",
									"border" : 1,
									"numinlets" : 1,
									"bgcolor" : [ 0.505882, 0.231373, 1.0, 1.0 ],
									"patching_rect" : [ 480.0, 310.0, 64.0, 64.0 ],
									"id" : "obj-22",
									"numoutlets" : 0,
									"rounded" : 0
								}

							}
, 							{
								"box" : 								{
									"maxclass" : "comment",
									"text" : "no",
									"fontsize" : 18.0,
									"numinlets" : 1,
									"patching_rect" : [ 497.0, 247.0, 31.0, 27.0 ],
									"fontname" : "Arial",
									"id" : "obj-23",
									"numoutlets" : 0
								}

							}
, 							{
								"box" : 								{
									"maxclass" : "panel",
									"border" : 1,
									"numinlets" : 1,
									"bgcolor" : [ 0.505882, 0.231373, 1.0, 1.0 ],
									"patching_rect" : [ 480.0, 231.0, 64.0, 64.0 ],
									"id" : "obj-24",
									"numoutlets" : 0,
									"rounded" : 0
								}

							}
, 							{
								"box" : 								{
									"maxclass" : "comment",
									"text" : "no",
									"fontsize" : 18.0,
									"numinlets" : 1,
									"patching_rect" : [ 497.0, 89.0, 31.0, 27.0 ],
									"fontname" : "Arial",
									"id" : "obj-25",
									"numoutlets" : 0
								}

							}
, 							{
								"box" : 								{
									"maxclass" : "panel",
									"border" : 1,
									"numinlets" : 1,
									"bgcolor" : [ 0.505882, 0.231373, 1.0, 1.0 ],
									"patching_rect" : [ 480.0, 73.0, 64.0, 64.0 ],
									"id" : "obj-26",
									"numoutlets" : 0,
									"rounded" : 0
								}

							}
, 							{
								"box" : 								{
									"maxclass" : "comment",
									"text" : "hardware accelerated",
									"linecount" : 2,
									"fontsize" : 14.0,
									"numinlets" : 1,
									"patching_rect" : [ 479.0, 27.0, 91.0, 39.0 ],
									"fontname" : "Arial",
									"id" : "obj-27",
									"numoutlets" : 0
								}

							}
, 							{
								"box" : 								{
									"maxclass" : "comment",
									"text" : "yes",
									"fontsize" : 18.0,
									"numinlets" : 1,
									"patching_rect" : [ 491.0, 406.0, 42.0, 27.0 ],
									"fontname" : "Arial",
									"id" : "obj-28",
									"numoutlets" : 0
								}

							}
, 							{
								"box" : 								{
									"maxclass" : "panel",
									"border" : 1,
									"numinlets" : 1,
									"bgcolor" : [ 0.980392, 1.0, 0.294118, 1.0 ],
									"patching_rect" : [ 480.0, 389.0, 64.0, 64.0 ],
									"id" : "obj-29",
									"numoutlets" : 0,
									"rounded" : 0
								}

							}
, 							{
								"box" : 								{
									"maxclass" : "comment",
									"text" : "no",
									"fontsize" : 18.0,
									"numinlets" : 1,
									"patching_rect" : [ 181.0, 327.0, 31.0, 27.0 ],
									"fontname" : "Arial",
									"id" : "obj-30",
									"numoutlets" : 0
								}

							}
, 							{
								"box" : 								{
									"maxclass" : "panel",
									"border" : 1,
									"numinlets" : 1,
									"bgcolor" : [ 0.505882, 0.231373, 1.0, 1.0 ],
									"patching_rect" : [ 164.0, 309.0, 64.0, 64.0 ],
									"id" : "obj-31",
									"numoutlets" : 0,
									"rounded" : 0
								}

							}
, 							{
								"box" : 								{
									"maxclass" : "comment",
									"text" : "no",
									"fontsize" : 18.0,
									"numinlets" : 1,
									"patching_rect" : [ 418.0, 327.0, 31.0, 27.0 ],
									"fontname" : "Arial",
									"id" : "obj-32",
									"numoutlets" : 0
								}

							}
, 							{
								"box" : 								{
									"maxclass" : "panel",
									"border" : 1,
									"numinlets" : 1,
									"bgcolor" : [ 0.505882, 0.231373, 1.0, 1.0 ],
									"patching_rect" : [ 401.0, 309.0, 64.0, 64.0 ],
									"id" : "obj-33",
									"numoutlets" : 0,
									"rounded" : 0
								}

							}
, 							{
								"box" : 								{
									"maxclass" : "comment",
									"text" : "yes",
									"fontsize" : 18.0,
									"numinlets" : 1,
									"patching_rect" : [ 181.0, 247.0, 42.0, 27.0 ],
									"fontname" : "Arial",
									"id" : "obj-34",
									"numoutlets" : 0
								}

							}
, 							{
								"box" : 								{
									"maxclass" : "panel",
									"border" : 1,
									"numinlets" : 1,
									"bgcolor" : [ 0.505882, 0.231373, 1.0, 1.0 ],
									"patching_rect" : [ 164.0, 230.0, 64.0, 64.0 ],
									"id" : "obj-35",
									"numoutlets" : 0,
									"rounded" : 0
								}

							}
, 							{
								"box" : 								{
									"maxclass" : "comment",
									"text" : "no",
									"fontsize" : 18.0,
									"numinlets" : 1,
									"patching_rect" : [ 257.0, 247.0, 31.0, 27.0 ],
									"fontname" : "Arial",
									"id" : "obj-36",
									"numoutlets" : 0
								}

							}
, 							{
								"box" : 								{
									"maxclass" : "panel",
									"border" : 1,
									"numinlets" : 1,
									"bgcolor" : [ 0.505882, 0.231373, 1.0, 1.0 ],
									"patching_rect" : [ 243.0, 230.0, 64.0, 64.0 ],
									"id" : "obj-37",
									"numoutlets" : 0,
									"rounded" : 0
								}

							}
, 							{
								"box" : 								{
									"maxclass" : "comment",
									"text" : "no",
									"fontsize" : 18.0,
									"numinlets" : 1,
									"patching_rect" : [ 181.0, 89.0, 31.0, 27.0 ],
									"fontname" : "Arial",
									"id" : "obj-38",
									"numoutlets" : 0
								}

							}
, 							{
								"box" : 								{
									"maxclass" : "panel",
									"border" : 1,
									"numinlets" : 1,
									"bgcolor" : [ 0.505882, 0.231373, 1.0, 1.0 ],
									"patching_rect" : [ 164.0, 72.0, 64.0, 64.0 ],
									"id" : "obj-39",
									"numoutlets" : 0,
									"rounded" : 0
								}

							}
, 							{
								"box" : 								{
									"maxclass" : "comment",
									"text" : "no",
									"fontsize" : 18.0,
									"numinlets" : 1,
									"patching_rect" : [ 418.0, 89.0, 31.0, 27.0 ],
									"fontname" : "Arial",
									"id" : "obj-40",
									"numoutlets" : 0
								}

							}
, 							{
								"box" : 								{
									"maxclass" : "panel",
									"border" : 1,
									"numinlets" : 1,
									"bgcolor" : [ 0.505882, 0.231373, 1.0, 1.0 ],
									"patching_rect" : [ 401.0, 72.0, 64.0, 64.0 ],
									"id" : "obj-41",
									"numoutlets" : 0,
									"rounded" : 0
								}

							}
, 							{
								"box" : 								{
									"maxclass" : "comment",
									"text" : "yes",
									"fontsize" : 18.0,
									"numinlets" : 1,
									"patching_rect" : [ 257.0, 89.0, 42.0, 27.0 ],
									"fontname" : "Arial",
									"id" : "obj-42",
									"numoutlets" : 0
								}

							}
, 							{
								"box" : 								{
									"maxclass" : "panel",
									"border" : 1,
									"numinlets" : 1,
									"bgcolor" : [ 0.980392, 1.0, 0.294118, 1.0 ],
									"patching_rect" : [ 243.0, 72.0, 64.0, 64.0 ],
									"id" : "obj-43",
									"numoutlets" : 0,
									"rounded" : 0
								}

							}
, 							{
								"box" : 								{
									"maxclass" : "comment",
									"text" : "tinting",
									"fontsize" : 14.0,
									"numinlets" : 1,
									"patching_rect" : [ 164.0, 44.0, 53.0, 23.0 ],
									"fontname" : "Arial",
									"id" : "obj-44",
									"numoutlets" : 0
								}

							}
, 							{
								"box" : 								{
									"maxclass" : "comment",
									"text" : "blending",
									"fontsize" : 14.0,
									"numinlets" : 1,
									"patching_rect" : [ 401.0, 45.0, 68.0, 23.0 ],
									"fontname" : "Arial",
									"id" : "obj-45",
									"numoutlets" : 0
								}

							}
, 							{
								"box" : 								{
									"maxclass" : "comment",
									"text" : "cropping/zooming",
									"linecount" : 2,
									"fontsize" : 14.0,
									"numinlets" : 1,
									"patching_rect" : [ 243.0, 27.0, 72.0, 39.0 ],
									"fontname" : "Arial",
									"id" : "obj-46",
									"numoutlets" : 0
								}

							}
, 							{
								"box" : 								{
									"maxclass" : "comment",
									"text" : "yes",
									"fontsize" : 18.0,
									"numinlets" : 1,
									"patching_rect" : [ 412.0, 247.0, 42.0, 27.0 ],
									"fontname" : "Arial",
									"id" : "obj-52",
									"numoutlets" : 0
								}

							}
, 							{
								"box" : 								{
									"maxclass" : "panel",
									"border" : 1,
									"numinlets" : 1,
									"bgcolor" : [ 0.980392, 1.0, 0.294118, 1.0 ],
									"patching_rect" : [ 401.0, 230.0, 64.0, 64.0 ],
									"id" : "obj-53",
									"numoutlets" : 0,
									"rounded" : 0
								}

							}
, 							{
								"box" : 								{
									"maxclass" : "comment",
									"text" : "yes",
									"fontsize" : 18.0,
									"numinlets" : 1,
									"patching_rect" : [ 257.0, 327.0, 42.0, 27.0 ],
									"fontname" : "Arial",
									"id" : "obj-54",
									"numoutlets" : 0
								}

							}
, 							{
								"box" : 								{
									"maxclass" : "panel",
									"border" : 1,
									"numinlets" : 1,
									"bgcolor" : [ 0.980392, 1.0, 0.294118, 1.0 ],
									"patching_rect" : [ 243.0, 309.0, 64.0, 64.0 ],
									"id" : "obj-55",
									"numoutlets" : 0,
									"rounded" : 0
								}

							}
, 							{
								"box" : 								{
									"maxclass" : "comment",
									"text" : "yes",
									"fontsize" : 18.0,
									"numinlets" : 1,
									"patching_rect" : [ 175.0, 406.0, 42.0, 27.0 ],
									"fontname" : "Arial",
									"id" : "obj-56",
									"numoutlets" : 0
								}

							}
, 							{
								"box" : 								{
									"maxclass" : "panel",
									"border" : 1,
									"numinlets" : 1,
									"bgcolor" : [ 0.980392, 1.0, 0.294118, 1.0 ],
									"patching_rect" : [ 164.0, 388.0, 64.0, 64.0 ],
									"id" : "obj-57",
									"numoutlets" : 0,
									"rounded" : 0
								}

							}
, 							{
								"box" : 								{
									"maxclass" : "comment",
									"text" : "yes",
									"fontsize" : 18.0,
									"numinlets" : 1,
									"patching_rect" : [ 412.0, 406.0, 42.0, 27.0 ],
									"fontname" : "Arial",
									"id" : "obj-58",
									"numoutlets" : 0
								}

							}
, 							{
								"box" : 								{
									"maxclass" : "panel",
									"border" : 1,
									"numinlets" : 1,
									"bgcolor" : [ 0.980392, 1.0, 0.294118, 1.0 ],
									"patching_rect" : [ 401.0, 388.0, 64.0, 64.0 ],
									"id" : "obj-59",
									"numoutlets" : 0,
									"rounded" : 0
								}

							}
, 							{
								"box" : 								{
									"maxclass" : "comment",
									"text" : "yes",
									"fontsize" : 18.0,
									"numinlets" : 1,
									"patching_rect" : [ 257.0, 406.0, 42.0, 27.0 ],
									"fontname" : "Arial",
									"id" : "obj-60",
									"numoutlets" : 0
								}

							}
, 							{
								"box" : 								{
									"maxclass" : "panel",
									"border" : 1,
									"numinlets" : 1,
									"bgcolor" : [ 0.980392, 1.0, 0.294118, 1.0 ],
									"patching_rect" : [ 243.0, 388.0, 64.0, 64.0 ],
									"id" : "obj-61",
									"numoutlets" : 0,
									"rounded" : 0
								}

							}
, 							{
								"box" : 								{
									"maxclass" : "comment",
									"text" : "jit.scalebias\njit.brcosa\njit.hue",
									"linecount" : 3,
									"fontsize" : 18.0,
									"numinlets" : 1,
									"patching_rect" : [ 52.0, 152.0, 152.0, 69.0 ],
									"fontname" : "Arial",
									"id" : "obj-11",
									"numoutlets" : 0
								}

							}
, 							{
								"box" : 								{
									"maxclass" : "comment",
									"text" : "jit.gl.videoplane",
									"fontsize" : 18.0,
									"numinlets" : 1,
									"patching_rect" : [ 22.0, 406.0, 146.0, 27.0 ],
									"fontname" : "Arial",
									"id" : "obj-48",
									"numoutlets" : 0
								}

							}
, 							{
								"box" : 								{
									"maxclass" : "comment",
									"text" : "jit.rota\njit.mxform2d",
									"linecount" : 2,
									"fontsize" : 18.0,
									"numinlets" : 1,
									"patching_rect" : [ 47.0, 317.0, 193.0, 48.0 ],
									"fontname" : "Arial",
									"id" : "obj-49",
									"numoutlets" : 0
								}

							}
, 							{
								"box" : 								{
									"maxclass" : "comment",
									"text" : "jit.lcd\njit.op\njit.alphablend",
									"linecount" : 3,
									"fontsize" : 18.0,
									"numinlets" : 1,
									"patching_rect" : [ 39.0, 231.0, 233.0, 69.0 ],
									"fontname" : "Arial",
									"id" : "obj-50",
									"numoutlets" : 0
								}

							}
, 							{
								"box" : 								{
									"maxclass" : "comment",
									"text" : "jit.matrix",
									"fontsize" : 18.0,
									"numinlets" : 1,
									"patching_rect" : [ 78.0, 89.0, 94.0, 27.0 ],
									"fontname" : "Arial",
									"id" : "obj-51",
									"numoutlets" : 0
								}

							}
 ],
						"lines" : [  ]
					}
,
					"saved_object_attributes" : 					{
						"globalpatchername" : "",
						"fontface" : 0,
						"fontsize" : 12.0,
						"default_fontface" : 0,
						"default_fontname" : "Arial",
						"fontname" : "Arial",
						"default_fontsize" : 12.0
					}

				}

			}
, 			{
				"box" : 				{
					"maxclass" : "flonum",
					"outlettype" : [ "float", "bang" ],
					"fontsize" : 12.0,
					"triscale" : 0.9,
					"numinlets" : 1,
					"bgcolor" : [ 0.866667, 0.866667, 0.866667, 1.0 ],
					"patching_rect" : [ 662.0, 115.0, 57.0, 20.0 ],
					"fontname" : "Arial",
					"id" : "obj-1",
					"htextcolor" : [ 0.870588, 0.870588, 0.870588, 1.0 ],
					"numoutlets" : 2
				}

			}
, 			{
				"box" : 				{
					"maxclass" : "newobj",
					"text" : "expr ($f1/360.)*6.283185",
					"outlettype" : [ "" ],
					"fontsize" : 12.0,
					"numinlets" : 1,
					"patching_rect" : [ 723.0, 330.0, 177.0, 20.0 ],
					"fontname" : "Arial",
					"id" : "obj-7",
					"numoutlets" : 1
				}

			}
, 			{
				"box" : 				{
					"maxclass" : "flonum",
					"outlettype" : [ "float", "bang" ],
					"fontsize" : 12.0,
					"triscale" : 0.9,
					"numinlets" : 1,
					"bgcolor" : [ 0.866667, 0.866667, 0.866667, 1.0 ],
					"patching_rect" : [ 723.0, 302.0, 40.0, 20.0 ],
					"fontname" : "Arial",
					"id" : "obj-8",
					"htextcolor" : [ 0.870588, 0.870588, 0.870588, 1.0 ],
					"numoutlets" : 2
				}

			}
, 			{
				"box" : 				{
					"maxclass" : "flonum",
					"outlettype" : [ "float", "bang" ],
					"fontsize" : 12.0,
					"triscale" : 0.9,
					"numinlets" : 1,
					"bgcolor" : [ 0.866667, 0.866667, 0.866667, 1.0 ],
					"patching_rect" : [ 723.0, 358.0, 51.0, 20.0 ],
					"fontname" : "Arial",
					"id" : "obj-9",
					"htextcolor" : [ 0.870588, 0.870588, 0.870588, 1.0 ],
					"numoutlets" : 2
				}

			}
, 			{
				"box" : 				{
					"maxclass" : "message",
					"text" : "theta $1",
					"outlettype" : [ "" ],
					"fontsize" : 12.0,
					"numinlets" : 2,
					"patching_rect" : [ 723.0, 386.0, 58.0, 18.0 ],
					"fontname" : "Arial",
					"id" : "obj-10",
					"numoutlets" : 1
				}

			}
, 			{
				"box" : 				{
					"maxclass" : "button",
					"outlettype" : [ "bang" ],
					"numinlets" : 1,
					"patching_rect" : [ 221.0, 110.0, 22.0, 22.0 ],
					"id" : "obj-11",
					"numoutlets" : 1
				}

			}
, 			{
				"box" : 				{
					"maxclass" : "number",
					"outlettype" : [ "int", "bang" ],
					"triangle" : 0,
					"fontsize" : 12.0,
					"triscale" : 0.9,
					"numinlets" : 1,
					"bgcolor" : [ 0.866667, 0.866667, 0.866667, 1.0 ],
					"patching_rect" : [ 88.0, 83.0, 57.0, 20.0 ],
					"fontname" : "Arial",
					"id" : "obj-12",
					"htextcolor" : [ 0.870588, 0.870588, 0.870588, 1.0 ],
					"numoutlets" : 2
				}

			}
, 			{
				"box" : 				{
					"maxclass" : "flonum",
					"outlettype" : [ "float", "bang" ],
					"triangle" : 0,
					"fontsize" : 12.0,
					"triscale" : 0.9,
					"numinlets" : 1,
					"bgcolor" : [ 0.866667, 0.866667, 0.866667, 1.0 ],
					"patching_rect" : [ 149.0, 83.0, 35.0, 20.0 ],
					"fontname" : "Arial",
					"id" : "obj-13",
					"htextcolor" : [ 0.870588, 0.870588, 0.870588, 1.0 ],
					"numoutlets" : 2
				}

			}
, 			{
				"box" : 				{
					"maxclass" : "message",
					"text" : "rate $1",
					"outlettype" : [ "" ],
					"fontsize" : 12.0,
					"numinlets" : 2,
					"patching_rect" : [ 149.0, 109.0, 64.0, 18.0 ],
					"fontname" : "Arial",
					"id" : "obj-14",
					"numoutlets" : 1
				}

			}
, 			{
				"box" : 				{
					"maxclass" : "jit.fpsgui",
					"outlettype" : [ "", "" ],
					"bordercolor" : [ 0.015686, 0.015686, 0.015686, 1.0 ],
					"fontsize" : 12.0,
					"bgcolor2" : [ 0.098039, 0.098039, 0.098039, 1.0 ],
					"numinlets" : 1,
					"bgcolor" : [ 0.376471, 0.0, 0.0, 1.0 ],
					"patching_rect" : [ 307.0, 727.0, 60.0, 36.0 ],
					"fontname" : "Arial",
					"id" : "obj-15",
					"htextcolor" : [ 0.015686, 0.015686, 0.015686, 1.0 ],
					"numoutlets" : 2,
					"textcolor" : [ 1.0, 1.0, 1.0, 1.0 ]
				}

			}
, 			{
				"box" : 				{
					"maxclass" : "jit.pwindow",
					"outlettype" : [ "", "" ],
					"depthbuffer" : 0,
					"interp" : 1,
					"numinlets" : 1,
					"patching_rect" : [ 307.0, 481.0, 320.0, 240.0 ],
					"id" : "obj-16",
					"numoutlets" : 2
				}

			}
, 			{
				"box" : 				{
					"maxclass" : "toggle",
					"outlettype" : [ "int" ],
					"numinlets" : 1,
					"patching_rect" : [ 34.0, 77.0, 22.0, 22.0 ],
					"id" : "obj-17",
					"numoutlets" : 1
				}

			}
, 			{
				"box" : 				{
					"maxclass" : "newobj",
					"text" : "metro 33.3",
					"outlettype" : [ "bang" ],
					"fontsize" : 12.0,
					"numinlets" : 2,
					"patching_rect" : [ 34.0, 109.0, 68.0, 20.0 ],
					"fontname" : "Arial",
					"id" : "obj-18",
					"numoutlets" : 1
				}

			}
, 			{
				"box" : 				{
					"maxclass" : "message",
					"text" : "read",
					"outlettype" : [ "" ],
					"fontsize" : 12.0,
					"numinlets" : 2,
					"patching_rect" : [ 106.0, 109.0, 40.0, 18.0 ],
					"fontname" : "Arial",
					"id" : "obj-19",
					"numoutlets" : 1
				}

			}
, 			{
				"box" : 				{
					"maxclass" : "newobj",
					"text" : "jit.qt.movie 360 240",
					"outlettype" : [ "jit_matrix", "" ],
					"fontsize" : 12.0,
					"numinlets" : 1,
					"patching_rect" : [ 85.0, 142.0, 149.0, 20.0 ],
					"fontname" : "Arial",
					"id" : "obj-20",
					"numoutlets" : 2
				}

			}
, 			{
				"box" : 				{
					"maxclass" : "message",
					"text" : "0",
					"outlettype" : [ "" ],
					"fontsize" : 12.0,
					"numinlets" : 2,
					"patching_rect" : [ 303.0, 90.0, 66.0, 18.0 ],
					"fontname" : "Arial",
					"hidden" : 1,
					"id" : "obj-21",
					"numoutlets" : 1
				}

			}
, 			{
				"box" : 				{
					"maxclass" : "number",
					"minimum" : 0,
					"outlettype" : [ "int", "bang" ],
					"fontsize" : 12.0,
					"maximum" : 4,
					"triscale" : 0.9,
					"numinlets" : 1,
					"bgcolor" : [ 0.866667, 0.866667, 0.866667, 1.0 ],
					"patching_rect" : [ 451.0, 279.0, 47.0, 20.0 ],
					"fontname" : "Arial",
					"id" : "obj-22",
					"htextcolor" : [ 0.870588, 0.870588, 0.870588, 1.0 ],
					"numoutlets" : 2
				}

			}
, 			{
				"box" : 				{
					"maxclass" : "message",
					"text" : "boundmode $1",
					"outlettype" : [ "" ],
					"fontsize" : 12.0,
					"numinlets" : 2,
					"patching_rect" : [ 451.0, 309.0, 102.0, 18.0 ],
					"fontname" : "Arial",
					"id" : "obj-23",
					"numoutlets" : 1
				}

			}
, 			{
				"box" : 				{
					"maxclass" : "message",
					"text" : "0",
					"outlettype" : [ "" ],
					"fontsize" : 12.0,
					"numinlets" : 2,
					"patching_rect" : [ 301.0, 133.0, 66.0, 18.0 ],
					"fontname" : "Arial",
					"hidden" : 1,
					"id" : "obj-24",
					"numoutlets" : 1
				}

			}
, 			{
				"box" : 				{
					"maxclass" : "message",
					"text" : "1",
					"outlettype" : [ "" ],
					"fontsize" : 12.0,
					"numinlets" : 2,
					"patching_rect" : [ 304.0, 175.0, 66.0, 18.0 ],
					"fontname" : "Arial",
					"hidden" : 1,
					"id" : "obj-25",
					"numoutlets" : 1
				}

			}
, 			{
				"box" : 				{
					"maxclass" : "newobj",
					"text" : "loadbang",
					"outlettype" : [ "bang" ],
					"fontsize" : 12.0,
					"numinlets" : 1,
					"patching_rect" : [ 108.0, 22.0, 97.0, 20.0 ],
					"fontname" : "Arial",
					"hidden" : 1,
					"id" : "obj-26",
					"numoutlets" : 1
				}

			}
, 			{
				"box" : 				{
					"maxclass" : "message",
					"text" : "interp $1",
					"outlettype" : [ "" ],
					"fontsize" : 12.0,
					"numinlets" : 2,
					"patching_rect" : [ 212.0, 429.0, 81.0, 18.0 ],
					"fontname" : "Arial",
					"id" : "obj-27",
					"numoutlets" : 1
				}

			}
, 			{
				"box" : 				{
					"maxclass" : "toggle",
					"outlettype" : [ "int" ],
					"numinlets" : 1,
					"patching_rect" : [ 212.0, 402.0, 19.0, 19.0 ],
					"id" : "obj-28",
					"numoutlets" : 1
				}

			}
, 			{
				"box" : 				{
					"maxclass" : "message",
					"text" : "120",
					"outlettype" : [ "" ],
					"fontsize" : 12.0,
					"numinlets" : 2,
					"patching_rect" : [ 548.0, 54.0, 78.0, 18.0 ],
					"fontname" : "Arial",
					"hidden" : 1,
					"id" : "obj-29",
					"numoutlets" : 1
				}

			}
, 			{
				"box" : 				{
					"maxclass" : "message",
					"text" : "160",
					"outlettype" : [ "" ],
					"fontsize" : 12.0,
					"numinlets" : 2,
					"patching_rect" : [ 451.0, 54.0, 78.0, 18.0 ],
					"fontname" : "Arial",
					"hidden" : 1,
					"id" : "obj-30",
					"numoutlets" : 1
				}

			}
, 			{
				"box" : 				{
					"maxclass" : "number",
					"outlettype" : [ "int", "bang" ],
					"fontsize" : 12.0,
					"triscale" : 0.9,
					"numinlets" : 1,
					"bgcolor" : [ 0.866667, 0.866667, 0.866667, 1.0 ],
					"patching_rect" : [ 550.0, 216.0, 47.0, 20.0 ],
					"fontname" : "Arial",
					"id" : "obj-31",
					"htextcolor" : [ 0.870588, 0.870588, 0.870588, 1.0 ],
					"numoutlets" : 2
				}

			}
, 			{
				"box" : 				{
					"maxclass" : "number",
					"outlettype" : [ "int", "bang" ],
					"fontsize" : 12.0,
					"triscale" : 0.9,
					"numinlets" : 1,
					"bgcolor" : [ 0.866667, 0.866667, 0.866667, 1.0 ],
					"patching_rect" : [ 451.0, 216.0, 47.0, 20.0 ],
					"fontname" : "Arial",
					"id" : "obj-32",
					"htextcolor" : [ 0.870588, 0.870588, 0.870588, 1.0 ],
					"numoutlets" : 2
				}

			}
, 			{
				"box" : 				{
					"maxclass" : "message",
					"text" : "offset_y $1",
					"outlettype" : [ "" ],
					"fontsize" : 12.0,
					"numinlets" : 2,
					"patching_rect" : [ 550.0, 246.0, 93.0, 18.0 ],
					"fontname" : "Arial",
					"id" : "obj-33",
					"numoutlets" : 1
				}

			}
, 			{
				"box" : 				{
					"maxclass" : "message",
					"text" : "offset_x $1",
					"outlettype" : [ "" ],
					"fontsize" : 12.0,
					"numinlets" : 2,
					"patching_rect" : [ 451.0, 246.0, 93.0, 18.0 ],
					"fontname" : "Arial",
					"id" : "obj-34",
					"numoutlets" : 1
				}

			}
, 			{
				"box" : 				{
					"maxclass" : "flonum",
					"outlettype" : [ "float", "bang" ],
					"fontsize" : 12.0,
					"triscale" : 0.9,
					"numinlets" : 1,
					"bgcolor" : [ 0.866667, 0.866667, 0.866667, 1.0 ],
					"patching_rect" : [ 550.0, 150.0, 57.0, 20.0 ],
					"fontname" : "Arial",
					"id" : "obj-35",
					"htextcolor" : [ 0.870588, 0.870588, 0.870588, 1.0 ],
					"numoutlets" : 2
				}

			}
, 			{
				"box" : 				{
					"maxclass" : "flonum",
					"outlettype" : [ "float", "bang" ],
					"fontsize" : 12.0,
					"triscale" : 0.9,
					"numinlets" : 1,
					"bgcolor" : [ 0.866667, 0.866667, 0.866667, 1.0 ],
					"patching_rect" : [ 451.0, 150.0, 57.0, 20.0 ],
					"fontname" : "Arial",
					"id" : "obj-36",
					"htextcolor" : [ 0.870588, 0.870588, 0.870588, 1.0 ],
					"numoutlets" : 2
				}

			}
, 			{
				"box" : 				{
					"maxclass" : "message",
					"text" : "zoom_y $1",
					"outlettype" : [ "" ],
					"fontsize" : 12.0,
					"numinlets" : 2,
					"patching_rect" : [ 550.0, 180.0, 89.0, 18.0 ],
					"fontname" : "Arial",
					"id" : "obj-37",
					"numoutlets" : 1
				}

			}
, 			{
				"box" : 				{
					"maxclass" : "message",
					"text" : "zoom_x $1",
					"outlettype" : [ "" ],
					"fontsize" : 12.0,
					"numinlets" : 2,
					"patching_rect" : [ 451.0, 180.0, 89.0, 18.0 ],
					"fontname" : "Arial",
					"id" : "obj-38",
					"numoutlets" : 1
				}

			}
, 			{
				"box" : 				{
					"maxclass" : "number",
					"outlettype" : [ "int", "bang" ],
					"fontsize" : 12.0,
					"triscale" : 0.9,
					"numinlets" : 1,
					"bgcolor" : [ 0.866667, 0.866667, 0.866667, 1.0 ],
					"patching_rect" : [ 550.0, 83.0, 47.0, 20.0 ],
					"fontname" : "Arial",
					"id" : "obj-39",
					"htextcolor" : [ 0.870588, 0.870588, 0.870588, 1.0 ],
					"numoutlets" : 2
				}

			}
, 			{
				"box" : 				{
					"maxclass" : "number",
					"outlettype" : [ "int", "bang" ],
					"fontsize" : 12.0,
					"triscale" : 0.9,
					"numinlets" : 1,
					"bgcolor" : [ 0.866667, 0.866667, 0.866667, 1.0 ],
					"patching_rect" : [ 451.0, 83.0, 47.0, 20.0 ],
					"fontname" : "Arial",
					"id" : "obj-40",
					"htextcolor" : [ 0.870588, 0.870588, 0.870588, 1.0 ],
					"numoutlets" : 2
				}

			}
, 			{
				"box" : 				{
					"maxclass" : "message",
					"text" : "anchor_y $1",
					"outlettype" : [ "" ],
					"fontsize" : 12.0,
					"numinlets" : 2,
					"patching_rect" : [ 550.0, 108.0, 96.0, 18.0 ],
					"fontname" : "Arial",
					"id" : "obj-41",
					"numoutlets" : 1
				}

			}
, 			{
				"box" : 				{
					"maxclass" : "message",
					"text" : "anchor_x $1",
					"outlettype" : [ "" ],
					"fontsize" : 12.0,
					"numinlets" : 2,
					"patching_rect" : [ 451.0, 108.0, 96.0, 18.0 ],
					"fontname" : "Arial",
					"id" : "obj-42",
					"numoutlets" : 1
				}

			}
, 			{
				"box" : 				{
					"maxclass" : "comment",
					"text" : "0=ignore(default);\r1=clear;\r2=wrap;\r3=clip;\r4=fold;\r",
					"linecount" : 5,
					"fontsize" : 12.0,
					"numinlets" : 1,
					"patching_rect" : [ 556.0, 310.0, 142.0, 75.0 ],
					"fontname" : "Arial",
					"id" : "obj-43",
					"numoutlets" : 0
				}

			}
, 			{
				"box" : 				{
					"maxclass" : "newobj",
					"text" : "jit.rota @zoom_x 1. @zoom_y 1.",
					"outlettype" : [ "jit_matrix", "" ],
					"fontsize" : 12.0,
					"numinlets" : 1,
					"patching_rect" : [ 307.0, 428.0, 185.0, 20.0 ],
					"fontname" : "Arial",
					"id" : "obj-44",
					"numoutlets" : 2
				}

			}
 ],
		"lines" : [ 			{
				"patchline" : 				{
					"source" : [ "obj-44", 0 ],
					"destination" : [ "obj-3", 0 ],
					"hidden" : 0,
					"midpoints" : [  ]
				}

			}
, 			{
				"patchline" : 				{
					"source" : [ "obj-3", 0 ],
					"destination" : [ "obj-16", 0 ],
					"hidden" : 0,
					"midpoints" : [  ]
				}

			}
, 			{
				"patchline" : 				{
					"source" : [ "obj-12", 0 ],
					"destination" : [ "obj-18", 1 ],
					"hidden" : 0,
					"midpoints" : [  ]
				}

			}
, 			{
				"patchline" : 				{
					"source" : [ "obj-18", 0 ],
					"destination" : [ "obj-20", 0 ],
					"hidden" : 0,
					"midpoints" : [ 43.5, 138.0, 94.5, 138.0 ]
				}

			}
, 			{
				"patchline" : 				{
					"source" : [ "obj-17", 0 ],
					"destination" : [ "obj-18", 0 ],
					"hidden" : 0,
					"midpoints" : [  ]
				}

			}
, 			{
				"patchline" : 				{
					"source" : [ "obj-14", 0 ],
					"destination" : [ "obj-20", 0 ],
					"hidden" : 0,
					"midpoints" : [ 158.5, 138.0, 94.5, 138.0 ]
				}

			}
, 			{
				"patchline" : 				{
					"source" : [ "obj-19", 0 ],
					"destination" : [ "obj-20", 0 ],
					"hidden" : 0,
					"midpoints" : [ 115.5, 138.0, 94.5, 138.0 ]
				}

			}
, 			{
				"patchline" : 				{
					"source" : [ "obj-11", 0 ],
					"destination" : [ "obj-20", 0 ],
					"hidden" : 0,
					"midpoints" : [ 230.5, 138.0, 94.5, 138.0 ]
				}

			}
, 			{
				"patchline" : 				{
					"source" : [ "obj-13", 0 ],
					"destination" : [ "obj-14", 0 ],
					"hidden" : 0,
					"midpoints" : [  ]
				}

			}
, 			{
				"patchline" : 				{
					"source" : [ "obj-26", 0 ],
					"destination" : [ "obj-24", 0 ],
					"hidden" : 1,
					"midpoints" : [  ]
				}

			}
, 			{
				"patchline" : 				{
					"source" : [ "obj-26", 0 ],
					"destination" : [ "obj-21", 0 ],
					"hidden" : 1,
					"midpoints" : [  ]
				}

			}
, 			{
				"patchline" : 				{
					"source" : [ "obj-26", 0 ],
					"destination" : [ "obj-25", 0 ],
					"hidden" : 1,
					"midpoints" : [  ]
				}

			}
, 			{
				"patchline" : 				{
					"source" : [ "obj-16", 0 ],
					"destination" : [ "obj-15", 0 ],
					"hidden" : 0,
					"color" : [ 0.4, 0.4, 0.8, 1.0 ],
					"midpoints" : [  ]
				}

			}
, 			{
				"patchline" : 				{
					"source" : [ "obj-26", 0 ],
					"destination" : [ "obj-30", 0 ],
					"hidden" : 1,
					"midpoints" : [  ]
				}

			}
, 			{
				"patchline" : 				{
					"source" : [ "obj-30", 0 ],
					"destination" : [ "obj-40", 0 ],
					"hidden" : 1,
					"midpoints" : [  ]
				}

			}
, 			{
				"patchline" : 				{
					"source" : [ "obj-40", 0 ],
					"destination" : [ "obj-42", 0 ],
					"hidden" : 0,
					"midpoints" : [  ]
				}

			}
, 			{
				"patchline" : 				{
					"source" : [ "obj-1", 0 ],
					"destination" : [ "obj-36", 0 ],
					"hidden" : 0,
					"midpoints" : [ 671.5, 140.0, 460.5, 140.0 ]
				}

			}
, 			{
				"patchline" : 				{
					"source" : [ "obj-21", 0 ],
					"destination" : [ "obj-36", 0 ],
					"hidden" : 1,
					"midpoints" : [  ]
				}

			}
, 			{
				"patchline" : 				{
					"source" : [ "obj-36", 0 ],
					"destination" : [ "obj-38", 0 ],
					"hidden" : 0,
					"midpoints" : [  ]
				}

			}
, 			{
				"patchline" : 				{
					"source" : [ "obj-24", 0 ],
					"destination" : [ "obj-32", 0 ],
					"hidden" : 1,
					"midpoints" : [  ]
				}

			}
, 			{
				"patchline" : 				{
					"source" : [ "obj-32", 0 ],
					"destination" : [ "obj-34", 0 ],
					"hidden" : 0,
					"midpoints" : [  ]
				}

			}
, 			{
				"patchline" : 				{
					"source" : [ "obj-25", 0 ],
					"destination" : [ "obj-28", 0 ],
					"hidden" : 1,
					"midpoints" : [  ]
				}

			}
, 			{
				"patchline" : 				{
					"source" : [ "obj-28", 0 ],
					"destination" : [ "obj-27", 0 ],
					"hidden" : 0,
					"midpoints" : [  ]
				}

			}
, 			{
				"patchline" : 				{
					"source" : [ "obj-26", 0 ],
					"destination" : [ "obj-29", 0 ],
					"hidden" : 1,
					"midpoints" : [ 117.5, 49.0, 557.5, 49.0 ]
				}

			}
, 			{
				"patchline" : 				{
					"source" : [ "obj-29", 0 ],
					"destination" : [ "obj-39", 0 ],
					"hidden" : 1,
					"midpoints" : [  ]
				}

			}
, 			{
				"patchline" : 				{
					"source" : [ "obj-39", 0 ],
					"destination" : [ "obj-41", 0 ],
					"hidden" : 0,
					"midpoints" : [  ]
				}

			}
, 			{
				"patchline" : 				{
					"source" : [ "obj-1", 0 ],
					"destination" : [ "obj-35", 0 ],
					"hidden" : 0,
					"midpoints" : [ 671.5, 140.0, 559.5, 140.0 ]
				}

			}
, 			{
				"patchline" : 				{
					"source" : [ "obj-21", 0 ],
					"destination" : [ "obj-35", 0 ],
					"hidden" : 1,
					"midpoints" : [  ]
				}

			}
, 			{
				"patchline" : 				{
					"source" : [ "obj-35", 0 ],
					"destination" : [ "obj-37", 0 ],
					"hidden" : 0,
					"midpoints" : [  ]
				}

			}
, 			{
				"patchline" : 				{
					"source" : [ "obj-24", 0 ],
					"destination" : [ "obj-31", 0 ],
					"hidden" : 1,
					"midpoints" : [  ]
				}

			}
, 			{
				"patchline" : 				{
					"source" : [ "obj-31", 0 ],
					"destination" : [ "obj-33", 0 ],
					"hidden" : 0,
					"midpoints" : [  ]
				}

			}
, 			{
				"patchline" : 				{
					"source" : [ "obj-25", 0 ],
					"destination" : [ "obj-22", 0 ],
					"hidden" : 1,
					"midpoints" : [  ]
				}

			}
, 			{
				"patchline" : 				{
					"source" : [ "obj-22", 0 ],
					"destination" : [ "obj-23", 0 ],
					"hidden" : 0,
					"midpoints" : [  ]
				}

			}
, 			{
				"patchline" : 				{
					"source" : [ "obj-7", 0 ],
					"destination" : [ "obj-9", 0 ],
					"hidden" : 0,
					"midpoints" : [ 732.5, 353.5, 732.5, 353.5 ]
				}

			}
, 			{
				"patchline" : 				{
					"source" : [ "obj-9", 0 ],
					"destination" : [ "obj-10", 0 ],
					"hidden" : 0,
					"midpoints" : [  ]
				}

			}
, 			{
				"patchline" : 				{
					"source" : [ "obj-8", 0 ],
					"destination" : [ "obj-7", 0 ],
					"hidden" : 0,
					"midpoints" : [  ]
				}

			}
, 			{
				"patchline" : 				{
					"source" : [ "obj-20", 0 ],
					"destination" : [ "obj-44", 0 ],
					"hidden" : 0,
					"midpoints" : [ 94.5, 347.0, 316.5, 347.0 ]
				}

			}
, 			{
				"patchline" : 				{
					"source" : [ "obj-41", 0 ],
					"destination" : [ "obj-44", 0 ],
					"hidden" : 0,
					"midpoints" : [ 559.5, 140.0, 316.5, 140.0 ]
				}

			}
, 			{
				"patchline" : 				{
					"source" : [ "obj-42", 0 ],
					"destination" : [ "obj-44", 0 ],
					"hidden" : 0,
					"midpoints" : [ 460.5, 140.0, 316.5, 140.0 ]
				}

			}
, 			{
				"patchline" : 				{
					"source" : [ "obj-37", 0 ],
					"destination" : [ "obj-44", 0 ],
					"hidden" : 0,
					"midpoints" : [ 559.5, 205.0, 316.5, 205.0 ]
				}

			}
, 			{
				"patchline" : 				{
					"source" : [ "obj-38", 0 ],
					"destination" : [ "obj-44", 0 ],
					"hidden" : 0,
					"midpoints" : [ 460.5, 205.0, 316.5, 205.0 ]
				}

			}
, 			{
				"patchline" : 				{
					"source" : [ "obj-33", 0 ],
					"destination" : [ "obj-44", 0 ],
					"hidden" : 0,
					"midpoints" : [ 559.5, 270.0, 316.5, 270.0 ]
				}

			}
, 			{
				"patchline" : 				{
					"source" : [ "obj-34", 0 ],
					"destination" : [ "obj-44", 0 ],
					"hidden" : 0,
					"midpoints" : [ 460.5, 270.0, 316.5, 270.0 ]
				}

			}
, 			{
				"patchline" : 				{
					"source" : [ "obj-23", 0 ],
					"destination" : [ "obj-44", 0 ],
					"hidden" : 0,
					"midpoints" : [ 460.5, 346.0, 316.5, 346.0 ]
				}

			}
, 			{
				"patchline" : 				{
					"source" : [ "obj-10", 0 ],
					"destination" : [ "obj-44", 0 ],
					"hidden" : 0,
					"midpoints" : [ 732.5, 415.5, 316.5, 415.5 ]
				}

			}
, 			{
				"patchline" : 				{
					"source" : [ "obj-27", 0 ],
					"destination" : [ "obj-16", 0 ],
					"hidden" : 0,
					"midpoints" : [ 221.5, 463.5, 316.5, 463.5 ]
				}

			}
 ]
	}

}
