{
	"patcher" : 	{
		"fileversion" : 1,
		"rect" : [ 50.0, 94.0, 689.0, 301.0 ],
		"bglocked" : 0,
		"defrect" : [ 50.0, 94.0, 689.0, 301.0 ],
		"openrect" : [ 0.0, 0.0, 0.0, 0.0 ],
		"openinpresentation" : 0,
		"default_fontsize" : 12.0,
		"default_fontface" : 0,
		"default_fontname" : "Arial",
		"gridonopen" : 0,
		"gridsize" : [ 8.0, 8.0 ],
		"gridsnaponopen" : 0,
		"toolbarvisible" : 1,
		"boxanimatetime" : 200,
		"imprint" : 0,
		"enablehscroll" : 1,
		"enablevscroll" : 1,
		"devicewidth" : 0.0,
		"boxes" : [ 			{
				"box" : 				{
					"maxclass" : "toggle",
					"numoutlets" : 1,
					"outlettype" : [ "int" ],
					"id" : "obj-4",
					"patching_rect" : [ 20.0, 225.0, 20.0, 20.0 ],
					"numinlets" : 1
				}

			}
, 			{
				"box" : 				{
					"maxclass" : "newobj",
					"text" : "transport",
					"numoutlets" : 9,
					"outlettype" : [ "int", "int", "float", "float", "float", "", "int", "float", "" ],
					"id" : "obj-1",
					"fontname" : "Arial",
					"patching_rect" : [ 20.0, 254.0, 127.0, 20.0 ],
					"fontsize" : 12.0,
					"numinlets" : 2
				}

			}
, 			{
				"box" : 				{
					"maxclass" : "newobj",
					"text" : "p serial_row",
					"numoutlets" : 2,
					"outlettype" : [ "float", "float" ],
					"id" : "obj-175",
					"fontname" : "Arial",
					"patching_rect" : [ 480.0, 92.0, 120.0, 20.0 ],
					"fontsize" : 12.0,
					"numinlets" : 2,
					"patcher" : 					{
						"fileversion" : 1,
						"rect" : [ 100.0, 144.0, 651.0, 622.0 ],
						"bglocked" : 0,
						"defrect" : [ 100.0, 144.0, 651.0, 622.0 ],
						"openrect" : [ 0.0, 0.0, 0.0, 0.0 ],
						"openinpresentation" : 0,
						"default_fontsize" : 12.0,
						"default_fontface" : 0,
						"default_fontname" : "Arial",
						"gridonopen" : 0,
						"gridsize" : [ 8.0, 8.0 ],
						"gridsnaponopen" : 0,
						"toolbarvisible" : 1,
						"boxanimatetime" : 200,
						"imprint" : 0,
						"enablehscroll" : 1,
						"enablevscroll" : 1,
						"devicewidth" : 0.0,
						"boxes" : [ 							{
								"box" : 								{
									"maxclass" : "comment",
									"text" : "< The trigger objects resets the urn objects and resets the counter as well as starting things off....",
									"numoutlets" : 0,
									"id" : "obj-122",
									"fontname" : "Arial",
									"patching_rect" : [ 209.5, 100.0, 619.0, 20.0 ],
									"fontsize" : 12.0,
									"numinlets" : 1
								}

							}
, 							{
								"box" : 								{
									"maxclass" : "comment",
									"text" : "< we have one urn for each parameter (note, velocity, duration). Why do we use three of them instead of one?",
									"numoutlets" : 0,
									"id" : "obj-123",
									"fontname" : "Arial",
									"patching_rect" : [ 479.5, 249.0, 619.0, 20.0 ],
									"fontsize" : 12.0,
									"numinlets" : 1
								}

							}
, 							{
								"box" : 								{
									"maxclass" : "newobj",
									"text" : "pack 0 0 4n",
									"numoutlets" : 1,
									"outlettype" : [ "" ],
									"id" : "obj-124",
									"fontname" : "Arial",
									"patching_rect" : [ 312.5, 447.0, 134.0, 20.0 ],
									"fontsize" : 12.0,
									"numinlets" : 3
								}

							}
, 							{
								"box" : 								{
									"maxclass" : "newobj",
									"text" : "delay 4n",
									"numoutlets" : 1,
									"outlettype" : [ "bang" ],
									"id" : "obj-125",
									"fontname" : "Arial",
									"patching_rect" : [ 431.5, 383.0, 56.0, 20.0 ],
									"fontsize" : 12.0,
									"numinlets" : 2
								}

							}
, 							{
								"box" : 								{
									"maxclass" : "newobj",
									"text" : "makenote 60 4n",
									"numoutlets" : 2,
									"outlettype" : [ "float", "float" ],
									"id" : "obj-126",
									"fontname" : "Arial",
									"patching_rect" : [ 312.5, 475.0, 97.0, 20.0 ],
									"fontsize" : 12.0,
									"numinlets" : 3
								}

							}
, 							{
								"box" : 								{
									"maxclass" : "newobj",
									"text" : "t b 0 clear",
									"numoutlets" : 3,
									"outlettype" : [ "bang", "int", "clear" ],
									"id" : "obj-128",
									"fontname" : "Arial",
									"patching_rect" : [ 72.5, 103.0, 131.0, 19.0 ],
									"fontsize" : 10.533333,
									"numinlets" : 1
								}

							}
, 							{
								"box" : 								{
									"maxclass" : "button",
									"numoutlets" : 1,
									"outlettype" : [ "bang" ],
									"id" : "obj-129",
									"patching_rect" : [ 72.5, 192.0, 22.0, 22.0 ],
									"numinlets" : 1
								}

							}
, 							{
								"box" : 								{
									"maxclass" : "newobj",
									"text" : "* 10",
									"numoutlets" : 1,
									"outlettype" : [ "int" ],
									"id" : "obj-131",
									"fontname" : "Arial",
									"patching_rect" : [ 372.5, 307.0, 32.5, 20.0 ],
									"fontsize" : 12.0,
									"numinlets" : 2
								}

							}
, 							{
								"box" : 								{
									"maxclass" : "newobj",
									"text" : "+ 1",
									"numoutlets" : 1,
									"outlettype" : [ "int" ],
									"id" : "obj-132",
									"fontname" : "Arial",
									"patching_rect" : [ 372.5, 279.0, 32.5, 20.0 ],
									"fontsize" : 12.0,
									"numinlets" : 2
								}

							}
, 							{
								"box" : 								{
									"maxclass" : "newobj",
									"text" : "urn 12",
									"numoutlets" : 2,
									"outlettype" : [ "int", "bang" ],
									"id" : "obj-133",
									"fontname" : "Arial",
									"patching_rect" : [ 372.5, 250.0, 45.0, 21.0 ],
									"fontsize" : 12.288889,
									"numinlets" : 2
								}

							}
, 							{
								"box" : 								{
									"maxclass" : "newobj",
									"text" : "t b s s",
									"numoutlets" : 3,
									"outlettype" : [ "bang", "", "" ],
									"id" : "obj-135",
									"fontname" : "Arial",
									"patching_rect" : [ 431.5, 356.0, 92.0, 20.0 ],
									"fontsize" : 12.0,
									"numinlets" : 1
								}

							}
, 							{
								"box" : 								{
									"maxclass" : "newobj",
									"text" : "urn 12",
									"numoutlets" : 2,
									"outlettype" : [ "int", "bang" ],
									"id" : "obj-136",
									"fontname" : "Arial",
									"patching_rect" : [ 431.5, 250.0, 45.0, 21.0 ],
									"fontsize" : 12.288889,
									"numinlets" : 2
								}

							}
, 							{
								"box" : 								{
									"maxclass" : "newobj",
									"text" : "+ 48",
									"numoutlets" : 1,
									"outlettype" : [ "int" ],
									"id" : "obj-137",
									"fontname" : "Arial",
									"patching_rect" : [ 312.5, 279.0, 34.0, 20.0 ],
									"fontsize" : 12.0,
									"numinlets" : 2
								}

							}
, 							{
								"box" : 								{
									"maxclass" : "message",
									"text" : "8nt",
									"numoutlets" : 1,
									"outlettype" : [ "" ],
									"id" : "obj-138",
									"fontname" : "Arial",
									"patching_rect" : [ 812.5, 306.0, 32.5, 18.0 ],
									"fontsize" : 12.0,
									"numinlets" : 2
								}

							}
, 							{
								"box" : 								{
									"maxclass" : "message",
									"text" : "8nd",
									"numoutlets" : 1,
									"outlettype" : [ "" ],
									"id" : "obj-139",
									"fontname" : "Arial",
									"patching_rect" : [ 778.5, 306.0, 32.5, 18.0 ],
									"fontsize" : 12.0,
									"numinlets" : 2
								}

							}
, 							{
								"box" : 								{
									"maxclass" : "message",
									"text" : "8n",
									"numoutlets" : 1,
									"outlettype" : [ "" ],
									"id" : "obj-140",
									"fontname" : "Arial",
									"patching_rect" : [ 743.5, 306.0, 32.5, 18.0 ],
									"fontsize" : 12.0,
									"numinlets" : 2
								}

							}
, 							{
								"box" : 								{
									"maxclass" : "message",
									"text" : "4nt",
									"numoutlets" : 1,
									"outlettype" : [ "" ],
									"id" : "obj-141",
									"fontname" : "Arial",
									"patching_rect" : [ 708.5, 306.0, 32.5, 18.0 ],
									"fontsize" : 12.0,
									"numinlets" : 2
								}

							}
, 							{
								"box" : 								{
									"maxclass" : "message",
									"text" : "4nd",
									"numoutlets" : 1,
									"outlettype" : [ "" ],
									"id" : "obj-142",
									"fontname" : "Arial",
									"patching_rect" : [ 674.5, 306.0, 32.5, 18.0 ],
									"fontsize" : 12.0,
									"numinlets" : 2
								}

							}
, 							{
								"box" : 								{
									"maxclass" : "message",
									"text" : "4n",
									"numoutlets" : 1,
									"outlettype" : [ "" ],
									"id" : "obj-143",
									"fontname" : "Arial",
									"patching_rect" : [ 639.5, 306.0, 32.5, 18.0 ],
									"fontsize" : 12.0,
									"numinlets" : 2
								}

							}
, 							{
								"box" : 								{
									"maxclass" : "message",
									"text" : "2nt",
									"numoutlets" : 1,
									"outlettype" : [ "" ],
									"id" : "obj-144",
									"fontname" : "Arial",
									"patching_rect" : [ 604.5, 306.0, 32.5, 18.0 ],
									"fontsize" : 12.0,
									"numinlets" : 2
								}

							}
, 							{
								"box" : 								{
									"maxclass" : "message",
									"text" : "2nd",
									"numoutlets" : 1,
									"outlettype" : [ "" ],
									"id" : "obj-145",
									"fontname" : "Arial",
									"patching_rect" : [ 570.5, 306.0, 32.5, 18.0 ],
									"fontsize" : 12.0,
									"numinlets" : 2
								}

							}
, 							{
								"box" : 								{
									"maxclass" : "message",
									"text" : "2n",
									"numoutlets" : 1,
									"outlettype" : [ "" ],
									"id" : "obj-146",
									"fontname" : "Arial",
									"patching_rect" : [ 535.5, 306.0, 32.5, 18.0 ],
									"fontsize" : 12.0,
									"numinlets" : 2
								}

							}
, 							{
								"box" : 								{
									"maxclass" : "message",
									"text" : "1nt",
									"numoutlets" : 1,
									"outlettype" : [ "" ],
									"id" : "obj-147",
									"fontname" : "Arial",
									"patching_rect" : [ 500.5, 306.0, 32.5, 18.0 ],
									"fontsize" : 12.0,
									"numinlets" : 2
								}

							}
, 							{
								"box" : 								{
									"maxclass" : "message",
									"text" : "1nd",
									"numoutlets" : 1,
									"outlettype" : [ "" ],
									"id" : "obj-148",
									"fontname" : "Arial",
									"patching_rect" : [ 466.5, 306.0, 32.5, 18.0 ],
									"fontsize" : 12.0,
									"numinlets" : 2
								}

							}
, 							{
								"box" : 								{
									"maxclass" : "message",
									"text" : "1n",
									"numoutlets" : 1,
									"outlettype" : [ "" ],
									"id" : "obj-149",
									"fontname" : "Arial",
									"patching_rect" : [ 431.5, 306.0, 32.5, 18.0 ],
									"fontsize" : 12.0,
									"numinlets" : 2
								}

							}
, 							{
								"box" : 								{
									"maxclass" : "newobj",
									"text" : "route 0 1 2 3 4 5 6 7 8 9 10 11",
									"numoutlets" : 13,
									"outlettype" : [ "", "", "", "", "", "", "", "", "", "", "", "", "" ],
									"id" : "obj-150",
									"fontname" : "Arial",
									"patching_rect" : [ 431.5, 279.0, 435.0, 20.0 ],
									"fontsize" : 12.0,
									"numinlets" : 1
								}

							}
, 							{
								"box" : 								{
									"maxclass" : "newobj",
									"text" : "counter 0 0 11",
									"numoutlets" : 4,
									"outlettype" : [ "int", "", "", "int" ],
									"id" : "obj-151",
									"fontname" : "Arial",
									"patching_rect" : [ 72.5, 163.0, 131.0, 21.0 ],
									"fontsize" : 12.288889,
									"numinlets" : 5
								}

							}
, 							{
								"box" : 								{
									"maxclass" : "newobj",
									"text" : "urn 12",
									"numoutlets" : 2,
									"outlettype" : [ "int", "bang" ],
									"id" : "obj-152",
									"fontname" : "Arial",
									"patching_rect" : [ 312.5, 250.0, 45.0, 21.0 ],
									"fontsize" : 12.288889,
									"numinlets" : 2
								}

							}
, 							{
								"box" : 								{
									"maxclass" : "inlet",
									"numoutlets" : 1,
									"outlettype" : [ "bang" ],
									"id" : "obj-153",
									"patching_rect" : [ 72.5, 40.0, 25.0, 25.0 ],
									"numinlets" : 0,
									"comment" : ""
								}

							}
, 							{
								"box" : 								{
									"maxclass" : "inlet",
									"numoutlets" : 1,
									"outlettype" : [ "int" ],
									"id" : "obj-154",
									"patching_rect" : [ 327.5, 40.0, 25.0, 25.0 ],
									"numinlets" : 0,
									"comment" : ""
								}

							}
, 							{
								"box" : 								{
									"maxclass" : "outlet",
									"numoutlets" : 0,
									"id" : "obj-156",
									"patching_rect" : [ 342.5, 555.0, 25.0, 25.0 ],
									"numinlets" : 1,
									"comment" : ""
								}

							}
, 							{
								"box" : 								{
									"maxclass" : "outlet",
									"numoutlets" : 0,
									"id" : "obj-157",
									"patching_rect" : [ 362.5, 555.0, 25.0, 25.0 ],
									"numinlets" : 1,
									"comment" : ""
								}

							}
 ],
						"lines" : [ 							{
								"patchline" : 								{
									"source" : [ "obj-152", 0 ],
									"destination" : [ "obj-137", 0 ],
									"hidden" : 0,
									"midpoints" : [  ]
								}

							}
, 							{
								"patchline" : 								{
									"source" : [ "obj-137", 0 ],
									"destination" : [ "obj-124", 0 ],
									"hidden" : 0,
									"midpoints" : [  ]
								}

							}
, 							{
								"patchline" : 								{
									"source" : [ "obj-131", 0 ],
									"destination" : [ "obj-124", 1 ],
									"hidden" : 0,
									"midpoints" : [  ]
								}

							}
, 							{
								"patchline" : 								{
									"source" : [ "obj-135", 2 ],
									"destination" : [ "obj-124", 2 ],
									"hidden" : 0,
									"midpoints" : [ 514.0, 430.0, 437.0, 430.0 ]
								}

							}
, 							{
								"patchline" : 								{
									"source" : [ "obj-149", 0 ],
									"destination" : [ "obj-135", 0 ],
									"hidden" : 0,
									"midpoints" : [  ]
								}

							}
, 							{
								"patchline" : 								{
									"source" : [ "obj-148", 0 ],
									"destination" : [ "obj-135", 0 ],
									"hidden" : 0,
									"midpoints" : [  ]
								}

							}
, 							{
								"patchline" : 								{
									"source" : [ "obj-147", 0 ],
									"destination" : [ "obj-135", 0 ],
									"hidden" : 0,
									"midpoints" : [  ]
								}

							}
, 							{
								"patchline" : 								{
									"source" : [ "obj-146", 0 ],
									"destination" : [ "obj-135", 0 ],
									"hidden" : 0,
									"midpoints" : [  ]
								}

							}
, 							{
								"patchline" : 								{
									"source" : [ "obj-145", 0 ],
									"destination" : [ "obj-135", 0 ],
									"hidden" : 0,
									"midpoints" : [  ]
								}

							}
, 							{
								"patchline" : 								{
									"source" : [ "obj-144", 0 ],
									"destination" : [ "obj-135", 0 ],
									"hidden" : 0,
									"midpoints" : [  ]
								}

							}
, 							{
								"patchline" : 								{
									"source" : [ "obj-143", 0 ],
									"destination" : [ "obj-135", 0 ],
									"hidden" : 0,
									"midpoints" : [  ]
								}

							}
, 							{
								"patchline" : 								{
									"source" : [ "obj-142", 0 ],
									"destination" : [ "obj-135", 0 ],
									"hidden" : 0,
									"midpoints" : [  ]
								}

							}
, 							{
								"patchline" : 								{
									"source" : [ "obj-141", 0 ],
									"destination" : [ "obj-135", 0 ],
									"hidden" : 0,
									"midpoints" : [  ]
								}

							}
, 							{
								"patchline" : 								{
									"source" : [ "obj-140", 0 ],
									"destination" : [ "obj-135", 0 ],
									"hidden" : 0,
									"midpoints" : [  ]
								}

							}
, 							{
								"patchline" : 								{
									"source" : [ "obj-139", 0 ],
									"destination" : [ "obj-135", 0 ],
									"hidden" : 0,
									"midpoints" : [  ]
								}

							}
, 							{
								"patchline" : 								{
									"source" : [ "obj-138", 0 ],
									"destination" : [ "obj-135", 0 ],
									"hidden" : 0,
									"midpoints" : [  ]
								}

							}
, 							{
								"patchline" : 								{
									"source" : [ "obj-135", 1 ],
									"destination" : [ "obj-125", 1 ],
									"hidden" : 0,
									"midpoints" : [  ]
								}

							}
, 							{
								"patchline" : 								{
									"source" : [ "obj-135", 0 ],
									"destination" : [ "obj-125", 0 ],
									"hidden" : 0,
									"midpoints" : [  ]
								}

							}
, 							{
								"patchline" : 								{
									"source" : [ "obj-125", 0 ],
									"destination" : [ "obj-151", 0 ],
									"hidden" : 0,
									"midpoints" : [ 441.0, 418.0, 57.0, 418.0, 57.0, 153.0, 82.0, 153.0 ]
								}

							}
, 							{
								"patchline" : 								{
									"source" : [ "obj-128", 0 ],
									"destination" : [ "obj-151", 0 ],
									"hidden" : 0,
									"midpoints" : [  ]
								}

							}
, 							{
								"patchline" : 								{
									"source" : [ "obj-128", 1 ],
									"destination" : [ "obj-151", 2 ],
									"hidden" : 0,
									"midpoints" : [  ]
								}

							}
, 							{
								"patchline" : 								{
									"source" : [ "obj-128", 2 ],
									"destination" : [ "obj-152", 0 ],
									"hidden" : 0,
									"midpoints" : [  ]
								}

							}
, 							{
								"patchline" : 								{
									"source" : [ "obj-128", 2 ],
									"destination" : [ "obj-133", 0 ],
									"hidden" : 0,
									"midpoints" : [  ]
								}

							}
, 							{
								"patchline" : 								{
									"source" : [ "obj-128", 2 ],
									"destination" : [ "obj-136", 0 ],
									"hidden" : 0,
									"midpoints" : [  ]
								}

							}
, 							{
								"patchline" : 								{
									"source" : [ "obj-129", 0 ],
									"destination" : [ "obj-136", 0 ],
									"hidden" : 0,
									"midpoints" : [  ]
								}

							}
, 							{
								"patchline" : 								{
									"source" : [ "obj-129", 0 ],
									"destination" : [ "obj-133", 0 ],
									"hidden" : 0,
									"midpoints" : [  ]
								}

							}
, 							{
								"patchline" : 								{
									"source" : [ "obj-129", 0 ],
									"destination" : [ "obj-152", 0 ],
									"hidden" : 0,
									"midpoints" : [  ]
								}

							}
, 							{
								"patchline" : 								{
									"source" : [ "obj-136", 0 ],
									"destination" : [ "obj-150", 0 ],
									"hidden" : 0,
									"midpoints" : [  ]
								}

							}
, 							{
								"patchline" : 								{
									"source" : [ "obj-133", 0 ],
									"destination" : [ "obj-132", 0 ],
									"hidden" : 0,
									"midpoints" : [  ]
								}

							}
, 							{
								"patchline" : 								{
									"source" : [ "obj-151", 0 ],
									"destination" : [ "obj-129", 0 ],
									"hidden" : 0,
									"midpoints" : [  ]
								}

							}
, 							{
								"patchline" : 								{
									"source" : [ "obj-132", 0 ],
									"destination" : [ "obj-131", 0 ],
									"hidden" : 0,
									"midpoints" : [  ]
								}

							}
, 							{
								"patchline" : 								{
									"source" : [ "obj-150", 11 ],
									"destination" : [ "obj-138", 0 ],
									"hidden" : 0,
									"midpoints" : [  ]
								}

							}
, 							{
								"patchline" : 								{
									"source" : [ "obj-150", 10 ],
									"destination" : [ "obj-139", 0 ],
									"hidden" : 0,
									"midpoints" : [  ]
								}

							}
, 							{
								"patchline" : 								{
									"source" : [ "obj-150", 9 ],
									"destination" : [ "obj-140", 0 ],
									"hidden" : 0,
									"midpoints" : [  ]
								}

							}
, 							{
								"patchline" : 								{
									"source" : [ "obj-150", 8 ],
									"destination" : [ "obj-141", 0 ],
									"hidden" : 0,
									"midpoints" : [  ]
								}

							}
, 							{
								"patchline" : 								{
									"source" : [ "obj-150", 7 ],
									"destination" : [ "obj-142", 0 ],
									"hidden" : 0,
									"midpoints" : [  ]
								}

							}
, 							{
								"patchline" : 								{
									"source" : [ "obj-150", 6 ],
									"destination" : [ "obj-143", 0 ],
									"hidden" : 0,
									"midpoints" : [  ]
								}

							}
, 							{
								"patchline" : 								{
									"source" : [ "obj-150", 5 ],
									"destination" : [ "obj-144", 0 ],
									"hidden" : 0,
									"midpoints" : [  ]
								}

							}
, 							{
								"patchline" : 								{
									"source" : [ "obj-150", 4 ],
									"destination" : [ "obj-145", 0 ],
									"hidden" : 0,
									"midpoints" : [  ]
								}

							}
, 							{
								"patchline" : 								{
									"source" : [ "obj-150", 3 ],
									"destination" : [ "obj-146", 0 ],
									"hidden" : 0,
									"midpoints" : [  ]
								}

							}
, 							{
								"patchline" : 								{
									"source" : [ "obj-150", 2 ],
									"destination" : [ "obj-147", 0 ],
									"hidden" : 0,
									"midpoints" : [  ]
								}

							}
, 							{
								"patchline" : 								{
									"source" : [ "obj-150", 1 ],
									"destination" : [ "obj-148", 0 ],
									"hidden" : 0,
									"midpoints" : [  ]
								}

							}
, 							{
								"patchline" : 								{
									"source" : [ "obj-150", 0 ],
									"destination" : [ "obj-149", 0 ],
									"hidden" : 0,
									"midpoints" : [  ]
								}

							}
, 							{
								"patchline" : 								{
									"source" : [ "obj-153", 0 ],
									"destination" : [ "obj-128", 0 ],
									"hidden" : 0,
									"midpoints" : [  ]
								}

							}
, 							{
								"patchline" : 								{
									"source" : [ "obj-154", 0 ],
									"destination" : [ "obj-137", 1 ],
									"hidden" : 0,
									"midpoints" : [  ]
								}

							}
, 							{
								"patchline" : 								{
									"source" : [ "obj-126", 1 ],
									"destination" : [ "obj-157", 0 ],
									"hidden" : 0,
									"midpoints" : [  ]
								}

							}
, 							{
								"patchline" : 								{
									"source" : [ "obj-126", 0 ],
									"destination" : [ "obj-156", 0 ],
									"hidden" : 0,
									"midpoints" : [  ]
								}

							}
, 							{
								"patchline" : 								{
									"source" : [ "obj-124", 0 ],
									"destination" : [ "obj-126", 0 ],
									"hidden" : 0,
									"midpoints" : [  ]
								}

							}
 ]
					}
,
					"saved_object_attributes" : 					{
						"default_fontface" : 0,
						"fontname" : "Arial",
						"default_fontname" : "Arial",
						"globalpatchername" : "",
						"default_fontsize" : 12.0,
						"fontface" : 0,
						"fontsize" : 12.0
					}

				}

			}
, 			{
				"box" : 				{
					"maxclass" : "number",
					"numoutlets" : 2,
					"outlettype" : [ "int", "bang" ],
					"id" : "obj-176",
					"fontname" : "Arial",
					"patching_rect" : [ 581.0, 22.0, 50.0, 20.0 ],
					"fontsize" : 12.0,
					"numinlets" : 1
				}

			}
, 			{
				"box" : 				{
					"maxclass" : "newobj",
					"text" : "p serial_row",
					"numoutlets" : 2,
					"outlettype" : [ "float", "float" ],
					"id" : "obj-171",
					"fontname" : "Arial",
					"patching_rect" : [ 325.0, 92.0, 120.0, 20.0 ],
					"fontsize" : 12.0,
					"numinlets" : 2,
					"patcher" : 					{
						"fileversion" : 1,
						"rect" : [ 75.0, 119.0, 751.0, 629.0 ],
						"bglocked" : 0,
						"defrect" : [ 75.0, 119.0, 751.0, 629.0 ],
						"openrect" : [ 0.0, 0.0, 0.0, 0.0 ],
						"openinpresentation" : 0,
						"default_fontsize" : 12.0,
						"default_fontface" : 0,
						"default_fontname" : "Arial",
						"gridonopen" : 0,
						"gridsize" : [ 8.0, 8.0 ],
						"gridsnaponopen" : 0,
						"toolbarvisible" : 1,
						"boxanimatetime" : 200,
						"imprint" : 0,
						"enablehscroll" : 1,
						"enablevscroll" : 1,
						"devicewidth" : 0.0,
						"boxes" : [ 							{
								"box" : 								{
									"maxclass" : "comment",
									"text" : "< The trigger objects resets the urn objects and resets the counter as well as starting things off....",
									"numoutlets" : 0,
									"id" : "obj-122",
									"fontname" : "Arial",
									"patching_rect" : [ 209.5, 100.0, 619.0, 20.0 ],
									"fontsize" : 12.0,
									"numinlets" : 1
								}

							}
, 							{
								"box" : 								{
									"maxclass" : "comment",
									"text" : "< we have one urn for each parameter (note, velocity, duration). Why do we use three of them instead of one?",
									"numoutlets" : 0,
									"id" : "obj-123",
									"fontname" : "Arial",
									"patching_rect" : [ 479.5, 249.0, 619.0, 20.0 ],
									"fontsize" : 12.0,
									"numinlets" : 1
								}

							}
, 							{
								"box" : 								{
									"maxclass" : "newobj",
									"text" : "pack 0 0 4n",
									"numoutlets" : 1,
									"outlettype" : [ "" ],
									"id" : "obj-124",
									"fontname" : "Arial",
									"patching_rect" : [ 312.5, 447.0, 134.0, 20.0 ],
									"fontsize" : 12.0,
									"numinlets" : 3
								}

							}
, 							{
								"box" : 								{
									"maxclass" : "newobj",
									"text" : "delay 4n",
									"numoutlets" : 1,
									"outlettype" : [ "bang" ],
									"id" : "obj-125",
									"fontname" : "Arial",
									"patching_rect" : [ 431.5, 383.0, 56.0, 20.0 ],
									"fontsize" : 12.0,
									"numinlets" : 2
								}

							}
, 							{
								"box" : 								{
									"maxclass" : "newobj",
									"text" : "makenote 60 4n",
									"numoutlets" : 2,
									"outlettype" : [ "float", "float" ],
									"id" : "obj-126",
									"fontname" : "Arial",
									"patching_rect" : [ 312.5, 475.0, 97.0, 20.0 ],
									"fontsize" : 12.0,
									"numinlets" : 3
								}

							}
, 							{
								"box" : 								{
									"maxclass" : "newobj",
									"text" : "t b 0 clear",
									"numoutlets" : 3,
									"outlettype" : [ "bang", "int", "clear" ],
									"id" : "obj-128",
									"fontname" : "Arial",
									"patching_rect" : [ 72.5, 103.0, 131.0, 19.0 ],
									"fontsize" : 10.533333,
									"numinlets" : 1
								}

							}
, 							{
								"box" : 								{
									"maxclass" : "button",
									"numoutlets" : 1,
									"outlettype" : [ "bang" ],
									"id" : "obj-129",
									"patching_rect" : [ 72.5, 192.0, 22.0, 22.0 ],
									"numinlets" : 1
								}

							}
, 							{
								"box" : 								{
									"maxclass" : "newobj",
									"text" : "* 10",
									"numoutlets" : 1,
									"outlettype" : [ "int" ],
									"id" : "obj-131",
									"fontname" : "Arial",
									"patching_rect" : [ 372.5, 307.0, 32.5, 20.0 ],
									"fontsize" : 12.0,
									"numinlets" : 2
								}

							}
, 							{
								"box" : 								{
									"maxclass" : "newobj",
									"text" : "+ 1",
									"numoutlets" : 1,
									"outlettype" : [ "int" ],
									"id" : "obj-132",
									"fontname" : "Arial",
									"patching_rect" : [ 372.5, 279.0, 32.5, 20.0 ],
									"fontsize" : 12.0,
									"numinlets" : 2
								}

							}
, 							{
								"box" : 								{
									"maxclass" : "newobj",
									"text" : "urn 12",
									"numoutlets" : 2,
									"outlettype" : [ "int", "bang" ],
									"id" : "obj-133",
									"fontname" : "Arial",
									"patching_rect" : [ 372.5, 250.0, 45.0, 21.0 ],
									"fontsize" : 12.288889,
									"numinlets" : 2
								}

							}
, 							{
								"box" : 								{
									"maxclass" : "newobj",
									"text" : "t b s s",
									"numoutlets" : 3,
									"outlettype" : [ "bang", "", "" ],
									"id" : "obj-135",
									"fontname" : "Arial",
									"patching_rect" : [ 431.5, 356.0, 92.0, 20.0 ],
									"fontsize" : 12.0,
									"numinlets" : 1
								}

							}
, 							{
								"box" : 								{
									"maxclass" : "newobj",
									"text" : "urn 12",
									"numoutlets" : 2,
									"outlettype" : [ "int", "bang" ],
									"id" : "obj-136",
									"fontname" : "Arial",
									"patching_rect" : [ 431.5, 250.0, 45.0, 21.0 ],
									"fontsize" : 12.288889,
									"numinlets" : 2
								}

							}
, 							{
								"box" : 								{
									"maxclass" : "newobj",
									"text" : "+ 48",
									"numoutlets" : 1,
									"outlettype" : [ "int" ],
									"id" : "obj-137",
									"fontname" : "Arial",
									"patching_rect" : [ 312.5, 279.0, 34.0, 20.0 ],
									"fontsize" : 12.0,
									"numinlets" : 2
								}

							}
, 							{
								"box" : 								{
									"maxclass" : "message",
									"text" : "8nt",
									"numoutlets" : 1,
									"outlettype" : [ "" ],
									"id" : "obj-138",
									"fontname" : "Arial",
									"patching_rect" : [ 812.5, 306.0, 32.5, 18.0 ],
									"fontsize" : 12.0,
									"numinlets" : 2
								}

							}
, 							{
								"box" : 								{
									"maxclass" : "message",
									"text" : "8nd",
									"numoutlets" : 1,
									"outlettype" : [ "" ],
									"id" : "obj-139",
									"fontname" : "Arial",
									"patching_rect" : [ 778.5, 306.0, 32.5, 18.0 ],
									"fontsize" : 12.0,
									"numinlets" : 2
								}

							}
, 							{
								"box" : 								{
									"maxclass" : "message",
									"text" : "8n",
									"numoutlets" : 1,
									"outlettype" : [ "" ],
									"id" : "obj-140",
									"fontname" : "Arial",
									"patching_rect" : [ 743.5, 306.0, 32.5, 18.0 ],
									"fontsize" : 12.0,
									"numinlets" : 2
								}

							}
, 							{
								"box" : 								{
									"maxclass" : "message",
									"text" : "4nt",
									"numoutlets" : 1,
									"outlettype" : [ "" ],
									"id" : "obj-141",
									"fontname" : "Arial",
									"patching_rect" : [ 708.5, 306.0, 32.5, 18.0 ],
									"fontsize" : 12.0,
									"numinlets" : 2
								}

							}
, 							{
								"box" : 								{
									"maxclass" : "message",
									"text" : "4nd",
									"numoutlets" : 1,
									"outlettype" : [ "" ],
									"id" : "obj-142",
									"fontname" : "Arial",
									"patching_rect" : [ 674.5, 306.0, 32.5, 18.0 ],
									"fontsize" : 12.0,
									"numinlets" : 2
								}

							}
, 							{
								"box" : 								{
									"maxclass" : "message",
									"text" : "4n",
									"numoutlets" : 1,
									"outlettype" : [ "" ],
									"id" : "obj-143",
									"fontname" : "Arial",
									"patching_rect" : [ 639.5, 306.0, 32.5, 18.0 ],
									"fontsize" : 12.0,
									"numinlets" : 2
								}

							}
, 							{
								"box" : 								{
									"maxclass" : "message",
									"text" : "2nt",
									"numoutlets" : 1,
									"outlettype" : [ "" ],
									"id" : "obj-144",
									"fontname" : "Arial",
									"patching_rect" : [ 604.5, 306.0, 32.5, 18.0 ],
									"fontsize" : 12.0,
									"numinlets" : 2
								}

							}
, 							{
								"box" : 								{
									"maxclass" : "message",
									"text" : "2nd",
									"numoutlets" : 1,
									"outlettype" : [ "" ],
									"id" : "obj-145",
									"fontname" : "Arial",
									"patching_rect" : [ 570.5, 306.0, 32.5, 18.0 ],
									"fontsize" : 12.0,
									"numinlets" : 2
								}

							}
, 							{
								"box" : 								{
									"maxclass" : "message",
									"text" : "2n",
									"numoutlets" : 1,
									"outlettype" : [ "" ],
									"id" : "obj-146",
									"fontname" : "Arial",
									"patching_rect" : [ 535.5, 306.0, 32.5, 18.0 ],
									"fontsize" : 12.0,
									"numinlets" : 2
								}

							}
, 							{
								"box" : 								{
									"maxclass" : "message",
									"text" : "1nt",
									"numoutlets" : 1,
									"outlettype" : [ "" ],
									"id" : "obj-147",
									"fontname" : "Arial",
									"patching_rect" : [ 500.5, 306.0, 32.5, 18.0 ],
									"fontsize" : 12.0,
									"numinlets" : 2
								}

							}
, 							{
								"box" : 								{
									"maxclass" : "message",
									"text" : "1nd",
									"numoutlets" : 1,
									"outlettype" : [ "" ],
									"id" : "obj-148",
									"fontname" : "Arial",
									"patching_rect" : [ 466.5, 306.0, 32.5, 18.0 ],
									"fontsize" : 12.0,
									"numinlets" : 2
								}

							}
, 							{
								"box" : 								{
									"maxclass" : "message",
									"text" : "1n",
									"numoutlets" : 1,
									"outlettype" : [ "" ],
									"id" : "obj-149",
									"fontname" : "Arial",
									"patching_rect" : [ 431.5, 306.0, 32.5, 18.0 ],
									"fontsize" : 12.0,
									"numinlets" : 2
								}

							}
, 							{
								"box" : 								{
									"maxclass" : "newobj",
									"text" : "route 0 1 2 3 4 5 6 7 8 9 10 11",
									"numoutlets" : 13,
									"outlettype" : [ "", "", "", "", "", "", "", "", "", "", "", "", "" ],
									"id" : "obj-150",
									"fontname" : "Arial",
									"patching_rect" : [ 431.5, 279.0, 435.0, 20.0 ],
									"fontsize" : 12.0,
									"numinlets" : 1
								}

							}
, 							{
								"box" : 								{
									"maxclass" : "newobj",
									"text" : "counter 0 0 11",
									"numoutlets" : 4,
									"outlettype" : [ "int", "", "", "int" ],
									"id" : "obj-151",
									"fontname" : "Arial",
									"patching_rect" : [ 72.5, 163.0, 131.0, 21.0 ],
									"fontsize" : 12.288889,
									"numinlets" : 5
								}

							}
, 							{
								"box" : 								{
									"maxclass" : "newobj",
									"text" : "urn 12",
									"numoutlets" : 2,
									"outlettype" : [ "int", "bang" ],
									"id" : "obj-152",
									"fontname" : "Arial",
									"patching_rect" : [ 312.5, 250.0, 45.0, 21.0 ],
									"fontsize" : 12.288889,
									"numinlets" : 2
								}

							}
, 							{
								"box" : 								{
									"maxclass" : "inlet",
									"numoutlets" : 1,
									"outlettype" : [ "bang" ],
									"id" : "obj-153",
									"patching_rect" : [ 72.5, 40.0, 25.0, 25.0 ],
									"numinlets" : 0,
									"comment" : ""
								}

							}
, 							{
								"box" : 								{
									"maxclass" : "inlet",
									"numoutlets" : 1,
									"outlettype" : [ "int" ],
									"id" : "obj-154",
									"patching_rect" : [ 327.5, 40.0, 25.0, 25.0 ],
									"numinlets" : 0,
									"comment" : ""
								}

							}
, 							{
								"box" : 								{
									"maxclass" : "outlet",
									"numoutlets" : 0,
									"id" : "obj-156",
									"patching_rect" : [ 342.5, 555.0, 25.0, 25.0 ],
									"numinlets" : 1,
									"comment" : ""
								}

							}
, 							{
								"box" : 								{
									"maxclass" : "outlet",
									"numoutlets" : 0,
									"id" : "obj-157",
									"patching_rect" : [ 362.5, 555.0, 25.0, 25.0 ],
									"numinlets" : 1,
									"comment" : ""
								}

							}
 ],
						"lines" : [ 							{
								"patchline" : 								{
									"source" : [ "obj-154", 0 ],
									"destination" : [ "obj-137", 1 ],
									"hidden" : 0,
									"midpoints" : [  ]
								}

							}
, 							{
								"patchline" : 								{
									"source" : [ "obj-153", 0 ],
									"destination" : [ "obj-128", 0 ],
									"hidden" : 0,
									"midpoints" : [  ]
								}

							}
, 							{
								"patchline" : 								{
									"source" : [ "obj-150", 0 ],
									"destination" : [ "obj-149", 0 ],
									"hidden" : 0,
									"midpoints" : [  ]
								}

							}
, 							{
								"patchline" : 								{
									"source" : [ "obj-150", 1 ],
									"destination" : [ "obj-148", 0 ],
									"hidden" : 0,
									"midpoints" : [  ]
								}

							}
, 							{
								"patchline" : 								{
									"source" : [ "obj-150", 2 ],
									"destination" : [ "obj-147", 0 ],
									"hidden" : 0,
									"midpoints" : [  ]
								}

							}
, 							{
								"patchline" : 								{
									"source" : [ "obj-150", 3 ],
									"destination" : [ "obj-146", 0 ],
									"hidden" : 0,
									"midpoints" : [  ]
								}

							}
, 							{
								"patchline" : 								{
									"source" : [ "obj-150", 4 ],
									"destination" : [ "obj-145", 0 ],
									"hidden" : 0,
									"midpoints" : [  ]
								}

							}
, 							{
								"patchline" : 								{
									"source" : [ "obj-150", 5 ],
									"destination" : [ "obj-144", 0 ],
									"hidden" : 0,
									"midpoints" : [  ]
								}

							}
, 							{
								"patchline" : 								{
									"source" : [ "obj-150", 6 ],
									"destination" : [ "obj-143", 0 ],
									"hidden" : 0,
									"midpoints" : [  ]
								}

							}
, 							{
								"patchline" : 								{
									"source" : [ "obj-150", 7 ],
									"destination" : [ "obj-142", 0 ],
									"hidden" : 0,
									"midpoints" : [  ]
								}

							}
, 							{
								"patchline" : 								{
									"source" : [ "obj-150", 8 ],
									"destination" : [ "obj-141", 0 ],
									"hidden" : 0,
									"midpoints" : [  ]
								}

							}
, 							{
								"patchline" : 								{
									"source" : [ "obj-150", 9 ],
									"destination" : [ "obj-140", 0 ],
									"hidden" : 0,
									"midpoints" : [  ]
								}

							}
, 							{
								"patchline" : 								{
									"source" : [ "obj-150", 10 ],
									"destination" : [ "obj-139", 0 ],
									"hidden" : 0,
									"midpoints" : [  ]
								}

							}
, 							{
								"patchline" : 								{
									"source" : [ "obj-150", 11 ],
									"destination" : [ "obj-138", 0 ],
									"hidden" : 0,
									"midpoints" : [  ]
								}

							}
, 							{
								"patchline" : 								{
									"source" : [ "obj-132", 0 ],
									"destination" : [ "obj-131", 0 ],
									"hidden" : 0,
									"midpoints" : [  ]
								}

							}
, 							{
								"patchline" : 								{
									"source" : [ "obj-151", 0 ],
									"destination" : [ "obj-129", 0 ],
									"hidden" : 0,
									"midpoints" : [  ]
								}

							}
, 							{
								"patchline" : 								{
									"source" : [ "obj-133", 0 ],
									"destination" : [ "obj-132", 0 ],
									"hidden" : 0,
									"midpoints" : [  ]
								}

							}
, 							{
								"patchline" : 								{
									"source" : [ "obj-136", 0 ],
									"destination" : [ "obj-150", 0 ],
									"hidden" : 0,
									"midpoints" : [  ]
								}

							}
, 							{
								"patchline" : 								{
									"source" : [ "obj-129", 0 ],
									"destination" : [ "obj-152", 0 ],
									"hidden" : 0,
									"midpoints" : [  ]
								}

							}
, 							{
								"patchline" : 								{
									"source" : [ "obj-129", 0 ],
									"destination" : [ "obj-133", 0 ],
									"hidden" : 0,
									"midpoints" : [  ]
								}

							}
, 							{
								"patchline" : 								{
									"source" : [ "obj-129", 0 ],
									"destination" : [ "obj-136", 0 ],
									"hidden" : 0,
									"midpoints" : [  ]
								}

							}
, 							{
								"patchline" : 								{
									"source" : [ "obj-128", 2 ],
									"destination" : [ "obj-136", 0 ],
									"hidden" : 0,
									"midpoints" : [  ]
								}

							}
, 							{
								"patchline" : 								{
									"source" : [ "obj-128", 2 ],
									"destination" : [ "obj-133", 0 ],
									"hidden" : 0,
									"midpoints" : [  ]
								}

							}
, 							{
								"patchline" : 								{
									"source" : [ "obj-128", 2 ],
									"destination" : [ "obj-152", 0 ],
									"hidden" : 0,
									"midpoints" : [  ]
								}

							}
, 							{
								"patchline" : 								{
									"source" : [ "obj-128", 1 ],
									"destination" : [ "obj-151", 2 ],
									"hidden" : 0,
									"midpoints" : [  ]
								}

							}
, 							{
								"patchline" : 								{
									"source" : [ "obj-128", 0 ],
									"destination" : [ "obj-151", 0 ],
									"hidden" : 0,
									"midpoints" : [  ]
								}

							}
, 							{
								"patchline" : 								{
									"source" : [ "obj-125", 0 ],
									"destination" : [ "obj-151", 0 ],
									"hidden" : 0,
									"midpoints" : [ 441.0, 418.0, 57.0, 418.0, 57.0, 153.0, 82.0, 153.0 ]
								}

							}
, 							{
								"patchline" : 								{
									"source" : [ "obj-135", 0 ],
									"destination" : [ "obj-125", 0 ],
									"hidden" : 0,
									"midpoints" : [  ]
								}

							}
, 							{
								"patchline" : 								{
									"source" : [ "obj-135", 1 ],
									"destination" : [ "obj-125", 1 ],
									"hidden" : 0,
									"midpoints" : [  ]
								}

							}
, 							{
								"patchline" : 								{
									"source" : [ "obj-138", 0 ],
									"destination" : [ "obj-135", 0 ],
									"hidden" : 0,
									"midpoints" : [  ]
								}

							}
, 							{
								"patchline" : 								{
									"source" : [ "obj-139", 0 ],
									"destination" : [ "obj-135", 0 ],
									"hidden" : 0,
									"midpoints" : [  ]
								}

							}
, 							{
								"patchline" : 								{
									"source" : [ "obj-140", 0 ],
									"destination" : [ "obj-135", 0 ],
									"hidden" : 0,
									"midpoints" : [  ]
								}

							}
, 							{
								"patchline" : 								{
									"source" : [ "obj-141", 0 ],
									"destination" : [ "obj-135", 0 ],
									"hidden" : 0,
									"midpoints" : [  ]
								}

							}
, 							{
								"patchline" : 								{
									"source" : [ "obj-142", 0 ],
									"destination" : [ "obj-135", 0 ],
									"hidden" : 0,
									"midpoints" : [  ]
								}

							}
, 							{
								"patchline" : 								{
									"source" : [ "obj-143", 0 ],
									"destination" : [ "obj-135", 0 ],
									"hidden" : 0,
									"midpoints" : [  ]
								}

							}
, 							{
								"patchline" : 								{
									"source" : [ "obj-144", 0 ],
									"destination" : [ "obj-135", 0 ],
									"hidden" : 0,
									"midpoints" : [  ]
								}

							}
, 							{
								"patchline" : 								{
									"source" : [ "obj-145", 0 ],
									"destination" : [ "obj-135", 0 ],
									"hidden" : 0,
									"midpoints" : [  ]
								}

							}
, 							{
								"patchline" : 								{
									"source" : [ "obj-146", 0 ],
									"destination" : [ "obj-135", 0 ],
									"hidden" : 0,
									"midpoints" : [  ]
								}

							}
, 							{
								"patchline" : 								{
									"source" : [ "obj-147", 0 ],
									"destination" : [ "obj-135", 0 ],
									"hidden" : 0,
									"midpoints" : [  ]
								}

							}
, 							{
								"patchline" : 								{
									"source" : [ "obj-148", 0 ],
									"destination" : [ "obj-135", 0 ],
									"hidden" : 0,
									"midpoints" : [  ]
								}

							}
, 							{
								"patchline" : 								{
									"source" : [ "obj-149", 0 ],
									"destination" : [ "obj-135", 0 ],
									"hidden" : 0,
									"midpoints" : [  ]
								}

							}
, 							{
								"patchline" : 								{
									"source" : [ "obj-135", 2 ],
									"destination" : [ "obj-124", 2 ],
									"hidden" : 0,
									"midpoints" : [ 514.0, 430.0, 437.0, 430.0 ]
								}

							}
, 							{
								"patchline" : 								{
									"source" : [ "obj-131", 0 ],
									"destination" : [ "obj-124", 1 ],
									"hidden" : 0,
									"midpoints" : [  ]
								}

							}
, 							{
								"patchline" : 								{
									"source" : [ "obj-137", 0 ],
									"destination" : [ "obj-124", 0 ],
									"hidden" : 0,
									"midpoints" : [  ]
								}

							}
, 							{
								"patchline" : 								{
									"source" : [ "obj-152", 0 ],
									"destination" : [ "obj-137", 0 ],
									"hidden" : 0,
									"midpoints" : [  ]
								}

							}
, 							{
								"patchline" : 								{
									"source" : [ "obj-124", 0 ],
									"destination" : [ "obj-126", 0 ],
									"hidden" : 0,
									"midpoints" : [  ]
								}

							}
, 							{
								"patchline" : 								{
									"source" : [ "obj-126", 0 ],
									"destination" : [ "obj-156", 0 ],
									"hidden" : 0,
									"midpoints" : [  ]
								}

							}
, 							{
								"patchline" : 								{
									"source" : [ "obj-126", 1 ],
									"destination" : [ "obj-157", 0 ],
									"hidden" : 0,
									"midpoints" : [  ]
								}

							}
 ]
					}
,
					"saved_object_attributes" : 					{
						"default_fontface" : 0,
						"fontname" : "Arial",
						"default_fontname" : "Arial",
						"globalpatchername" : "",
						"default_fontsize" : 12.0,
						"fontface" : 0,
						"fontsize" : 12.0
					}

				}

			}
, 			{
				"box" : 				{
					"maxclass" : "number",
					"numoutlets" : 2,
					"outlettype" : [ "int", "bang" ],
					"id" : "obj-172",
					"fontname" : "Arial",
					"patching_rect" : [ 426.0, 22.0, 50.0, 20.0 ],
					"fontsize" : 12.0,
					"numinlets" : 1
				}

			}
, 			{
				"box" : 				{
					"maxclass" : "newobj",
					"text" : "p serial_row",
					"numoutlets" : 2,
					"outlettype" : [ "float", "float" ],
					"id" : "obj-167",
					"fontname" : "Arial",
					"patching_rect" : [ 170.0, 92.0, 120.0, 20.0 ],
					"fontsize" : 12.0,
					"numinlets" : 2,
					"patcher" : 					{
						"fileversion" : 1,
						"rect" : [ 50.0, 94.0, 640.0, 612.0 ],
						"bglocked" : 0,
						"defrect" : [ 50.0, 94.0, 640.0, 612.0 ],
						"openrect" : [ 0.0, 0.0, 0.0, 0.0 ],
						"openinpresentation" : 0,
						"default_fontsize" : 12.0,
						"default_fontface" : 0,
						"default_fontname" : "Arial",
						"gridonopen" : 0,
						"gridsize" : [ 8.0, 8.0 ],
						"gridsnaponopen" : 0,
						"toolbarvisible" : 1,
						"boxanimatetime" : 200,
						"imprint" : 0,
						"enablehscroll" : 1,
						"enablevscroll" : 1,
						"devicewidth" : 0.0,
						"boxes" : [ 							{
								"box" : 								{
									"maxclass" : "comment",
									"text" : "< The trigger objects resets the urn objects and resets the counter as well as starting things off....",
									"numoutlets" : 0,
									"id" : "obj-122",
									"fontname" : "Arial",
									"patching_rect" : [ 209.5, 100.0, 619.0, 20.0 ],
									"fontsize" : 12.0,
									"numinlets" : 1
								}

							}
, 							{
								"box" : 								{
									"maxclass" : "comment",
									"text" : "< we have one urn for each parameter (note, velocity, duration). Why do we use three of them instead of one?",
									"numoutlets" : 0,
									"id" : "obj-123",
									"fontname" : "Arial",
									"patching_rect" : [ 479.5, 249.0, 619.0, 20.0 ],
									"fontsize" : 12.0,
									"numinlets" : 1
								}

							}
, 							{
								"box" : 								{
									"maxclass" : "newobj",
									"text" : "pack 0 0 4n",
									"numoutlets" : 1,
									"outlettype" : [ "" ],
									"id" : "obj-124",
									"fontname" : "Arial",
									"patching_rect" : [ 312.5, 447.0, 134.0, 20.0 ],
									"fontsize" : 12.0,
									"numinlets" : 3
								}

							}
, 							{
								"box" : 								{
									"maxclass" : "newobj",
									"text" : "delay 4n",
									"numoutlets" : 1,
									"outlettype" : [ "bang" ],
									"id" : "obj-125",
									"fontname" : "Arial",
									"patching_rect" : [ 431.5, 383.0, 56.0, 20.0 ],
									"fontsize" : 12.0,
									"numinlets" : 2
								}

							}
, 							{
								"box" : 								{
									"maxclass" : "newobj",
									"text" : "makenote 60 4n 100",
									"numoutlets" : 3,
									"outlettype" : [ "float", "float", "float" ],
									"id" : "obj-126",
									"fontname" : "Arial",
									"patching_rect" : [ 312.5, 475.0, 120.0, 20.0 ],
									"fontsize" : 12.0,
									"numinlets" : 4
								}

							}
, 							{
								"box" : 								{
									"maxclass" : "newobj",
									"text" : "t b 0 clear",
									"numoutlets" : 3,
									"outlettype" : [ "bang", "int", "clear" ],
									"id" : "obj-128",
									"fontname" : "Arial",
									"patching_rect" : [ 72.5, 103.0, 131.0, 19.0 ],
									"fontsize" : 10.533333,
									"numinlets" : 1
								}

							}
, 							{
								"box" : 								{
									"maxclass" : "button",
									"numoutlets" : 1,
									"outlettype" : [ "bang" ],
									"id" : "obj-129",
									"patching_rect" : [ 72.5, 192.0, 22.0, 22.0 ],
									"numinlets" : 1
								}

							}
, 							{
								"box" : 								{
									"maxclass" : "newobj",
									"text" : "* 10",
									"numoutlets" : 1,
									"outlettype" : [ "int" ],
									"id" : "obj-131",
									"fontname" : "Arial",
									"patching_rect" : [ 372.5, 307.0, 32.5, 20.0 ],
									"fontsize" : 12.0,
									"numinlets" : 2
								}

							}
, 							{
								"box" : 								{
									"maxclass" : "newobj",
									"text" : "+ 1",
									"numoutlets" : 1,
									"outlettype" : [ "int" ],
									"id" : "obj-132",
									"fontname" : "Arial",
									"patching_rect" : [ 372.5, 279.0, 32.5, 20.0 ],
									"fontsize" : 12.0,
									"numinlets" : 2
								}

							}
, 							{
								"box" : 								{
									"maxclass" : "newobj",
									"text" : "urn 12",
									"numoutlets" : 2,
									"outlettype" : [ "int", "bang" ],
									"id" : "obj-133",
									"fontname" : "Arial",
									"patching_rect" : [ 372.5, 250.0, 45.0, 21.0 ],
									"fontsize" : 12.288889,
									"numinlets" : 2
								}

							}
, 							{
								"box" : 								{
									"maxclass" : "newobj",
									"text" : "t b s s",
									"numoutlets" : 3,
									"outlettype" : [ "bang", "", "" ],
									"id" : "obj-135",
									"fontname" : "Arial",
									"patching_rect" : [ 431.5, 356.0, 92.0, 20.0 ],
									"fontsize" : 12.0,
									"numinlets" : 1
								}

							}
, 							{
								"box" : 								{
									"maxclass" : "newobj",
									"text" : "urn 12",
									"numoutlets" : 2,
									"outlettype" : [ "int", "bang" ],
									"id" : "obj-136",
									"fontname" : "Arial",
									"patching_rect" : [ 431.5, 250.0, 45.0, 21.0 ],
									"fontsize" : 12.288889,
									"numinlets" : 2
								}

							}
, 							{
								"box" : 								{
									"maxclass" : "newobj",
									"text" : "+ 48",
									"numoutlets" : 1,
									"outlettype" : [ "int" ],
									"id" : "obj-137",
									"fontname" : "Arial",
									"patching_rect" : [ 312.5, 279.0, 34.0, 20.0 ],
									"fontsize" : 12.0,
									"numinlets" : 2
								}

							}
, 							{
								"box" : 								{
									"maxclass" : "message",
									"text" : "8nt",
									"numoutlets" : 1,
									"outlettype" : [ "" ],
									"id" : "obj-138",
									"fontname" : "Arial",
									"patching_rect" : [ 812.5, 306.0, 32.5, 18.0 ],
									"fontsize" : 12.0,
									"numinlets" : 2
								}

							}
, 							{
								"box" : 								{
									"maxclass" : "message",
									"text" : "8nd",
									"numoutlets" : 1,
									"outlettype" : [ "" ],
									"id" : "obj-139",
									"fontname" : "Arial",
									"patching_rect" : [ 778.5, 306.0, 32.5, 18.0 ],
									"fontsize" : 12.0,
									"numinlets" : 2
								}

							}
, 							{
								"box" : 								{
									"maxclass" : "message",
									"text" : "8n",
									"numoutlets" : 1,
									"outlettype" : [ "" ],
									"id" : "obj-140",
									"fontname" : "Arial",
									"patching_rect" : [ 743.5, 306.0, 32.5, 18.0 ],
									"fontsize" : 12.0,
									"numinlets" : 2
								}

							}
, 							{
								"box" : 								{
									"maxclass" : "message",
									"text" : "4nt",
									"numoutlets" : 1,
									"outlettype" : [ "" ],
									"id" : "obj-141",
									"fontname" : "Arial",
									"patching_rect" : [ 708.5, 306.0, 32.5, 18.0 ],
									"fontsize" : 12.0,
									"numinlets" : 2
								}

							}
, 							{
								"box" : 								{
									"maxclass" : "message",
									"text" : "4nd",
									"numoutlets" : 1,
									"outlettype" : [ "" ],
									"id" : "obj-142",
									"fontname" : "Arial",
									"patching_rect" : [ 674.5, 306.0, 32.5, 18.0 ],
									"fontsize" : 12.0,
									"numinlets" : 2
								}

							}
, 							{
								"box" : 								{
									"maxclass" : "message",
									"text" : "4n",
									"numoutlets" : 1,
									"outlettype" : [ "" ],
									"id" : "obj-143",
									"fontname" : "Arial",
									"patching_rect" : [ 639.5, 306.0, 32.5, 18.0 ],
									"fontsize" : 12.0,
									"numinlets" : 2
								}

							}
, 							{
								"box" : 								{
									"maxclass" : "message",
									"text" : "2nt",
									"numoutlets" : 1,
									"outlettype" : [ "" ],
									"id" : "obj-144",
									"fontname" : "Arial",
									"patching_rect" : [ 604.5, 306.0, 32.5, 18.0 ],
									"fontsize" : 12.0,
									"numinlets" : 2
								}

							}
, 							{
								"box" : 								{
									"maxclass" : "message",
									"text" : "2nd",
									"numoutlets" : 1,
									"outlettype" : [ "" ],
									"id" : "obj-145",
									"fontname" : "Arial",
									"patching_rect" : [ 570.5, 306.0, 32.5, 18.0 ],
									"fontsize" : 12.0,
									"numinlets" : 2
								}

							}
, 							{
								"box" : 								{
									"maxclass" : "message",
									"text" : "2n",
									"numoutlets" : 1,
									"outlettype" : [ "" ],
									"id" : "obj-146",
									"fontname" : "Arial",
									"patching_rect" : [ 535.5, 306.0, 32.5, 18.0 ],
									"fontsize" : 12.0,
									"numinlets" : 2
								}

							}
, 							{
								"box" : 								{
									"maxclass" : "message",
									"text" : "1nt",
									"numoutlets" : 1,
									"outlettype" : [ "" ],
									"id" : "obj-147",
									"fontname" : "Arial",
									"patching_rect" : [ 500.5, 306.0, 32.5, 18.0 ],
									"fontsize" : 12.0,
									"numinlets" : 2
								}

							}
, 							{
								"box" : 								{
									"maxclass" : "message",
									"text" : "1nd",
									"numoutlets" : 1,
									"outlettype" : [ "" ],
									"id" : "obj-148",
									"fontname" : "Arial",
									"patching_rect" : [ 466.5, 306.0, 32.5, 18.0 ],
									"fontsize" : 12.0,
									"numinlets" : 2
								}

							}
, 							{
								"box" : 								{
									"maxclass" : "message",
									"text" : "1n",
									"numoutlets" : 1,
									"outlettype" : [ "" ],
									"id" : "obj-149",
									"fontname" : "Arial",
									"patching_rect" : [ 431.5, 306.0, 32.5, 18.0 ],
									"fontsize" : 12.0,
									"numinlets" : 2
								}

							}
, 							{
								"box" : 								{
									"maxclass" : "newobj",
									"text" : "route 0 1 2 3 4 5 6 7 8 9 10 11",
									"numoutlets" : 13,
									"outlettype" : [ "", "", "", "", "", "", "", "", "", "", "", "", "" ],
									"id" : "obj-150",
									"fontname" : "Arial",
									"patching_rect" : [ 431.5, 279.0, 435.0, 20.0 ],
									"fontsize" : 12.0,
									"numinlets" : 1
								}

							}
, 							{
								"box" : 								{
									"maxclass" : "newobj",
									"text" : "counter 0 0 11",
									"numoutlets" : 4,
									"outlettype" : [ "int", "", "", "int" ],
									"id" : "obj-151",
									"fontname" : "Arial",
									"patching_rect" : [ 72.5, 163.0, 131.0, 21.0 ],
									"fontsize" : 12.288889,
									"numinlets" : 5
								}

							}
, 							{
								"box" : 								{
									"maxclass" : "newobj",
									"text" : "urn 12",
									"numoutlets" : 2,
									"outlettype" : [ "int", "bang" ],
									"id" : "obj-152",
									"fontname" : "Arial",
									"patching_rect" : [ 312.5, 250.0, 45.0, 21.0 ],
									"fontsize" : 12.288889,
									"numinlets" : 2
								}

							}
, 							{
								"box" : 								{
									"maxclass" : "inlet",
									"numoutlets" : 1,
									"outlettype" : [ "bang" ],
									"id" : "obj-153",
									"patching_rect" : [ 72.5, 40.0, 25.0, 25.0 ],
									"numinlets" : 0,
									"comment" : ""
								}

							}
, 							{
								"box" : 								{
									"maxclass" : "inlet",
									"numoutlets" : 1,
									"outlettype" : [ "int" ],
									"id" : "obj-154",
									"patching_rect" : [ 327.5, 40.0, 25.0, 25.0 ],
									"numinlets" : 0,
									"comment" : ""
								}

							}
, 							{
								"box" : 								{
									"maxclass" : "outlet",
									"numoutlets" : 0,
									"id" : "obj-156",
									"patching_rect" : [ 342.5, 555.0, 25.0, 25.0 ],
									"numinlets" : 1,
									"comment" : ""
								}

							}
, 							{
								"box" : 								{
									"maxclass" : "outlet",
									"numoutlets" : 0,
									"id" : "obj-157",
									"patching_rect" : [ 362.5, 555.0, 25.0, 25.0 ],
									"numinlets" : 1,
									"comment" : ""
								}

							}
 ],
						"lines" : [ 							{
								"patchline" : 								{
									"source" : [ "obj-152", 0 ],
									"destination" : [ "obj-137", 0 ],
									"hidden" : 0,
									"midpoints" : [  ]
								}

							}
, 							{
								"patchline" : 								{
									"source" : [ "obj-137", 0 ],
									"destination" : [ "obj-124", 0 ],
									"hidden" : 0,
									"midpoints" : [  ]
								}

							}
, 							{
								"patchline" : 								{
									"source" : [ "obj-124", 0 ],
									"destination" : [ "obj-126", 0 ],
									"hidden" : 0,
									"midpoints" : [  ]
								}

							}
, 							{
								"patchline" : 								{
									"source" : [ "obj-131", 0 ],
									"destination" : [ "obj-124", 1 ],
									"hidden" : 0,
									"midpoints" : [  ]
								}

							}
, 							{
								"patchline" : 								{
									"source" : [ "obj-135", 2 ],
									"destination" : [ "obj-124", 2 ],
									"hidden" : 0,
									"midpoints" : [ 514.0, 430.0, 437.0, 430.0 ]
								}

							}
, 							{
								"patchline" : 								{
									"source" : [ "obj-149", 0 ],
									"destination" : [ "obj-135", 0 ],
									"hidden" : 0,
									"midpoints" : [  ]
								}

							}
, 							{
								"patchline" : 								{
									"source" : [ "obj-148", 0 ],
									"destination" : [ "obj-135", 0 ],
									"hidden" : 0,
									"midpoints" : [  ]
								}

							}
, 							{
								"patchline" : 								{
									"source" : [ "obj-147", 0 ],
									"destination" : [ "obj-135", 0 ],
									"hidden" : 0,
									"midpoints" : [  ]
								}

							}
, 							{
								"patchline" : 								{
									"source" : [ "obj-146", 0 ],
									"destination" : [ "obj-135", 0 ],
									"hidden" : 0,
									"midpoints" : [  ]
								}

							}
, 							{
								"patchline" : 								{
									"source" : [ "obj-145", 0 ],
									"destination" : [ "obj-135", 0 ],
									"hidden" : 0,
									"midpoints" : [  ]
								}

							}
, 							{
								"patchline" : 								{
									"source" : [ "obj-144", 0 ],
									"destination" : [ "obj-135", 0 ],
									"hidden" : 0,
									"midpoints" : [  ]
								}

							}
, 							{
								"patchline" : 								{
									"source" : [ "obj-143", 0 ],
									"destination" : [ "obj-135", 0 ],
									"hidden" : 0,
									"midpoints" : [  ]
								}

							}
, 							{
								"patchline" : 								{
									"source" : [ "obj-142", 0 ],
									"destination" : [ "obj-135", 0 ],
									"hidden" : 0,
									"midpoints" : [  ]
								}

							}
, 							{
								"patchline" : 								{
									"source" : [ "obj-141", 0 ],
									"destination" : [ "obj-135", 0 ],
									"hidden" : 0,
									"midpoints" : [  ]
								}

							}
, 							{
								"patchline" : 								{
									"source" : [ "obj-140", 0 ],
									"destination" : [ "obj-135", 0 ],
									"hidden" : 0,
									"midpoints" : [  ]
								}

							}
, 							{
								"patchline" : 								{
									"source" : [ "obj-139", 0 ],
									"destination" : [ "obj-135", 0 ],
									"hidden" : 0,
									"midpoints" : [  ]
								}

							}
, 							{
								"patchline" : 								{
									"source" : [ "obj-138", 0 ],
									"destination" : [ "obj-135", 0 ],
									"hidden" : 0,
									"midpoints" : [  ]
								}

							}
, 							{
								"patchline" : 								{
									"source" : [ "obj-135", 1 ],
									"destination" : [ "obj-125", 1 ],
									"hidden" : 0,
									"midpoints" : [  ]
								}

							}
, 							{
								"patchline" : 								{
									"source" : [ "obj-135", 0 ],
									"destination" : [ "obj-125", 0 ],
									"hidden" : 0,
									"midpoints" : [  ]
								}

							}
, 							{
								"patchline" : 								{
									"source" : [ "obj-125", 0 ],
									"destination" : [ "obj-151", 0 ],
									"hidden" : 0,
									"midpoints" : [ 441.0, 418.0, 57.0, 418.0, 57.0, 153.0, 82.0, 153.0 ]
								}

							}
, 							{
								"patchline" : 								{
									"source" : [ "obj-128", 0 ],
									"destination" : [ "obj-151", 0 ],
									"hidden" : 0,
									"midpoints" : [  ]
								}

							}
, 							{
								"patchline" : 								{
									"source" : [ "obj-128", 1 ],
									"destination" : [ "obj-151", 2 ],
									"hidden" : 0,
									"midpoints" : [  ]
								}

							}
, 							{
								"patchline" : 								{
									"source" : [ "obj-128", 2 ],
									"destination" : [ "obj-152", 0 ],
									"hidden" : 0,
									"midpoints" : [  ]
								}

							}
, 							{
								"patchline" : 								{
									"source" : [ "obj-128", 2 ],
									"destination" : [ "obj-133", 0 ],
									"hidden" : 0,
									"midpoints" : [  ]
								}

							}
, 							{
								"patchline" : 								{
									"source" : [ "obj-128", 2 ],
									"destination" : [ "obj-136", 0 ],
									"hidden" : 0,
									"midpoints" : [  ]
								}

							}
, 							{
								"patchline" : 								{
									"source" : [ "obj-129", 0 ],
									"destination" : [ "obj-136", 0 ],
									"hidden" : 0,
									"midpoints" : [  ]
								}

							}
, 							{
								"patchline" : 								{
									"source" : [ "obj-129", 0 ],
									"destination" : [ "obj-133", 0 ],
									"hidden" : 0,
									"midpoints" : [  ]
								}

							}
, 							{
								"patchline" : 								{
									"source" : [ "obj-129", 0 ],
									"destination" : [ "obj-152", 0 ],
									"hidden" : 0,
									"midpoints" : [  ]
								}

							}
, 							{
								"patchline" : 								{
									"source" : [ "obj-136", 0 ],
									"destination" : [ "obj-150", 0 ],
									"hidden" : 0,
									"midpoints" : [  ]
								}

							}
, 							{
								"patchline" : 								{
									"source" : [ "obj-133", 0 ],
									"destination" : [ "obj-132", 0 ],
									"hidden" : 0,
									"midpoints" : [  ]
								}

							}
, 							{
								"patchline" : 								{
									"source" : [ "obj-151", 0 ],
									"destination" : [ "obj-129", 0 ],
									"hidden" : 0,
									"midpoints" : [  ]
								}

							}
, 							{
								"patchline" : 								{
									"source" : [ "obj-132", 0 ],
									"destination" : [ "obj-131", 0 ],
									"hidden" : 0,
									"midpoints" : [  ]
								}

							}
, 							{
								"patchline" : 								{
									"source" : [ "obj-150", 11 ],
									"destination" : [ "obj-138", 0 ],
									"hidden" : 0,
									"midpoints" : [  ]
								}

							}
, 							{
								"patchline" : 								{
									"source" : [ "obj-150", 10 ],
									"destination" : [ "obj-139", 0 ],
									"hidden" : 0,
									"midpoints" : [  ]
								}

							}
, 							{
								"patchline" : 								{
									"source" : [ "obj-150", 9 ],
									"destination" : [ "obj-140", 0 ],
									"hidden" : 0,
									"midpoints" : [  ]
								}

							}
, 							{
								"patchline" : 								{
									"source" : [ "obj-150", 8 ],
									"destination" : [ "obj-141", 0 ],
									"hidden" : 0,
									"midpoints" : [  ]
								}

							}
, 							{
								"patchline" : 								{
									"source" : [ "obj-150", 7 ],
									"destination" : [ "obj-142", 0 ],
									"hidden" : 0,
									"midpoints" : [  ]
								}

							}
, 							{
								"patchline" : 								{
									"source" : [ "obj-150", 6 ],
									"destination" : [ "obj-143", 0 ],
									"hidden" : 0,
									"midpoints" : [  ]
								}

							}
, 							{
								"patchline" : 								{
									"source" : [ "obj-150", 5 ],
									"destination" : [ "obj-144", 0 ],
									"hidden" : 0,
									"midpoints" : [  ]
								}

							}
, 							{
								"patchline" : 								{
									"source" : [ "obj-150", 4 ],
									"destination" : [ "obj-145", 0 ],
									"hidden" : 0,
									"midpoints" : [  ]
								}

							}
, 							{
								"patchline" : 								{
									"source" : [ "obj-150", 3 ],
									"destination" : [ "obj-146", 0 ],
									"hidden" : 0,
									"midpoints" : [  ]
								}

							}
, 							{
								"patchline" : 								{
									"source" : [ "obj-150", 2 ],
									"destination" : [ "obj-147", 0 ],
									"hidden" : 0,
									"midpoints" : [  ]
								}

							}
, 							{
								"patchline" : 								{
									"source" : [ "obj-150", 1 ],
									"destination" : [ "obj-148", 0 ],
									"hidden" : 0,
									"midpoints" : [  ]
								}

							}
, 							{
								"patchline" : 								{
									"source" : [ "obj-150", 0 ],
									"destination" : [ "obj-149", 0 ],
									"hidden" : 0,
									"midpoints" : [  ]
								}

							}
, 							{
								"patchline" : 								{
									"source" : [ "obj-153", 0 ],
									"destination" : [ "obj-128", 0 ],
									"hidden" : 0,
									"midpoints" : [  ]
								}

							}
, 							{
								"patchline" : 								{
									"source" : [ "obj-154", 0 ],
									"destination" : [ "obj-137", 1 ],
									"hidden" : 0,
									"midpoints" : [  ]
								}

							}
, 							{
								"patchline" : 								{
									"source" : [ "obj-126", 0 ],
									"destination" : [ "obj-156", 0 ],
									"hidden" : 0,
									"midpoints" : [  ]
								}

							}
, 							{
								"patchline" : 								{
									"source" : [ "obj-126", 1 ],
									"destination" : [ "obj-157", 0 ],
									"hidden" : 0,
									"midpoints" : [  ]
								}

							}
 ]
					}
,
					"saved_object_attributes" : 					{
						"default_fontface" : 0,
						"fontname" : "Arial",
						"default_fontname" : "Arial",
						"globalpatchername" : "",
						"default_fontsize" : 12.0,
						"fontface" : 0,
						"fontsize" : 12.0
					}

				}

			}
, 			{
				"box" : 				{
					"maxclass" : "number",
					"numoutlets" : 2,
					"outlettype" : [ "int", "bang" ],
					"id" : "obj-168",
					"fontname" : "Arial",
					"patching_rect" : [ 271.0, 22.0, 50.0, 20.0 ],
					"fontsize" : 12.0,
					"numinlets" : 1
				}

			}
, 			{
				"box" : 				{
					"maxclass" : "newobj",
					"text" : "p serial_row",
					"numoutlets" : 2,
					"outlettype" : [ "float", "float" ],
					"id" : "obj-163",
					"fontname" : "Arial",
					"patching_rect" : [ 15.0, 92.0, 120.0, 20.0 ],
					"fontsize" : 12.0,
					"numinlets" : 2,
					"patcher" : 					{
						"fileversion" : 1,
						"rect" : [ 25.0, 69.0, 720.0, 701.0 ],
						"bglocked" : 0,
						"defrect" : [ 25.0, 69.0, 720.0, 701.0 ],
						"openrect" : [ 0.0, 0.0, 0.0, 0.0 ],
						"openinpresentation" : 0,
						"default_fontsize" : 12.0,
						"default_fontface" : 0,
						"default_fontname" : "Arial",
						"gridonopen" : 0,
						"gridsize" : [ 8.0, 8.0 ],
						"gridsnaponopen" : 0,
						"toolbarvisible" : 1,
						"boxanimatetime" : 200,
						"imprint" : 0,
						"enablehscroll" : 1,
						"enablevscroll" : 1,
						"devicewidth" : 0.0,
						"boxes" : [ 							{
								"box" : 								{
									"maxclass" : "comment",
									"text" : "< The trigger objects resets the urn objects and resets the counter as well as starting things off....",
									"numoutlets" : 0,
									"id" : "obj-122",
									"fontname" : "Arial",
									"patching_rect" : [ 209.5, 100.0, 619.0, 20.0 ],
									"fontsize" : 12.0,
									"numinlets" : 1
								}

							}
, 							{
								"box" : 								{
									"maxclass" : "comment",
									"text" : "< we have one urn for each parameter (note, velocity, duration). Why do we use three of them instead of one?",
									"numoutlets" : 0,
									"id" : "obj-123",
									"fontname" : "Arial",
									"patching_rect" : [ 479.5, 249.0, 619.0, 20.0 ],
									"fontsize" : 12.0,
									"numinlets" : 1
								}

							}
, 							{
								"box" : 								{
									"maxclass" : "newobj",
									"text" : "pack 0 0 4n",
									"numoutlets" : 1,
									"outlettype" : [ "" ],
									"id" : "obj-124",
									"fontname" : "Arial",
									"patching_rect" : [ 312.5, 447.0, 73.0, 20.0 ],
									"fontsize" : 12.0,
									"numinlets" : 3
								}

							}
, 							{
								"box" : 								{
									"maxclass" : "newobj",
									"text" : "delay 4n",
									"numoutlets" : 1,
									"outlettype" : [ "bang" ],
									"id" : "obj-125",
									"fontname" : "Arial",
									"patching_rect" : [ 431.5, 383.0, 56.0, 20.0 ],
									"fontsize" : 12.0,
									"numinlets" : 2
								}

							}
, 							{
								"box" : 								{
									"maxclass" : "newobj",
									"text" : "makenote 60 4n",
									"numoutlets" : 2,
									"outlettype" : [ "float", "float" ],
									"id" : "obj-126",
									"fontname" : "Arial",
									"patching_rect" : [ 312.5, 475.0, 97.0, 20.0 ],
									"fontsize" : 12.0,
									"numinlets" : 3
								}

							}
, 							{
								"box" : 								{
									"maxclass" : "newobj",
									"text" : "t b 0 clear",
									"numoutlets" : 3,
									"outlettype" : [ "bang", "int", "clear" ],
									"id" : "obj-128",
									"fontname" : "Arial",
									"patching_rect" : [ 72.5, 103.0, 131.0, 19.0 ],
									"fontsize" : 10.533333,
									"numinlets" : 1
								}

							}
, 							{
								"box" : 								{
									"maxclass" : "button",
									"numoutlets" : 1,
									"outlettype" : [ "bang" ],
									"id" : "obj-129",
									"patching_rect" : [ 72.5, 192.0, 22.0, 22.0 ],
									"numinlets" : 1
								}

							}
, 							{
								"box" : 								{
									"maxclass" : "newobj",
									"text" : "* 10",
									"numoutlets" : 1,
									"outlettype" : [ "int" ],
									"id" : "obj-131",
									"fontname" : "Arial",
									"patching_rect" : [ 372.5, 307.0, 32.5, 20.0 ],
									"fontsize" : 12.0,
									"numinlets" : 2
								}

							}
, 							{
								"box" : 								{
									"maxclass" : "newobj",
									"text" : "+ 1",
									"numoutlets" : 1,
									"outlettype" : [ "int" ],
									"id" : "obj-132",
									"fontname" : "Arial",
									"patching_rect" : [ 372.5, 279.0, 32.5, 20.0 ],
									"fontsize" : 12.0,
									"numinlets" : 2
								}

							}
, 							{
								"box" : 								{
									"maxclass" : "newobj",
									"text" : "urn 12",
									"numoutlets" : 2,
									"outlettype" : [ "int", "bang" ],
									"id" : "obj-133",
									"fontname" : "Arial",
									"patching_rect" : [ 372.5, 250.0, 45.0, 21.0 ],
									"fontsize" : 12.288889,
									"numinlets" : 2
								}

							}
, 							{
								"box" : 								{
									"maxclass" : "newobj",
									"text" : "t b s s",
									"numoutlets" : 3,
									"outlettype" : [ "bang", "", "" ],
									"id" : "obj-135",
									"fontname" : "Arial",
									"patching_rect" : [ 431.5, 356.0, 92.0, 20.0 ],
									"fontsize" : 12.0,
									"numinlets" : 1
								}

							}
, 							{
								"box" : 								{
									"maxclass" : "newobj",
									"text" : "urn 12",
									"numoutlets" : 2,
									"outlettype" : [ "int", "bang" ],
									"id" : "obj-136",
									"fontname" : "Arial",
									"patching_rect" : [ 431.5, 250.0, 45.0, 21.0 ],
									"fontsize" : 12.288889,
									"numinlets" : 2
								}

							}
, 							{
								"box" : 								{
									"maxclass" : "newobj",
									"text" : "+ 48",
									"numoutlets" : 1,
									"outlettype" : [ "int" ],
									"id" : "obj-137",
									"fontname" : "Arial",
									"patching_rect" : [ 312.5, 279.0, 34.0, 20.0 ],
									"fontsize" : 12.0,
									"numinlets" : 2
								}

							}
, 							{
								"box" : 								{
									"maxclass" : "message",
									"text" : "8nt",
									"numoutlets" : 1,
									"outlettype" : [ "" ],
									"id" : "obj-138",
									"fontname" : "Arial",
									"patching_rect" : [ 812.5, 306.0, 32.5, 18.0 ],
									"fontsize" : 12.0,
									"numinlets" : 2
								}

							}
, 							{
								"box" : 								{
									"maxclass" : "message",
									"text" : "8nd",
									"numoutlets" : 1,
									"outlettype" : [ "" ],
									"id" : "obj-139",
									"fontname" : "Arial",
									"patching_rect" : [ 778.5, 306.0, 32.5, 18.0 ],
									"fontsize" : 12.0,
									"numinlets" : 2
								}

							}
, 							{
								"box" : 								{
									"maxclass" : "message",
									"text" : "8n",
									"numoutlets" : 1,
									"outlettype" : [ "" ],
									"id" : "obj-140",
									"fontname" : "Arial",
									"patching_rect" : [ 743.5, 306.0, 32.5, 18.0 ],
									"fontsize" : 12.0,
									"numinlets" : 2
								}

							}
, 							{
								"box" : 								{
									"maxclass" : "message",
									"text" : "4nt",
									"numoutlets" : 1,
									"outlettype" : [ "" ],
									"id" : "obj-141",
									"fontname" : "Arial",
									"patching_rect" : [ 708.5, 306.0, 32.5, 18.0 ],
									"fontsize" : 12.0,
									"numinlets" : 2
								}

							}
, 							{
								"box" : 								{
									"maxclass" : "message",
									"text" : "4nd",
									"numoutlets" : 1,
									"outlettype" : [ "" ],
									"id" : "obj-142",
									"fontname" : "Arial",
									"patching_rect" : [ 674.5, 306.0, 32.5, 18.0 ],
									"fontsize" : 12.0,
									"numinlets" : 2
								}

							}
, 							{
								"box" : 								{
									"maxclass" : "message",
									"text" : "4n",
									"numoutlets" : 1,
									"outlettype" : [ "" ],
									"id" : "obj-143",
									"fontname" : "Arial",
									"patching_rect" : [ 639.5, 306.0, 32.5, 18.0 ],
									"fontsize" : 12.0,
									"numinlets" : 2
								}

							}
, 							{
								"box" : 								{
									"maxclass" : "message",
									"text" : "2nt",
									"numoutlets" : 1,
									"outlettype" : [ "" ],
									"id" : "obj-144",
									"fontname" : "Arial",
									"patching_rect" : [ 604.5, 306.0, 32.5, 18.0 ],
									"fontsize" : 12.0,
									"numinlets" : 2
								}

							}
, 							{
								"box" : 								{
									"maxclass" : "message",
									"text" : "2nd",
									"numoutlets" : 1,
									"outlettype" : [ "" ],
									"id" : "obj-145",
									"fontname" : "Arial",
									"patching_rect" : [ 570.5, 306.0, 32.5, 18.0 ],
									"fontsize" : 12.0,
									"numinlets" : 2
								}

							}
, 							{
								"box" : 								{
									"maxclass" : "message",
									"text" : "2n",
									"numoutlets" : 1,
									"outlettype" : [ "" ],
									"id" : "obj-146",
									"fontname" : "Arial",
									"patching_rect" : [ 535.5, 306.0, 32.5, 18.0 ],
									"fontsize" : 12.0,
									"numinlets" : 2
								}

							}
, 							{
								"box" : 								{
									"maxclass" : "message",
									"text" : "1nt",
									"numoutlets" : 1,
									"outlettype" : [ "" ],
									"id" : "obj-147",
									"fontname" : "Arial",
									"patching_rect" : [ 500.5, 306.0, 32.5, 18.0 ],
									"fontsize" : 12.0,
									"numinlets" : 2
								}

							}
, 							{
								"box" : 								{
									"maxclass" : "message",
									"text" : "1nd",
									"numoutlets" : 1,
									"outlettype" : [ "" ],
									"id" : "obj-148",
									"fontname" : "Arial",
									"patching_rect" : [ 466.5, 306.0, 32.5, 18.0 ],
									"fontsize" : 12.0,
									"numinlets" : 2
								}

							}
, 							{
								"box" : 								{
									"maxclass" : "message",
									"text" : "1n",
									"numoutlets" : 1,
									"outlettype" : [ "" ],
									"id" : "obj-149",
									"fontname" : "Arial",
									"patching_rect" : [ 431.5, 306.0, 32.5, 18.0 ],
									"fontsize" : 12.0,
									"numinlets" : 2
								}

							}
, 							{
								"box" : 								{
									"maxclass" : "newobj",
									"text" : "route 0 1 2 3 4 5 6 7 8 9 10 11",
									"numoutlets" : 13,
									"outlettype" : [ "", "", "", "", "", "", "", "", "", "", "", "", "" ],
									"id" : "obj-150",
									"fontname" : "Arial",
									"patching_rect" : [ 431.5, 279.0, 435.0, 20.0 ],
									"fontsize" : 12.0,
									"numinlets" : 1
								}

							}
, 							{
								"box" : 								{
									"maxclass" : "newobj",
									"text" : "counter 0 0 11",
									"numoutlets" : 4,
									"outlettype" : [ "int", "", "", "int" ],
									"id" : "obj-151",
									"fontname" : "Arial",
									"patching_rect" : [ 72.5, 163.0, 131.0, 21.0 ],
									"fontsize" : 12.288889,
									"numinlets" : 5
								}

							}
, 							{
								"box" : 								{
									"maxclass" : "newobj",
									"text" : "urn 12",
									"numoutlets" : 2,
									"outlettype" : [ "int", "bang" ],
									"id" : "obj-152",
									"fontname" : "Arial",
									"patching_rect" : [ 312.5, 250.0, 45.0, 21.0 ],
									"fontsize" : 12.288889,
									"numinlets" : 2
								}

							}
, 							{
								"box" : 								{
									"maxclass" : "inlet",
									"numoutlets" : 1,
									"outlettype" : [ "bang" ],
									"id" : "obj-153",
									"patching_rect" : [ 72.5, 40.0, 25.0, 25.0 ],
									"numinlets" : 0,
									"comment" : ""
								}

							}
, 							{
								"box" : 								{
									"maxclass" : "inlet",
									"numoutlets" : 1,
									"outlettype" : [ "int" ],
									"id" : "obj-154",
									"patching_rect" : [ 327.5, 40.0, 25.0, 25.0 ],
									"numinlets" : 0,
									"comment" : ""
								}

							}
, 							{
								"box" : 								{
									"maxclass" : "outlet",
									"numoutlets" : 0,
									"id" : "obj-156",
									"patching_rect" : [ 342.5, 555.0, 25.0, 25.0 ],
									"numinlets" : 1,
									"comment" : ""
								}

							}
, 							{
								"box" : 								{
									"maxclass" : "outlet",
									"numoutlets" : 0,
									"id" : "obj-157",
									"patching_rect" : [ 362.5, 555.0, 25.0, 25.0 ],
									"numinlets" : 1,
									"comment" : ""
								}

							}
 ],
						"lines" : [ 							{
								"patchline" : 								{
									"source" : [ "obj-154", 0 ],
									"destination" : [ "obj-137", 1 ],
									"hidden" : 0,
									"midpoints" : [  ]
								}

							}
, 							{
								"patchline" : 								{
									"source" : [ "obj-153", 0 ],
									"destination" : [ "obj-128", 0 ],
									"hidden" : 0,
									"midpoints" : [  ]
								}

							}
, 							{
								"patchline" : 								{
									"source" : [ "obj-150", 0 ],
									"destination" : [ "obj-149", 0 ],
									"hidden" : 0,
									"midpoints" : [  ]
								}

							}
, 							{
								"patchline" : 								{
									"source" : [ "obj-150", 1 ],
									"destination" : [ "obj-148", 0 ],
									"hidden" : 0,
									"midpoints" : [  ]
								}

							}
, 							{
								"patchline" : 								{
									"source" : [ "obj-150", 2 ],
									"destination" : [ "obj-147", 0 ],
									"hidden" : 0,
									"midpoints" : [  ]
								}

							}
, 							{
								"patchline" : 								{
									"source" : [ "obj-150", 3 ],
									"destination" : [ "obj-146", 0 ],
									"hidden" : 0,
									"midpoints" : [  ]
								}

							}
, 							{
								"patchline" : 								{
									"source" : [ "obj-150", 4 ],
									"destination" : [ "obj-145", 0 ],
									"hidden" : 0,
									"midpoints" : [  ]
								}

							}
, 							{
								"patchline" : 								{
									"source" : [ "obj-150", 5 ],
									"destination" : [ "obj-144", 0 ],
									"hidden" : 0,
									"midpoints" : [  ]
								}

							}
, 							{
								"patchline" : 								{
									"source" : [ "obj-150", 6 ],
									"destination" : [ "obj-143", 0 ],
									"hidden" : 0,
									"midpoints" : [  ]
								}

							}
, 							{
								"patchline" : 								{
									"source" : [ "obj-150", 7 ],
									"destination" : [ "obj-142", 0 ],
									"hidden" : 0,
									"midpoints" : [  ]
								}

							}
, 							{
								"patchline" : 								{
									"source" : [ "obj-150", 8 ],
									"destination" : [ "obj-141", 0 ],
									"hidden" : 0,
									"midpoints" : [  ]
								}

							}
, 							{
								"patchline" : 								{
									"source" : [ "obj-150", 9 ],
									"destination" : [ "obj-140", 0 ],
									"hidden" : 0,
									"midpoints" : [  ]
								}

							}
, 							{
								"patchline" : 								{
									"source" : [ "obj-150", 10 ],
									"destination" : [ "obj-139", 0 ],
									"hidden" : 0,
									"midpoints" : [  ]
								}

							}
, 							{
								"patchline" : 								{
									"source" : [ "obj-150", 11 ],
									"destination" : [ "obj-138", 0 ],
									"hidden" : 0,
									"midpoints" : [  ]
								}

							}
, 							{
								"patchline" : 								{
									"source" : [ "obj-132", 0 ],
									"destination" : [ "obj-131", 0 ],
									"hidden" : 0,
									"midpoints" : [  ]
								}

							}
, 							{
								"patchline" : 								{
									"source" : [ "obj-151", 0 ],
									"destination" : [ "obj-129", 0 ],
									"hidden" : 0,
									"midpoints" : [  ]
								}

							}
, 							{
								"patchline" : 								{
									"source" : [ "obj-133", 0 ],
									"destination" : [ "obj-132", 0 ],
									"hidden" : 0,
									"midpoints" : [  ]
								}

							}
, 							{
								"patchline" : 								{
									"source" : [ "obj-136", 0 ],
									"destination" : [ "obj-150", 0 ],
									"hidden" : 0,
									"midpoints" : [  ]
								}

							}
, 							{
								"patchline" : 								{
									"source" : [ "obj-129", 0 ],
									"destination" : [ "obj-152", 0 ],
									"hidden" : 0,
									"midpoints" : [  ]
								}

							}
, 							{
								"patchline" : 								{
									"source" : [ "obj-129", 0 ],
									"destination" : [ "obj-133", 0 ],
									"hidden" : 0,
									"midpoints" : [  ]
								}

							}
, 							{
								"patchline" : 								{
									"source" : [ "obj-129", 0 ],
									"destination" : [ "obj-136", 0 ],
									"hidden" : 0,
									"midpoints" : [  ]
								}

							}
, 							{
								"patchline" : 								{
									"source" : [ "obj-128", 2 ],
									"destination" : [ "obj-136", 0 ],
									"hidden" : 0,
									"midpoints" : [  ]
								}

							}
, 							{
								"patchline" : 								{
									"source" : [ "obj-128", 2 ],
									"destination" : [ "obj-133", 0 ],
									"hidden" : 0,
									"midpoints" : [  ]
								}

							}
, 							{
								"patchline" : 								{
									"source" : [ "obj-128", 2 ],
									"destination" : [ "obj-152", 0 ],
									"hidden" : 0,
									"midpoints" : [  ]
								}

							}
, 							{
								"patchline" : 								{
									"source" : [ "obj-128", 1 ],
									"destination" : [ "obj-151", 2 ],
									"hidden" : 0,
									"midpoints" : [  ]
								}

							}
, 							{
								"patchline" : 								{
									"source" : [ "obj-128", 0 ],
									"destination" : [ "obj-151", 0 ],
									"hidden" : 0,
									"midpoints" : [  ]
								}

							}
, 							{
								"patchline" : 								{
									"source" : [ "obj-125", 0 ],
									"destination" : [ "obj-151", 0 ],
									"hidden" : 0,
									"midpoints" : [ 441.0, 418.0, 57.0, 418.0, 57.0, 153.0, 82.0, 153.0 ]
								}

							}
, 							{
								"patchline" : 								{
									"source" : [ "obj-135", 0 ],
									"destination" : [ "obj-125", 0 ],
									"hidden" : 0,
									"midpoints" : [  ]
								}

							}
, 							{
								"patchline" : 								{
									"source" : [ "obj-135", 1 ],
									"destination" : [ "obj-125", 1 ],
									"hidden" : 0,
									"midpoints" : [  ]
								}

							}
, 							{
								"patchline" : 								{
									"source" : [ "obj-138", 0 ],
									"destination" : [ "obj-135", 0 ],
									"hidden" : 0,
									"midpoints" : [  ]
								}

							}
, 							{
								"patchline" : 								{
									"source" : [ "obj-139", 0 ],
									"destination" : [ "obj-135", 0 ],
									"hidden" : 0,
									"midpoints" : [  ]
								}

							}
, 							{
								"patchline" : 								{
									"source" : [ "obj-140", 0 ],
									"destination" : [ "obj-135", 0 ],
									"hidden" : 0,
									"midpoints" : [  ]
								}

							}
, 							{
								"patchline" : 								{
									"source" : [ "obj-141", 0 ],
									"destination" : [ "obj-135", 0 ],
									"hidden" : 0,
									"midpoints" : [  ]
								}

							}
, 							{
								"patchline" : 								{
									"source" : [ "obj-142", 0 ],
									"destination" : [ "obj-135", 0 ],
									"hidden" : 0,
									"midpoints" : [  ]
								}

							}
, 							{
								"patchline" : 								{
									"source" : [ "obj-143", 0 ],
									"destination" : [ "obj-135", 0 ],
									"hidden" : 0,
									"midpoints" : [  ]
								}

							}
, 							{
								"patchline" : 								{
									"source" : [ "obj-144", 0 ],
									"destination" : [ "obj-135", 0 ],
									"hidden" : 0,
									"midpoints" : [  ]
								}

							}
, 							{
								"patchline" : 								{
									"source" : [ "obj-145", 0 ],
									"destination" : [ "obj-135", 0 ],
									"hidden" : 0,
									"midpoints" : [  ]
								}

							}
, 							{
								"patchline" : 								{
									"source" : [ "obj-146", 0 ],
									"destination" : [ "obj-135", 0 ],
									"hidden" : 0,
									"midpoints" : [  ]
								}

							}
, 							{
								"patchline" : 								{
									"source" : [ "obj-147", 0 ],
									"destination" : [ "obj-135", 0 ],
									"hidden" : 0,
									"midpoints" : [  ]
								}

							}
, 							{
								"patchline" : 								{
									"source" : [ "obj-148", 0 ],
									"destination" : [ "obj-135", 0 ],
									"hidden" : 0,
									"midpoints" : [  ]
								}

							}
, 							{
								"patchline" : 								{
									"source" : [ "obj-149", 0 ],
									"destination" : [ "obj-135", 0 ],
									"hidden" : 0,
									"midpoints" : [  ]
								}

							}
, 							{
								"patchline" : 								{
									"source" : [ "obj-152", 0 ],
									"destination" : [ "obj-137", 0 ],
									"hidden" : 0,
									"midpoints" : [  ]
								}

							}
, 							{
								"patchline" : 								{
									"source" : [ "obj-126", 1 ],
									"destination" : [ "obj-157", 0 ],
									"hidden" : 0,
									"midpoints" : [  ]
								}

							}
, 							{
								"patchline" : 								{
									"source" : [ "obj-126", 0 ],
									"destination" : [ "obj-156", 0 ],
									"hidden" : 0,
									"midpoints" : [  ]
								}

							}
, 							{
								"patchline" : 								{
									"source" : [ "obj-131", 0 ],
									"destination" : [ "obj-124", 1 ],
									"hidden" : 0,
									"midpoints" : [  ]
								}

							}
, 							{
								"patchline" : 								{
									"source" : [ "obj-137", 0 ],
									"destination" : [ "obj-124", 0 ],
									"hidden" : 0,
									"midpoints" : [  ]
								}

							}
, 							{
								"patchline" : 								{
									"source" : [ "obj-124", 0 ],
									"destination" : [ "obj-126", 0 ],
									"hidden" : 0,
									"midpoints" : [  ]
								}

							}
, 							{
								"patchline" : 								{
									"source" : [ "obj-135", 2 ],
									"destination" : [ "obj-124", 2 ],
									"hidden" : 0,
									"midpoints" : [ 514.0, 428.0, 376.0, 428.0 ]
								}

							}
 ]
					}
,
					"saved_object_attributes" : 					{
						"default_fontface" : 0,
						"fontname" : "Arial",
						"default_fontname" : "Arial",
						"globalpatchername" : "",
						"default_fontsize" : 12.0,
						"fontface" : 0,
						"fontsize" : 12.0
					}

				}

			}
, 			{
				"box" : 				{
					"maxclass" : "number",
					"numoutlets" : 2,
					"outlettype" : [ "int", "bang" ],
					"id" : "obj-164",
					"fontname" : "Arial",
					"patching_rect" : [ 116.0, 22.0, 50.0, 20.0 ],
					"fontsize" : 12.0,
					"numinlets" : 1
				}

			}
, 			{
				"box" : 				{
					"maxclass" : "button",
					"numoutlets" : 1,
					"outlettype" : [ "bang" ],
					"id" : "obj-130",
					"patching_rect" : [ 15.0, 15.0, 22.0, 22.0 ],
					"numinlets" : 1
				}

			}
, 			{
				"box" : 				{
					"maxclass" : "newobj",
					"text" : "noteout",
					"numoutlets" : 0,
					"id" : "obj-134",
					"fontname" : "Arial",
					"patching_rect" : [ 15.0, 177.0, 120.0, 20.0 ],
					"fontsize" : 12.0,
					"numinlets" : 3
				}

			}
 ],
		"lines" : [ 			{
				"patchline" : 				{
					"source" : [ "obj-4", 0 ],
					"destination" : [ "obj-1", 0 ],
					"hidden" : 0,
					"midpoints" : [  ]
				}

			}
, 			{
				"patchline" : 				{
					"source" : [ "obj-164", 0 ],
					"destination" : [ "obj-163", 1 ],
					"hidden" : 0,
					"midpoints" : [  ]
				}

			}
, 			{
				"patchline" : 				{
					"source" : [ "obj-168", 0 ],
					"destination" : [ "obj-167", 1 ],
					"hidden" : 0,
					"midpoints" : [  ]
				}

			}
, 			{
				"patchline" : 				{
					"source" : [ "obj-172", 0 ],
					"destination" : [ "obj-171", 1 ],
					"hidden" : 0,
					"midpoints" : [  ]
				}

			}
, 			{
				"patchline" : 				{
					"source" : [ "obj-176", 0 ],
					"destination" : [ "obj-175", 1 ],
					"hidden" : 0,
					"midpoints" : [  ]
				}

			}
, 			{
				"patchline" : 				{
					"source" : [ "obj-163", 0 ],
					"destination" : [ "obj-134", 0 ],
					"hidden" : 0,
					"midpoints" : [ 24.5, 144.0, 24.5, 144.0 ]
				}

			}
, 			{
				"patchline" : 				{
					"source" : [ "obj-167", 0 ],
					"destination" : [ "obj-134", 0 ],
					"hidden" : 0,
					"midpoints" : [ 179.5, 144.0, 24.5, 144.0 ]
				}

			}
, 			{
				"patchline" : 				{
					"source" : [ "obj-171", 0 ],
					"destination" : [ "obj-134", 0 ],
					"hidden" : 0,
					"midpoints" : [ 334.5, 144.0, 24.5, 144.0 ]
				}

			}
, 			{
				"patchline" : 				{
					"source" : [ "obj-163", 1 ],
					"destination" : [ "obj-134", 1 ],
					"hidden" : 0,
					"midpoints" : [ 125.5, 144.0, 75.0, 144.0 ]
				}

			}
, 			{
				"patchline" : 				{
					"source" : [ "obj-167", 1 ],
					"destination" : [ "obj-134", 1 ],
					"hidden" : 0,
					"midpoints" : [ 280.5, 144.0, 75.0, 144.0 ]
				}

			}
, 			{
				"patchline" : 				{
					"source" : [ "obj-171", 1 ],
					"destination" : [ "obj-134", 1 ],
					"hidden" : 0,
					"midpoints" : [ 435.5, 144.0, 75.0, 144.0 ]
				}

			}
, 			{
				"patchline" : 				{
					"source" : [ "obj-175", 0 ],
					"destination" : [ "obj-134", 0 ],
					"hidden" : 0,
					"midpoints" : [ 489.5, 144.0, 24.5, 144.0 ]
				}

			}
, 			{
				"patchline" : 				{
					"source" : [ "obj-175", 1 ],
					"destination" : [ "obj-134", 1 ],
					"hidden" : 0,
					"midpoints" : [ 590.5, 144.0, 75.0, 144.0 ]
				}

			}
, 			{
				"patchline" : 				{
					"source" : [ "obj-130", 0 ],
					"destination" : [ "obj-163", 0 ],
					"hidden" : 0,
					"midpoints" : [  ]
				}

			}
, 			{
				"patchline" : 				{
					"source" : [ "obj-130", 0 ],
					"destination" : [ "obj-167", 0 ],
					"hidden" : 0,
					"midpoints" : [ 24.5, 64.0, 179.5, 64.0 ]
				}

			}
, 			{
				"patchline" : 				{
					"source" : [ "obj-130", 0 ],
					"destination" : [ "obj-171", 0 ],
					"hidden" : 0,
					"midpoints" : [ 24.5, 64.0, 334.5, 64.0 ]
				}

			}
, 			{
				"patchline" : 				{
					"source" : [ "obj-130", 0 ],
					"destination" : [ "obj-175", 0 ],
					"hidden" : 0,
					"midpoints" : [ 24.5, 64.0, 489.5, 64.0 ]
				}

			}
 ]
	}

}
