{
	"patcher" : 	{
		"fileversion" : 1,
		"rect" : [ 19.0, 73.0, 1421.0, 725.0 ],
		"bglocked" : 0,
		"defrect" : [ 19.0, 73.0, 1421.0, 725.0 ],
		"openrect" : [ 0.0, 0.0, 0.0, 0.0 ],
		"openinpresentation" : 0,
		"default_fontsize" : 12.0,
		"default_fontface" : 0,
		"default_fontname" : "Arial",
		"gridonopen" : 0,
		"gridsize" : [ 8.0, 8.0 ],
		"gridsnaponopen" : 0,
		"toolbarvisible" : 1,
		"boxanimatetime" : 200,
		"imprint" : 0,
		"enablehscroll" : 1,
		"enablevscroll" : 1,
		"devicewidth" : 0.0,
		"boxes" : [ 			{
				"box" : 				{
					"maxclass" : "comment",
					"text" : "< Oh, look - it's the remainder object! ",
					"numinlets" : 1,
					"presentation_rect" : [ 301.0, 219.0, 0.0, 0.0 ],
					"fontsize" : 12.0,
					"numoutlets" : 0,
					"id" : "obj-18",
					"patching_rect" : [ 301.0, 219.0, 349.0, 20.0 ],
					"fontname" : "Arial"
				}

			}
, 			{
				"box" : 				{
					"maxclass" : "comment",
					"text" : "This is a variation of something that Steve Reich had someone build for him in the 1960s - a box that would produce beeps at adjustable intervals. His original plexiglas box only emitted one sound and had 16 outputs that were analog, so we're taking some liberties",
					"linecount" : 5,
					"numinlets" : 1,
					"fontsize" : 12.0,
					"numoutlets" : 0,
					"id" : "obj-11",
					"patching_rect" : [ 40.0, 467.0, 349.0, 75.0 ],
					"fontname" : "Arial"
				}

			}
, 			{
				"box" : 				{
					"maxclass" : "message",
					"text" : "69",
					"numinlets" : 2,
					"fontsize" : 12.0,
					"numoutlets" : 1,
					"id" : "obj-55",
					"patching_rect" : [ 259.0, 317.0, 32.5, 18.0 ],
					"outlettype" : [ "" ],
					"fontname" : "Arial"
				}

			}
, 			{
				"box" : 				{
					"maxclass" : "message",
					"text" : "67",
					"numinlets" : 2,
					"fontsize" : 12.0,
					"numoutlets" : 1,
					"id" : "obj-54",
					"patching_rect" : [ 204.0, 317.0, 32.5, 18.0 ],
					"outlettype" : [ "" ],
					"fontname" : "Arial"
				}

			}
, 			{
				"box" : 				{
					"maxclass" : "message",
					"text" : "64",
					"numinlets" : 2,
					"fontsize" : 12.0,
					"numoutlets" : 1,
					"id" : "obj-51",
					"patching_rect" : [ 150.0, 317.0, 32.5, 18.0 ],
					"outlettype" : [ "" ],
					"fontname" : "Arial"
				}

			}
, 			{
				"box" : 				{
					"maxclass" : "message",
					"text" : "62",
					"numinlets" : 2,
					"fontsize" : 12.0,
					"numoutlets" : 1,
					"id" : "obj-34",
					"patching_rect" : [ 95.0, 317.0, 32.5, 18.0 ],
					"outlettype" : [ "" ],
					"fontname" : "Arial"
				}

			}
, 			{
				"box" : 				{
					"maxclass" : "message",
					"text" : "60",
					"numinlets" : 2,
					"fontsize" : 12.0,
					"numoutlets" : 1,
					"id" : "obj-33",
					"patching_rect" : [ 37.0, 317.0, 32.5, 18.0 ],
					"outlettype" : [ "" ],
					"fontname" : "Arial"
				}

			}
, 			{
				"box" : 				{
					"maxclass" : "number",
					"numinlets" : 1,
					"fontsize" : 12.0,
					"numoutlets" : 2,
					"id" : "obj-127",
					"patching_rect" : [ 122.0, 35.0, 50.0, 20.0 ],
					"outlettype" : [ "int", "bang" ],
					"fontname" : "Arial"
				}

			}
, 			{
				"box" : 				{
					"maxclass" : "newobj",
					"text" : "counter 0 0 10",
					"numinlets" : 5,
					"fontsize" : 12.0,
					"numoutlets" : 4,
					"id" : "obj-65",
					"patching_rect" : [ 37.0, 96.0, 87.0, 20.0 ],
					"outlettype" : [ "int", "", "", "int" ],
					"fontname" : "Arial"
				}

			}
, 			{
				"box" : 				{
					"maxclass" : "toggle",
					"numinlets" : 1,
					"numoutlets" : 1,
					"id" : "obj-59",
					"patching_rect" : [ 37.0, 34.0, 19.0, 19.0 ],
					"outlettype" : [ "int" ]
				}

			}
, 			{
				"box" : 				{
					"maxclass" : "newobj",
					"text" : "metro 250",
					"numinlets" : 2,
					"fontsize" : 12.0,
					"numoutlets" : 1,
					"id" : "obj-64",
					"patching_rect" : [ 37.0, 61.0, 104.0, 20.0 ],
					"outlettype" : [ "bang" ],
					"fontname" : "Arial"
				}

			}
, 			{
				"box" : 				{
					"maxclass" : "newobj",
					"text" : "noteout",
					"numinlets" : 3,
					"fontsize" : 12.0,
					"numoutlets" : 0,
					"id" : "obj-61",
					"patching_rect" : [ 37.0, 430.0, 51.0, 20.0 ],
					"fontname" : "Arial"
				}

			}
, 			{
				"box" : 				{
					"maxclass" : "newobj",
					"text" : "makenote 60 60 100",
					"numinlets" : 4,
					"fontsize" : 12.0,
					"numoutlets" : 3,
					"id" : "obj-62",
					"patching_rect" : [ 37.0, 397.0, 184.0, 20.0 ],
					"outlettype" : [ "float", "float", "float" ],
					"fontname" : "Arial"
				}

			}
, 			{
				"box" : 				{
					"maxclass" : "button",
					"numinlets" : 1,
					"numoutlets" : 1,
					"id" : "obj-1",
					"patching_rect" : [ 259.0, 278.0, 25.0, 25.0 ],
					"outlettype" : [ "bang" ]
				}

			}
, 			{
				"box" : 				{
					"maxclass" : "button",
					"numinlets" : 1,
					"numoutlets" : 1,
					"id" : "obj-3",
					"patching_rect" : [ 204.0, 278.0, 25.0, 25.0 ],
					"outlettype" : [ "bang" ]
				}

			}
, 			{
				"box" : 				{
					"maxclass" : "newobj",
					"text" : "sel 0",
					"numinlets" : 2,
					"fontsize" : 12.0,
					"numoutlets" : 2,
					"id" : "obj-4",
					"patching_rect" : [ 259.0, 248.0, 36.0, 20.0 ],
					"outlettype" : [ "bang", "" ],
					"fontname" : "Arial"
				}

			}
, 			{
				"box" : 				{
					"maxclass" : "newobj",
					"text" : "% 5",
					"numinlets" : 2,
					"fontsize" : 12.0,
					"numoutlets" : 1,
					"id" : "obj-5",
					"patching_rect" : [ 259.0, 218.0, 32.5, 20.0 ],
					"outlettype" : [ "int" ],
					"fontname" : "Arial"
				}

			}
, 			{
				"box" : 				{
					"maxclass" : "newobj",
					"text" : "sel 0",
					"numinlets" : 2,
					"fontsize" : 12.0,
					"numoutlets" : 2,
					"id" : "obj-6",
					"patching_rect" : [ 204.0, 248.0, 36.0, 20.0 ],
					"outlettype" : [ "bang", "" ],
					"fontname" : "Arial"
				}

			}
, 			{
				"box" : 				{
					"maxclass" : "newobj",
					"text" : "% 4",
					"numinlets" : 2,
					"fontsize" : 12.0,
					"numoutlets" : 1,
					"id" : "obj-10",
					"patching_rect" : [ 204.0, 218.0, 32.5, 20.0 ],
					"outlettype" : [ "int" ],
					"fontname" : "Arial"
				}

			}
, 			{
				"box" : 				{
					"maxclass" : "button",
					"numinlets" : 1,
					"numoutlets" : 1,
					"id" : "obj-7",
					"patching_rect" : [ 150.0, 278.0, 25.0, 25.0 ],
					"outlettype" : [ "bang" ]
				}

			}
, 			{
				"box" : 				{
					"maxclass" : "button",
					"numinlets" : 1,
					"numoutlets" : 1,
					"id" : "obj-8",
					"patching_rect" : [ 95.0, 278.0, 25.0, 25.0 ],
					"outlettype" : [ "bang" ]
				}

			}
, 			{
				"box" : 				{
					"maxclass" : "button",
					"numinlets" : 1,
					"numoutlets" : 1,
					"id" : "obj-9",
					"patching_rect" : [ 37.0, 278.0, 25.0, 25.0 ],
					"outlettype" : [ "bang" ]
				}

			}
, 			{
				"box" : 				{
					"maxclass" : "newobj",
					"text" : "sel 0",
					"numinlets" : 2,
					"fontsize" : 12.0,
					"numoutlets" : 2,
					"id" : "obj-12",
					"patching_rect" : [ 150.0, 248.0, 36.0, 20.0 ],
					"outlettype" : [ "bang", "" ],
					"fontname" : "Arial"
				}

			}
, 			{
				"box" : 				{
					"maxclass" : "newobj",
					"text" : "% 3",
					"numinlets" : 2,
					"fontsize" : 12.0,
					"numoutlets" : 1,
					"id" : "obj-13",
					"patching_rect" : [ 150.0, 218.0, 32.5, 20.0 ],
					"outlettype" : [ "int" ],
					"fontname" : "Arial"
				}

			}
, 			{
				"box" : 				{
					"maxclass" : "newobj",
					"text" : "sel 0",
					"numinlets" : 2,
					"fontsize" : 12.0,
					"numoutlets" : 2,
					"id" : "obj-14",
					"patching_rect" : [ 95.0, 248.0, 36.0, 20.0 ],
					"outlettype" : [ "bang", "" ],
					"fontname" : "Arial"
				}

			}
, 			{
				"box" : 				{
					"maxclass" : "newobj",
					"text" : "% 2",
					"numinlets" : 2,
					"fontsize" : 12.0,
					"numoutlets" : 1,
					"id" : "obj-15",
					"patching_rect" : [ 95.0, 218.0, 32.5, 20.0 ],
					"outlettype" : [ "int" ],
					"fontname" : "Arial"
				}

			}
, 			{
				"box" : 				{
					"maxclass" : "newobj",
					"text" : "sel 0",
					"numinlets" : 2,
					"fontsize" : 12.0,
					"numoutlets" : 2,
					"id" : "obj-16",
					"patching_rect" : [ 37.0, 248.0, 36.0, 20.0 ],
					"outlettype" : [ "bang", "" ],
					"fontname" : "Arial"
				}

			}
, 			{
				"box" : 				{
					"maxclass" : "newobj",
					"text" : "% 1",
					"numinlets" : 2,
					"fontsize" : 12.0,
					"numoutlets" : 1,
					"id" : "obj-17",
					"patching_rect" : [ 37.0, 218.0, 32.5, 20.0 ],
					"outlettype" : [ "int" ],
					"fontname" : "Arial"
				}

			}
 ],
		"lines" : [ 			{
				"patchline" : 				{
					"source" : [ "obj-4", 0 ],
					"destination" : [ "obj-1", 0 ],
					"hidden" : 0,
					"midpoints" : [  ]
				}

			}
, 			{
				"patchline" : 				{
					"source" : [ "obj-62", 0 ],
					"destination" : [ "obj-61", 0 ],
					"hidden" : 0,
					"midpoints" : [  ]
				}

			}
, 			{
				"patchline" : 				{
					"source" : [ "obj-62", 1 ],
					"destination" : [ "obj-61", 1 ],
					"hidden" : 0,
					"midpoints" : [ 129.0, 423.0, 62.5, 423.0 ]
				}

			}
, 			{
				"patchline" : 				{
					"source" : [ "obj-5", 0 ],
					"destination" : [ "obj-4", 0 ],
					"hidden" : 0,
					"midpoints" : [  ]
				}

			}
, 			{
				"patchline" : 				{
					"source" : [ "obj-59", 0 ],
					"destination" : [ "obj-64", 0 ],
					"hidden" : 0,
					"midpoints" : [  ]
				}

			}
, 			{
				"patchline" : 				{
					"source" : [ "obj-17", 0 ],
					"destination" : [ "obj-16", 0 ],
					"hidden" : 0,
					"midpoints" : [  ]
				}

			}
, 			{
				"patchline" : 				{
					"source" : [ "obj-16", 0 ],
					"destination" : [ "obj-9", 0 ],
					"hidden" : 0,
					"midpoints" : [  ]
				}

			}
, 			{
				"patchline" : 				{
					"source" : [ "obj-15", 0 ],
					"destination" : [ "obj-14", 0 ],
					"hidden" : 0,
					"midpoints" : [  ]
				}

			}
, 			{
				"patchline" : 				{
					"source" : [ "obj-14", 0 ],
					"destination" : [ "obj-8", 0 ],
					"hidden" : 0,
					"midpoints" : [  ]
				}

			}
, 			{
				"patchline" : 				{
					"source" : [ "obj-13", 0 ],
					"destination" : [ "obj-12", 0 ],
					"hidden" : 0,
					"midpoints" : [  ]
				}

			}
, 			{
				"patchline" : 				{
					"source" : [ "obj-12", 0 ],
					"destination" : [ "obj-7", 0 ],
					"hidden" : 0,
					"midpoints" : [  ]
				}

			}
, 			{
				"patchline" : 				{
					"source" : [ "obj-10", 0 ],
					"destination" : [ "obj-6", 0 ],
					"hidden" : 0,
					"midpoints" : [  ]
				}

			}
, 			{
				"patchline" : 				{
					"source" : [ "obj-6", 0 ],
					"destination" : [ "obj-3", 0 ],
					"hidden" : 0,
					"midpoints" : [  ]
				}

			}
, 			{
				"patchline" : 				{
					"source" : [ "obj-127", 0 ],
					"destination" : [ "obj-64", 1 ],
					"hidden" : 0,
					"midpoints" : [  ]
				}

			}
, 			{
				"patchline" : 				{
					"source" : [ "obj-9", 0 ],
					"destination" : [ "obj-33", 0 ],
					"hidden" : 0,
					"midpoints" : [  ]
				}

			}
, 			{
				"patchline" : 				{
					"source" : [ "obj-8", 0 ],
					"destination" : [ "obj-34", 0 ],
					"hidden" : 0,
					"midpoints" : [  ]
				}

			}
, 			{
				"patchline" : 				{
					"source" : [ "obj-7", 0 ],
					"destination" : [ "obj-51", 0 ],
					"hidden" : 0,
					"midpoints" : [  ]
				}

			}
, 			{
				"patchline" : 				{
					"source" : [ "obj-3", 0 ],
					"destination" : [ "obj-54", 0 ],
					"hidden" : 0,
					"midpoints" : [  ]
				}

			}
, 			{
				"patchline" : 				{
					"source" : [ "obj-1", 0 ],
					"destination" : [ "obj-55", 0 ],
					"hidden" : 0,
					"midpoints" : [  ]
				}

			}
, 			{
				"patchline" : 				{
					"source" : [ "obj-33", 0 ],
					"destination" : [ "obj-62", 0 ],
					"hidden" : 0,
					"midpoints" : [  ]
				}

			}
, 			{
				"patchline" : 				{
					"source" : [ "obj-34", 0 ],
					"destination" : [ "obj-62", 0 ],
					"hidden" : 0,
					"midpoints" : [  ]
				}

			}
, 			{
				"patchline" : 				{
					"source" : [ "obj-51", 0 ],
					"destination" : [ "obj-62", 0 ],
					"hidden" : 0,
					"midpoints" : [  ]
				}

			}
, 			{
				"patchline" : 				{
					"source" : [ "obj-54", 0 ],
					"destination" : [ "obj-62", 0 ],
					"hidden" : 0,
					"midpoints" : [  ]
				}

			}
, 			{
				"patchline" : 				{
					"source" : [ "obj-55", 0 ],
					"destination" : [ "obj-62", 0 ],
					"hidden" : 0,
					"midpoints" : [  ]
				}

			}
, 			{
				"patchline" : 				{
					"source" : [ "obj-65", 0 ],
					"destination" : [ "obj-5", 0 ],
					"hidden" : 0,
					"midpoints" : [  ]
				}

			}
, 			{
				"patchline" : 				{
					"source" : [ "obj-65", 0 ],
					"destination" : [ "obj-10", 0 ],
					"hidden" : 0,
					"midpoints" : [  ]
				}

			}
, 			{
				"patchline" : 				{
					"source" : [ "obj-65", 0 ],
					"destination" : [ "obj-13", 0 ],
					"hidden" : 0,
					"midpoints" : [  ]
				}

			}
, 			{
				"patchline" : 				{
					"source" : [ "obj-65", 0 ],
					"destination" : [ "obj-15", 0 ],
					"hidden" : 0,
					"midpoints" : [  ]
				}

			}
, 			{
				"patchline" : 				{
					"source" : [ "obj-65", 0 ],
					"destination" : [ "obj-17", 0 ],
					"hidden" : 0,
					"midpoints" : [ 44.0, 116.0 ]
				}

			}
, 			{
				"patchline" : 				{
					"source" : [ "obj-64", 0 ],
					"destination" : [ "obj-65", 0 ],
					"hidden" : 0,
					"midpoints" : [  ]
				}

			}
 ]
	}

}
