{
	"patcher" : 	{
		"fileversion" : 1,
		"rect" : [ 0.0, 137.0, 1440.0, 826.0 ],
		"bglocked" : 0,
		"defrect" : [ 0.0, 137.0, 1440.0, 826.0 ],
		"openrect" : [ 0.0, 0.0, 0.0, 0.0 ],
		"openinpresentation" : 0,
		"default_fontsize" : 12.0,
		"default_fontface" : 0,
		"default_fontname" : "Arial",
		"gridonopen" : 0,
		"gridsize" : [ 8.0, 8.0 ],
		"gridsnaponopen" : 0,
		"toolbarvisible" : 1,
		"boxanimatetime" : 200,
		"imprint" : 0,
		"enablehscroll" : 1,
		"enablevscroll" : 1,
		"devicewidth" : 0.0,
		"boxes" : [ 			{
				"box" : 				{
					"maxclass" : "comment",
					"text" : "In this patch, we've added a subpatcher that lets us map the 12 notes of the scale into something that sounds a little less um... 12-toney.",
					"linecount" : 3,
					"fontsize" : 12.0,
					"numinlets" : 1,
					"patching_rect" : [ 442.0, 580.0, 268.0, 48.0 ],
					"numoutlets" : 0,
					"id" : "obj-32",
					"fontname" : "Arial"
				}

			}
, 			{
				"box" : 				{
					"maxclass" : "message",
					"text" : "60 73 62 75 64 77 66 79 68 81 70 82",
					"fontsize" : 12.0,
					"numinlets" : 2,
					"patching_rect" : [ 637.0, 317.0, 207.0, 18.0 ],
					"numoutlets" : 1,
					"id" : "obj-31",
					"fontname" : "Arial",
					"outlettype" : [ "" ]
				}

			}
, 			{
				"box" : 				{
					"maxclass" : "message",
					"text" : "60 67 72 65 60 67 72 65 60 67 72 65",
					"fontsize" : 12.0,
					"numinlets" : 2,
					"patching_rect" : [ 623.0, 282.0, 207.0, 18.0 ],
					"numoutlets" : 1,
					"id" : "obj-30",
					"fontname" : "Arial",
					"outlettype" : [ "" ]
				}

			}
, 			{
				"box" : 				{
					"maxclass" : "message",
					"text" : "60 60 62 62 64 65 65 67 67 69 69 71",
					"fontsize" : 12.0,
					"numinlets" : 2,
					"patching_rect" : [ 609.0, 250.0, 207.0, 18.0 ],
					"numoutlets" : 1,
					"id" : "obj-28",
					"fontname" : "Arial",
					"outlettype" : [ "" ]
				}

			}
, 			{
				"box" : 				{
					"maxclass" : "message",
					"text" : "60 61 62 63 64 65 66 67 68 69 70 71",
					"fontsize" : 12.0,
					"numinlets" : 2,
					"patching_rect" : [ 581.0, 185.0, 207.0, 18.0 ],
					"numoutlets" : 1,
					"id" : "obj-25",
					"fontname" : "Arial",
					"outlettype" : [ "" ]
				}

			}
, 			{
				"box" : 				{
					"maxclass" : "message",
					"text" : "60 60 62 62 64 64 67 67 69 69 72 72",
					"fontsize" : 12.0,
					"numinlets" : 2,
					"patching_rect" : [ 595.0, 219.0, 207.0, 18.0 ],
					"numoutlets" : 1,
					"id" : "obj-24",
					"fontname" : "Arial",
					"outlettype" : [ "" ]
				}

			}
, 			{
				"box" : 				{
					"maxclass" : "newobj",
					"text" : "p calculate-offsets",
					"fontsize" : 12.0,
					"numinlets" : 3,
					"patching_rect" : [ 147.0, 421.0, 107.0, 20.0 ],
					"numoutlets" : 1,
					"id" : "obj-5",
					"fontname" : "Arial",
					"outlettype" : [ "" ],
					"patcher" : 					{
						"fileversion" : 1,
						"rect" : [ 25.0, 69.0, 956.0, 452.0 ],
						"bglocked" : 0,
						"defrect" : [ 25.0, 69.0, 956.0, 452.0 ],
						"openrect" : [ 0.0, 0.0, 0.0, 0.0 ],
						"openinpresentation" : 0,
						"default_fontsize" : 12.0,
						"default_fontface" : 0,
						"default_fontname" : "Arial",
						"gridonopen" : 0,
						"gridsize" : [ 8.0, 8.0 ],
						"gridsnaponopen" : 0,
						"toolbarvisible" : 1,
						"boxanimatetime" : 200,
						"imprint" : 0,
						"enablehscroll" : 1,
						"enablevscroll" : 1,
						"devicewidth" : 0.0,
						"boxes" : [ 							{
								"box" : 								{
									"maxclass" : "inlet",
									"numinlets" : 0,
									"patching_rect" : [ 829.0, 57.0, 25.0, 25.0 ],
									"numoutlets" : 1,
									"id" : "obj-29",
									"outlettype" : [ "" ],
									"comment" : ""
								}

							}
, 							{
								"box" : 								{
									"maxclass" : "newobj",
									"text" : "+ 0",
									"fontsize" : 12.0,
									"numinlets" : 2,
									"patching_rect" : [ 534.0, 321.0, 32.5, 20.0 ],
									"numoutlets" : 1,
									"id" : "obj-21",
									"fontname" : "Arial",
									"outlettype" : [ "int" ]
								}

							}
, 							{
								"box" : 								{
									"maxclass" : "newobj",
									"text" : "- 71",
									"fontsize" : 12.0,
									"numinlets" : 2,
									"patching_rect" : [ 534.0, 244.0, 32.5, 20.0 ],
									"numoutlets" : 1,
									"id" : "obj-22",
									"fontname" : "Arial",
									"outlettype" : [ "int" ]
								}

							}
, 							{
								"box" : 								{
									"maxclass" : "newobj",
									"text" : "+ 0",
									"fontsize" : 12.0,
									"numinlets" : 2,
									"patching_rect" : [ 496.0, 321.0, 32.5, 20.0 ],
									"numoutlets" : 1,
									"id" : "obj-23",
									"fontname" : "Arial",
									"outlettype" : [ "int" ]
								}

							}
, 							{
								"box" : 								{
									"maxclass" : "newobj",
									"text" : "- 70",
									"fontsize" : 12.0,
									"numinlets" : 2,
									"patching_rect" : [ 496.0, 244.0, 32.5, 20.0 ],
									"numoutlets" : 1,
									"id" : "obj-24",
									"fontname" : "Arial",
									"outlettype" : [ "int" ]
								}

							}
, 							{
								"box" : 								{
									"maxclass" : "newobj",
									"text" : "+ 0",
									"fontsize" : 12.0,
									"numinlets" : 2,
									"patching_rect" : [ 457.0, 321.0, 32.5, 20.0 ],
									"numoutlets" : 1,
									"id" : "obj-25",
									"fontname" : "Arial",
									"outlettype" : [ "int" ]
								}

							}
, 							{
								"box" : 								{
									"maxclass" : "newobj",
									"text" : "- 69",
									"fontsize" : 12.0,
									"numinlets" : 2,
									"patching_rect" : [ 457.0, 244.0, 32.5, 20.0 ],
									"numoutlets" : 1,
									"id" : "obj-26",
									"fontname" : "Arial",
									"outlettype" : [ "int" ]
								}

							}
, 							{
								"box" : 								{
									"maxclass" : "newobj",
									"text" : "+ 0",
									"fontsize" : 12.0,
									"numinlets" : 2,
									"patching_rect" : [ 419.0, 321.0, 32.5, 20.0 ],
									"numoutlets" : 1,
									"id" : "obj-27",
									"fontname" : "Arial",
									"outlettype" : [ "int" ]
								}

							}
, 							{
								"box" : 								{
									"maxclass" : "newobj",
									"text" : "- 68",
									"fontsize" : 12.0,
									"numinlets" : 2,
									"patching_rect" : [ 419.0, 244.0, 32.5, 20.0 ],
									"numoutlets" : 1,
									"id" : "obj-28",
									"fontname" : "Arial",
									"outlettype" : [ "int" ]
								}

							}
, 							{
								"box" : 								{
									"maxclass" : "newobj",
									"text" : "+ 0",
									"fontsize" : 12.0,
									"numinlets" : 2,
									"patching_rect" : [ 381.0, 321.0, 32.5, 20.0 ],
									"numoutlets" : 1,
									"id" : "obj-13",
									"fontname" : "Arial",
									"outlettype" : [ "int" ]
								}

							}
, 							{
								"box" : 								{
									"maxclass" : "newobj",
									"text" : "- 67",
									"fontsize" : 12.0,
									"numinlets" : 2,
									"patching_rect" : [ 381.0, 244.0, 32.5, 20.0 ],
									"numoutlets" : 1,
									"id" : "obj-14",
									"fontname" : "Arial",
									"outlettype" : [ "int" ]
								}

							}
, 							{
								"box" : 								{
									"maxclass" : "newobj",
									"text" : "+ 0",
									"fontsize" : 12.0,
									"numinlets" : 2,
									"patching_rect" : [ 343.0, 321.0, 32.5, 20.0 ],
									"numoutlets" : 1,
									"id" : "obj-15",
									"fontname" : "Arial",
									"outlettype" : [ "int" ]
								}

							}
, 							{
								"box" : 								{
									"maxclass" : "newobj",
									"text" : "- 66",
									"fontsize" : 12.0,
									"numinlets" : 2,
									"patching_rect" : [ 343.0, 244.0, 32.5, 20.0 ],
									"numoutlets" : 1,
									"id" : "obj-16",
									"fontname" : "Arial",
									"outlettype" : [ "int" ]
								}

							}
, 							{
								"box" : 								{
									"maxclass" : "newobj",
									"text" : "+ 0",
									"fontsize" : 12.0,
									"numinlets" : 2,
									"patching_rect" : [ 304.0, 321.0, 32.5, 20.0 ],
									"numoutlets" : 1,
									"id" : "obj-17",
									"fontname" : "Arial",
									"outlettype" : [ "int" ]
								}

							}
, 							{
								"box" : 								{
									"maxclass" : "newobj",
									"text" : "- 65",
									"fontsize" : 12.0,
									"numinlets" : 2,
									"patching_rect" : [ 304.0, 244.0, 32.5, 20.0 ],
									"numoutlets" : 1,
									"id" : "obj-18",
									"fontname" : "Arial",
									"outlettype" : [ "int" ]
								}

							}
, 							{
								"box" : 								{
									"maxclass" : "newobj",
									"text" : "+ 0",
									"fontsize" : 12.0,
									"numinlets" : 2,
									"patching_rect" : [ 266.0, 321.0, 32.5, 20.0 ],
									"numoutlets" : 1,
									"id" : "obj-19",
									"fontname" : "Arial",
									"outlettype" : [ "int" ]
								}

							}
, 							{
								"box" : 								{
									"maxclass" : "newobj",
									"text" : "- 64",
									"fontsize" : 12.0,
									"numinlets" : 2,
									"patching_rect" : [ 266.0, 244.0, 32.5, 20.0 ],
									"numoutlets" : 1,
									"id" : "obj-20",
									"fontname" : "Arial",
									"outlettype" : [ "int" ]
								}

							}
, 							{
								"box" : 								{
									"maxclass" : "newobj",
									"text" : "+ 0",
									"fontsize" : 12.0,
									"numinlets" : 2,
									"patching_rect" : [ 227.0, 321.0, 32.5, 20.0 ],
									"numoutlets" : 1,
									"id" : "obj-9",
									"fontname" : "Arial",
									"outlettype" : [ "int" ]
								}

							}
, 							{
								"box" : 								{
									"maxclass" : "newobj",
									"text" : "- 63",
									"fontsize" : 12.0,
									"numinlets" : 2,
									"patching_rect" : [ 227.0, 244.0, 32.5, 20.0 ],
									"numoutlets" : 1,
									"id" : "obj-10",
									"fontname" : "Arial",
									"outlettype" : [ "int" ]
								}

							}
, 							{
								"box" : 								{
									"maxclass" : "newobj",
									"text" : "+ 0",
									"fontsize" : 12.0,
									"numinlets" : 2,
									"patching_rect" : [ 188.0, 321.0, 32.5, 20.0 ],
									"numoutlets" : 1,
									"id" : "obj-11",
									"fontname" : "Arial",
									"outlettype" : [ "int" ]
								}

							}
, 							{
								"box" : 								{
									"maxclass" : "newobj",
									"text" : "- 62",
									"fontsize" : 12.0,
									"numinlets" : 2,
									"patching_rect" : [ 188.0, 244.0, 32.5, 20.0 ],
									"numoutlets" : 1,
									"id" : "obj-12",
									"fontname" : "Arial",
									"outlettype" : [ "int" ]
								}

							}
, 							{
								"box" : 								{
									"maxclass" : "newobj",
									"text" : "+ 0",
									"fontsize" : 12.0,
									"numinlets" : 2,
									"patching_rect" : [ 150.0, 321.0, 32.5, 20.0 ],
									"numoutlets" : 1,
									"id" : "obj-7",
									"fontname" : "Arial",
									"outlettype" : [ "int" ]
								}

							}
, 							{
								"box" : 								{
									"maxclass" : "newobj",
									"text" : "- 61",
									"fontsize" : 12.0,
									"numinlets" : 2,
									"patching_rect" : [ 150.0, 244.0, 32.5, 20.0 ],
									"numoutlets" : 1,
									"id" : "obj-8",
									"fontname" : "Arial",
									"outlettype" : [ "int" ]
								}

							}
, 							{
								"box" : 								{
									"maxclass" : "newobj",
									"text" : "+ 0",
									"fontsize" : 12.0,
									"numinlets" : 2,
									"patching_rect" : [ 111.0, 321.0, 32.5, 20.0 ],
									"numoutlets" : 1,
									"id" : "obj-6",
									"fontname" : "Arial",
									"outlettype" : [ "int" ]
								}

							}
, 							{
								"box" : 								{
									"maxclass" : "newobj",
									"text" : "- 60",
									"fontsize" : 12.0,
									"numinlets" : 2,
									"patching_rect" : [ 111.0, 244.0, 32.5, 20.0 ],
									"numoutlets" : 1,
									"id" : "obj-5",
									"fontname" : "Arial",
									"outlettype" : [ "int" ]
								}

							}
, 							{
								"box" : 								{
									"maxclass" : "message",
									"text" : "0",
									"fontsize" : 12.0,
									"numinlets" : 2,
									"patching_rect" : [ 520.0, 353.0, 32.5, 18.0 ],
									"numoutlets" : 1,
									"id" : "obj-1",
									"fontname" : "Arial",
									"outlettype" : [ "" ]
								}

							}
, 							{
								"box" : 								{
									"maxclass" : "message",
									"text" : "-1",
									"fontsize" : 12.0,
									"numinlets" : 2,
									"patching_rect" : [ 482.0, 353.0, 32.5, 18.0 ],
									"numoutlets" : 1,
									"id" : "obj-2",
									"fontname" : "Arial",
									"outlettype" : [ "" ]
								}

							}
, 							{
								"box" : 								{
									"maxclass" : "message",
									"text" : "0",
									"fontsize" : 12.0,
									"numinlets" : 2,
									"patching_rect" : [ 443.0, 353.0, 32.5, 18.0 ],
									"numoutlets" : 1,
									"id" : "obj-3",
									"fontname" : "Arial",
									"outlettype" : [ "" ]
								}

							}
, 							{
								"box" : 								{
									"maxclass" : "message",
									"text" : "-1",
									"fontsize" : 12.0,
									"numinlets" : 2,
									"patching_rect" : [ 405.0, 353.0, 32.5, 18.0 ],
									"numoutlets" : 1,
									"id" : "obj-4",
									"fontname" : "Arial",
									"outlettype" : [ "" ]
								}

							}
, 							{
								"box" : 								{
									"maxclass" : "outlet",
									"numinlets" : 1,
									"patching_rect" : [ 97.0, 416.0, 25.0, 25.0 ],
									"numoutlets" : 0,
									"id" : "obj-49",
									"comment" : ""
								}

							}
, 							{
								"box" : 								{
									"maxclass" : "newobj",
									"text" : "spray 12",
									"fontsize" : 12.0,
									"numinlets" : 1,
									"patching_rect" : [ 605.0, 120.0, 167.5, 20.0 ],
									"numoutlets" : 12,
									"id" : "obj-48",
									"fontname" : "Arial",
									"outlettype" : [ "", "", "", "", "", "", "", "", "", "", "", "" ]
								}

							}
, 							{
								"box" : 								{
									"maxclass" : "inlet",
									"numinlets" : 0,
									"patching_rect" : [ 605.0, 57.0, 25.0, 25.0 ],
									"numoutlets" : 1,
									"id" : "obj-47",
									"outlettype" : [ "" ],
									"comment" : ""
								}

							}
, 							{
								"box" : 								{
									"maxclass" : "inlet",
									"numinlets" : 0,
									"patching_rect" : [ 96.0, 57.0, 25.0, 25.0 ],
									"numoutlets" : 1,
									"id" : "obj-46",
									"outlettype" : [ "int" ],
									"comment" : ""
								}

							}
, 							{
								"box" : 								{
									"maxclass" : "message",
									"text" : "0",
									"fontsize" : 12.0,
									"numinlets" : 2,
									"patching_rect" : [ 367.0, 353.0, 32.5, 18.0 ],
									"numoutlets" : 1,
									"id" : "obj-43",
									"fontname" : "Arial",
									"outlettype" : [ "" ]
								}

							}
, 							{
								"box" : 								{
									"maxclass" : "message",
									"text" : "-1",
									"fontsize" : 12.0,
									"numinlets" : 2,
									"patching_rect" : [ 329.0, 353.0, 32.5, 18.0 ],
									"numoutlets" : 1,
									"id" : "obj-44",
									"fontname" : "Arial",
									"outlettype" : [ "" ]
								}

							}
, 							{
								"box" : 								{
									"maxclass" : "message",
									"text" : "0",
									"fontsize" : 12.0,
									"numinlets" : 2,
									"patching_rect" : [ 290.0, 353.0, 32.5, 18.0 ],
									"numoutlets" : 1,
									"id" : "obj-45",
									"fontname" : "Arial",
									"outlettype" : [ "" ]
								}

							}
, 							{
								"box" : 								{
									"maxclass" : "message",
									"text" : "0",
									"fontsize" : 12.0,
									"numinlets" : 2,
									"patching_rect" : [ 252.0, 353.0, 32.5, 18.0 ],
									"numoutlets" : 1,
									"id" : "obj-38",
									"fontname" : "Arial",
									"outlettype" : [ "" ]
								}

							}
, 							{
								"box" : 								{
									"maxclass" : "message",
									"text" : "-1",
									"fontsize" : 12.0,
									"numinlets" : 2,
									"patching_rect" : [ 213.0, 353.0, 32.5, 18.0 ],
									"numoutlets" : 1,
									"id" : "obj-39",
									"fontname" : "Arial",
									"outlettype" : [ "" ]
								}

							}
, 							{
								"box" : 								{
									"maxclass" : "message",
									"text" : "0",
									"fontsize" : 12.0,
									"numinlets" : 2,
									"patching_rect" : [ 174.0, 353.0, 32.5, 18.0 ],
									"numoutlets" : 1,
									"id" : "obj-40",
									"fontname" : "Arial",
									"outlettype" : [ "" ]
								}

							}
, 							{
								"box" : 								{
									"maxclass" : "message",
									"text" : "-1",
									"fontsize" : 12.0,
									"numinlets" : 2,
									"patching_rect" : [ 136.0, 353.0, 32.5, 18.0 ],
									"numoutlets" : 1,
									"id" : "obj-41",
									"fontname" : "Arial",
									"outlettype" : [ "" ]
								}

							}
, 							{
								"box" : 								{
									"maxclass" : "message",
									"text" : "0",
									"fontsize" : 12.0,
									"numinlets" : 2,
									"patching_rect" : [ 97.0, 353.0, 32.5, 18.0 ],
									"numoutlets" : 1,
									"id" : "obj-42",
									"fontname" : "Arial",
									"outlettype" : [ "" ]
								}

							}
, 							{
								"box" : 								{
									"maxclass" : "newobj",
									"text" : "prepend 0",
									"fontsize" : 12.0,
									"numinlets" : 1,
									"patching_rect" : [ 605.0, 92.0, 65.0, 20.0 ],
									"numoutlets" : 1,
									"id" : "obj-37",
									"fontname" : "Arial",
									"outlettype" : [ "" ]
								}

							}
, 							{
								"box" : 								{
									"maxclass" : "newobj",
									"text" : "route 0 1 2 3 4 5 6 7 8 9 10 11",
									"fontsize" : 12.0,
									"numinlets" : 1,
									"patching_rect" : [ 97.0, 148.0, 480.0, 20.0 ],
									"numoutlets" : 13,
									"id" : "obj-36",
									"fontname" : "Arial",
									"outlettype" : [ "", "", "", "", "", "", "", "", "", "", "", "", "" ]
								}

							}
, 							{
								"box" : 								{
									"maxclass" : "newobj",
									"text" : "counter 0 7",
									"fontsize" : 12.0,
									"numinlets" : 5,
									"patching_rect" : [ 97.0, 112.0, 73.0, 20.0 ],
									"numoutlets" : 4,
									"id" : "obj-35",
									"fontname" : "Arial",
									"outlettype" : [ "int", "", "", "int" ]
								}

							}
 ],
						"lines" : [ 							{
								"patchline" : 								{
									"source" : [ "obj-42", 0 ],
									"destination" : [ "obj-49", 0 ],
									"hidden" : 0,
									"midpoints" : [  ]
								}

							}
, 							{
								"patchline" : 								{
									"source" : [ "obj-47", 0 ],
									"destination" : [ "obj-37", 0 ],
									"hidden" : 0,
									"midpoints" : [  ]
								}

							}
, 							{
								"patchline" : 								{
									"source" : [ "obj-46", 0 ],
									"destination" : [ "obj-35", 0 ],
									"hidden" : 0,
									"midpoints" : [  ]
								}

							}
, 							{
								"patchline" : 								{
									"source" : [ "obj-35", 0 ],
									"destination" : [ "obj-36", 0 ],
									"hidden" : 0,
									"midpoints" : [  ]
								}

							}
, 							{
								"patchline" : 								{
									"source" : [ "obj-36", 0 ],
									"destination" : [ "obj-42", 0 ],
									"hidden" : 0,
									"midpoints" : [  ]
								}

							}
, 							{
								"patchline" : 								{
									"source" : [ "obj-37", 0 ],
									"destination" : [ "obj-48", 0 ],
									"hidden" : 0,
									"midpoints" : [  ]
								}

							}
, 							{
								"patchline" : 								{
									"source" : [ "obj-48", 0 ],
									"destination" : [ "obj-5", 0 ],
									"hidden" : 0,
									"midpoints" : [ 614.5, 177.5, 120.5, 177.5 ]
								}

							}
, 							{
								"patchline" : 								{
									"source" : [ "obj-36", 7 ],
									"destination" : [ "obj-43", 0 ],
									"hidden" : 0,
									"midpoints" : [  ]
								}

							}
, 							{
								"patchline" : 								{
									"source" : [ "obj-43", 0 ],
									"destination" : [ "obj-49", 0 ],
									"hidden" : 0,
									"midpoints" : [  ]
								}

							}
, 							{
								"patchline" : 								{
									"source" : [ "obj-36", 6 ],
									"destination" : [ "obj-44", 0 ],
									"hidden" : 0,
									"midpoints" : [  ]
								}

							}
, 							{
								"patchline" : 								{
									"source" : [ "obj-44", 0 ],
									"destination" : [ "obj-49", 0 ],
									"hidden" : 0,
									"midpoints" : [  ]
								}

							}
, 							{
								"patchline" : 								{
									"source" : [ "obj-36", 5 ],
									"destination" : [ "obj-45", 0 ],
									"hidden" : 0,
									"midpoints" : [  ]
								}

							}
, 							{
								"patchline" : 								{
									"source" : [ "obj-45", 0 ],
									"destination" : [ "obj-49", 0 ],
									"hidden" : 0,
									"midpoints" : [  ]
								}

							}
, 							{
								"patchline" : 								{
									"source" : [ "obj-36", 4 ],
									"destination" : [ "obj-38", 0 ],
									"hidden" : 0,
									"midpoints" : [  ]
								}

							}
, 							{
								"patchline" : 								{
									"source" : [ "obj-38", 0 ],
									"destination" : [ "obj-49", 0 ],
									"hidden" : 0,
									"midpoints" : [  ]
								}

							}
, 							{
								"patchline" : 								{
									"source" : [ "obj-36", 3 ],
									"destination" : [ "obj-39", 0 ],
									"hidden" : 0,
									"midpoints" : [  ]
								}

							}
, 							{
								"patchline" : 								{
									"source" : [ "obj-39", 0 ],
									"destination" : [ "obj-49", 0 ],
									"hidden" : 0,
									"midpoints" : [  ]
								}

							}
, 							{
								"patchline" : 								{
									"source" : [ "obj-1", 0 ],
									"destination" : [ "obj-49", 0 ],
									"hidden" : 0,
									"midpoints" : [  ]
								}

							}
, 							{
								"patchline" : 								{
									"source" : [ "obj-36", 11 ],
									"destination" : [ "obj-1", 0 ],
									"hidden" : 0,
									"midpoints" : [  ]
								}

							}
, 							{
								"patchline" : 								{
									"source" : [ "obj-2", 0 ],
									"destination" : [ "obj-49", 0 ],
									"hidden" : 0,
									"midpoints" : [  ]
								}

							}
, 							{
								"patchline" : 								{
									"source" : [ "obj-36", 10 ],
									"destination" : [ "obj-2", 0 ],
									"hidden" : 0,
									"midpoints" : [  ]
								}

							}
, 							{
								"patchline" : 								{
									"source" : [ "obj-3", 0 ],
									"destination" : [ "obj-49", 0 ],
									"hidden" : 0,
									"midpoints" : [  ]
								}

							}
, 							{
								"patchline" : 								{
									"source" : [ "obj-36", 9 ],
									"destination" : [ "obj-3", 0 ],
									"hidden" : 0,
									"midpoints" : [  ]
								}

							}
, 							{
								"patchline" : 								{
									"source" : [ "obj-4", 0 ],
									"destination" : [ "obj-49", 0 ],
									"hidden" : 0,
									"midpoints" : [  ]
								}

							}
, 							{
								"patchline" : 								{
									"source" : [ "obj-36", 8 ],
									"destination" : [ "obj-4", 0 ],
									"hidden" : 0,
									"midpoints" : [  ]
								}

							}
, 							{
								"patchline" : 								{
									"source" : [ "obj-36", 1 ],
									"destination" : [ "obj-41", 0 ],
									"hidden" : 0,
									"midpoints" : [  ]
								}

							}
, 							{
								"patchline" : 								{
									"source" : [ "obj-41", 0 ],
									"destination" : [ "obj-49", 0 ],
									"hidden" : 0,
									"midpoints" : [  ]
								}

							}
, 							{
								"patchline" : 								{
									"source" : [ "obj-36", 2 ],
									"destination" : [ "obj-40", 0 ],
									"hidden" : 0,
									"midpoints" : [  ]
								}

							}
, 							{
								"patchline" : 								{
									"source" : [ "obj-40", 0 ],
									"destination" : [ "obj-49", 0 ],
									"hidden" : 0,
									"midpoints" : [  ]
								}

							}
, 							{
								"patchline" : 								{
									"source" : [ "obj-21", 0 ],
									"destination" : [ "obj-1", 1 ],
									"hidden" : 0,
									"midpoints" : [  ]
								}

							}
, 							{
								"patchline" : 								{
									"source" : [ "obj-6", 0 ],
									"destination" : [ "obj-42", 1 ],
									"hidden" : 0,
									"midpoints" : [  ]
								}

							}
, 							{
								"patchline" : 								{
									"source" : [ "obj-5", 0 ],
									"destination" : [ "obj-6", 0 ],
									"hidden" : 0,
									"midpoints" : [  ]
								}

							}
, 							{
								"patchline" : 								{
									"source" : [ "obj-7", 0 ],
									"destination" : [ "obj-41", 1 ],
									"hidden" : 0,
									"midpoints" : [  ]
								}

							}
, 							{
								"patchline" : 								{
									"source" : [ "obj-9", 0 ],
									"destination" : [ "obj-39", 1 ],
									"hidden" : 0,
									"midpoints" : [  ]
								}

							}
, 							{
								"patchline" : 								{
									"source" : [ "obj-11", 0 ],
									"destination" : [ "obj-40", 1 ],
									"hidden" : 0,
									"midpoints" : [  ]
								}

							}
, 							{
								"patchline" : 								{
									"source" : [ "obj-15", 0 ],
									"destination" : [ "obj-44", 1 ],
									"hidden" : 0,
									"midpoints" : [  ]
								}

							}
, 							{
								"patchline" : 								{
									"source" : [ "obj-17", 0 ],
									"destination" : [ "obj-45", 1 ],
									"hidden" : 0,
									"midpoints" : [  ]
								}

							}
, 							{
								"patchline" : 								{
									"source" : [ "obj-19", 0 ],
									"destination" : [ "obj-38", 1 ],
									"hidden" : 0,
									"midpoints" : [  ]
								}

							}
, 							{
								"patchline" : 								{
									"source" : [ "obj-23", 0 ],
									"destination" : [ "obj-2", 1 ],
									"hidden" : 0,
									"midpoints" : [  ]
								}

							}
, 							{
								"patchline" : 								{
									"source" : [ "obj-25", 0 ],
									"destination" : [ "obj-3", 1 ],
									"hidden" : 0,
									"midpoints" : [  ]
								}

							}
, 							{
								"patchline" : 								{
									"source" : [ "obj-27", 0 ],
									"destination" : [ "obj-4", 1 ],
									"hidden" : 0,
									"midpoints" : [  ]
								}

							}
, 							{
								"patchline" : 								{
									"source" : [ "obj-13", 0 ],
									"destination" : [ "obj-43", 1 ],
									"hidden" : 0,
									"midpoints" : [  ]
								}

							}
, 							{
								"patchline" : 								{
									"source" : [ "obj-8", 0 ],
									"destination" : [ "obj-7", 0 ],
									"hidden" : 0,
									"midpoints" : [  ]
								}

							}
, 							{
								"patchline" : 								{
									"source" : [ "obj-48", 1 ],
									"destination" : [ "obj-8", 0 ],
									"hidden" : 0,
									"midpoints" : [ 628.0, 182.5, 159.5, 182.5 ]
								}

							}
, 							{
								"patchline" : 								{
									"source" : [ "obj-12", 0 ],
									"destination" : [ "obj-11", 0 ],
									"hidden" : 0,
									"midpoints" : [  ]
								}

							}
, 							{
								"patchline" : 								{
									"source" : [ "obj-48", 2 ],
									"destination" : [ "obj-12", 0 ],
									"hidden" : 0,
									"midpoints" : [ 641.5, 187.5, 197.5, 187.5 ]
								}

							}
, 							{
								"patchline" : 								{
									"source" : [ "obj-10", 0 ],
									"destination" : [ "obj-9", 0 ],
									"hidden" : 0,
									"midpoints" : [  ]
								}

							}
, 							{
								"patchline" : 								{
									"source" : [ "obj-48", 3 ],
									"destination" : [ "obj-10", 0 ],
									"hidden" : 0,
									"midpoints" : [ 655.0, 192.5, 236.5, 192.5 ]
								}

							}
, 							{
								"patchline" : 								{
									"source" : [ "obj-20", 0 ],
									"destination" : [ "obj-19", 0 ],
									"hidden" : 0,
									"midpoints" : [  ]
								}

							}
, 							{
								"patchline" : 								{
									"source" : [ "obj-48", 4 ],
									"destination" : [ "obj-20", 0 ],
									"hidden" : 0,
									"midpoints" : [ 668.5, 197.5, 275.5, 197.5 ]
								}

							}
, 							{
								"patchline" : 								{
									"source" : [ "obj-18", 0 ],
									"destination" : [ "obj-17", 0 ],
									"hidden" : 0,
									"midpoints" : [  ]
								}

							}
, 							{
								"patchline" : 								{
									"source" : [ "obj-48", 5 ],
									"destination" : [ "obj-18", 0 ],
									"hidden" : 0,
									"midpoints" : [ 682.0, 202.5, 313.5, 202.5 ]
								}

							}
, 							{
								"patchline" : 								{
									"source" : [ "obj-16", 0 ],
									"destination" : [ "obj-15", 0 ],
									"hidden" : 0,
									"midpoints" : [  ]
								}

							}
, 							{
								"patchline" : 								{
									"source" : [ "obj-48", 6 ],
									"destination" : [ "obj-16", 0 ],
									"hidden" : 0,
									"midpoints" : [ 695.5, 207.5, 352.5, 207.5 ]
								}

							}
, 							{
								"patchline" : 								{
									"source" : [ "obj-14", 0 ],
									"destination" : [ "obj-13", 0 ],
									"hidden" : 0,
									"midpoints" : [  ]
								}

							}
, 							{
								"patchline" : 								{
									"source" : [ "obj-48", 7 ],
									"destination" : [ "obj-14", 0 ],
									"hidden" : 0,
									"midpoints" : [ 709.0, 212.5, 390.5, 212.5 ]
								}

							}
, 							{
								"patchline" : 								{
									"source" : [ "obj-28", 0 ],
									"destination" : [ "obj-27", 0 ],
									"hidden" : 0,
									"midpoints" : [  ]
								}

							}
, 							{
								"patchline" : 								{
									"source" : [ "obj-48", 8 ],
									"destination" : [ "obj-28", 0 ],
									"hidden" : 0,
									"midpoints" : [ 722.5, 219.5, 428.5, 219.5 ]
								}

							}
, 							{
								"patchline" : 								{
									"source" : [ "obj-26", 0 ],
									"destination" : [ "obj-25", 0 ],
									"hidden" : 0,
									"midpoints" : [  ]
								}

							}
, 							{
								"patchline" : 								{
									"source" : [ "obj-48", 9 ],
									"destination" : [ "obj-26", 0 ],
									"hidden" : 0,
									"midpoints" : [ 736.0, 225.0, 466.5, 225.0 ]
								}

							}
, 							{
								"patchline" : 								{
									"source" : [ "obj-24", 0 ],
									"destination" : [ "obj-23", 0 ],
									"hidden" : 0,
									"midpoints" : [  ]
								}

							}
, 							{
								"patchline" : 								{
									"source" : [ "obj-48", 10 ],
									"destination" : [ "obj-24", 0 ],
									"hidden" : 0,
									"midpoints" : [ 749.5, 231.5, 505.5, 231.5 ]
								}

							}
, 							{
								"patchline" : 								{
									"source" : [ "obj-22", 0 ],
									"destination" : [ "obj-21", 0 ],
									"hidden" : 0,
									"midpoints" : [  ]
								}

							}
, 							{
								"patchline" : 								{
									"source" : [ "obj-48", 11 ],
									"destination" : [ "obj-22", 0 ],
									"hidden" : 0,
									"midpoints" : [ 763.0, 238.0, 543.5, 238.0 ]
								}

							}
 ]
					}
,
					"saved_object_attributes" : 					{
						"globalpatchername" : "",
						"fontface" : 0,
						"default_fontname" : "Arial",
						"fontsize" : 12.0,
						"default_fontsize" : 12.0,
						"fontname" : "Arial",
						"default_fontface" : 0
					}

				}

			}
, 			{
				"box" : 				{
					"maxclass" : "number",
					"fontsize" : 12.0,
					"numinlets" : 1,
					"patching_rect" : [ 147.0, 511.0, 50.0, 20.0 ],
					"numoutlets" : 2,
					"id" : "obj-22",
					"fontname" : "Arial",
					"outlettype" : [ "int", "bang" ]
				}

			}
, 			{
				"box" : 				{
					"maxclass" : "newobj",
					"text" : "midiout",
					"fontsize" : 12.0,
					"numinlets" : 1,
					"patching_rect" : [ 215.0, 766.0, 49.0, 20.0 ],
					"numoutlets" : 0,
					"id" : "obj-8",
					"fontname" : "Arial"
				}

			}
, 			{
				"box" : 				{
					"maxclass" : "newobj",
					"text" : "midiformat",
					"fontsize" : 12.0,
					"numinlets" : 7,
					"patching_rect" : [ 215.0, 736.0, 100.0, 20.0 ],
					"numoutlets" : 1,
					"id" : "obj-12",
					"fontname" : "Arial",
					"outlettype" : [ "int" ]
				}

			}
, 			{
				"box" : 				{
					"maxclass" : "newobj",
					"text" : "pack 0 0",
					"fontsize" : 12.0,
					"numinlets" : 2,
					"patching_rect" : [ 215.0, 708.0, 56.0, 20.0 ],
					"numoutlets" : 1,
					"id" : "obj-61",
					"fontname" : "Arial",
					"outlettype" : [ "" ]
				}

			}
, 			{
				"box" : 				{
					"maxclass" : "newobj",
					"text" : "makenote 60 100",
					"fontsize" : 12.0,
					"numinlets" : 3,
					"patching_rect" : [ 215.0, 675.0, 103.0, 20.0 ],
					"numoutlets" : 2,
					"id" : "obj-62",
					"fontname" : "Arial",
					"outlettype" : [ "float", "float" ]
				}

			}
, 			{
				"box" : 				{
					"maxclass" : "number",
					"fontsize" : 12.0,
					"numinlets" : 1,
					"patching_rect" : [ 215.0, 644.0, 50.0, 20.0 ],
					"numoutlets" : 2,
					"id" : "obj-67",
					"fontname" : "Arial",
					"outlettype" : [ "int", "bang" ]
				}

			}
, 			{
				"box" : 				{
					"maxclass" : "comment",
					"text" : "< the trigger object makes sure we fetch the offset before trying to add it",
					"fontsize" : 12.0,
					"numinlets" : 1,
					"patching_rect" : [ 166.0, 326.0, 408.0, 20.0 ],
					"numoutlets" : 0,
					"id" : "obj-11",
					"fontname" : "Arial"
				}

			}
, 			{
				"box" : 				{
					"maxclass" : "newobj",
					"text" : "+ 0",
					"fontsize" : 12.0,
					"numinlets" : 2,
					"patching_rect" : [ 114.0, 540.0, 51.5, 20.0 ],
					"numoutlets" : 1,
					"id" : "obj-7",
					"fontname" : "Arial",
					"outlettype" : [ "int" ]
				}

			}
, 			{
				"box" : 				{
					"maxclass" : "newobj",
					"text" : "t i i",
					"fontsize" : 12.0,
					"numinlets" : 1,
					"patching_rect" : [ 114.0, 326.0, 51.5, 20.0 ],
					"numoutlets" : 2,
					"id" : "obj-6",
					"fontname" : "Arial",
					"outlettype" : [ "int", "int" ]
				}

			}
, 			{
				"box" : 				{
					"maxclass" : "comment",
					"text" : "< We add the offset to our original pitch number",
					"fontsize" : 12.0,
					"numinlets" : 1,
					"patching_rect" : [ 165.0, 541.0, 442.0, 20.0 ],
					"numoutlets" : 0,
					"id" : "obj-4",
					"fontname" : "Arial"
				}

			}
, 			{
				"box" : 				{
					"maxclass" : "comment",
					"text" : "< You may sort of recognize the insides of this patcher - it's based on what we were using for the Reich-o-tron patch from the last batch of fun patches. This time, we \nuse the same technique to compute and store note offsets for each note of the scale.",
					"linecount" : 5,
					"fontsize" : 12.0,
					"numinlets" : 1,
					"patching_rect" : [ 261.0, 419.0, 312.0, 75.0 ],
					"numoutlets" : 0,
					"id" : "obj-3",
					"fontname" : "Arial"
				}

			}
, 			{
				"box" : 				{
					"maxclass" : "comment",
					"text" : "< the remainder after dividing by twelve = a note in the scale",
					"fontsize" : 12.0,
					"numinlets" : 1,
					"patching_rect" : [ 187.0, 354.0, 336.0, 20.0 ],
					"numoutlets" : 0,
					"id" : "obj-2",
					"fontname" : "Arial"
				}

			}
, 			{
				"box" : 				{
					"maxclass" : "newobj",
					"text" : "% 12",
					"fontsize" : 12.0,
					"numinlets" : 2,
					"patching_rect" : [ 147.0, 354.0, 38.0, 20.0 ],
					"numoutlets" : 1,
					"id" : "obj-1",
					"fontname" : "Arial",
					"outlettype" : [ "int" ]
				}

			}
, 			{
				"box" : 				{
					"maxclass" : "number",
					"fontsize" : 12.0,
					"numinlets" : 1,
					"patching_rect" : [ 158.0, 644.0, 50.0, 20.0 ],
					"numoutlets" : 2,
					"id" : "obj-29",
					"fontname" : "Arial",
					"outlettype" : [ "int", "bang" ]
				}

			}
, 			{
				"box" : 				{
					"maxclass" : "comment",
					"text" : "< the gate object allows data to pass through or blocks it",
					"fontsize" : 12.0,
					"numinlets" : 1,
					"patching_rect" : [ 175.0, 138.0, 323.0, 20.0 ],
					"numoutlets" : 0,
					"id" : "obj-26",
					"fontname" : "Arial"
				}

			}
, 			{
				"box" : 				{
					"maxclass" : "newobj",
					"text" : "delay 100",
					"fontsize" : 12.0,
					"numinlets" : 2,
					"patching_rect" : [ 114.0, 671.0, 63.0, 20.0 ],
					"numoutlets" : 1,
					"id" : "obj-21",
					"fontname" : "Arial",
					"outlettype" : [ "bang" ]
				}

			}
, 			{
				"box" : 				{
					"maxclass" : "newobj",
					"text" : "t b i",
					"fontsize" : 12.0,
					"numinlets" : 1,
					"patching_rect" : [ 114.0, 614.0, 119.5, 20.0 ],
					"numoutlets" : 2,
					"id" : "obj-20",
					"fontname" : "Arial",
					"outlettype" : [ "bang", "int" ]
				}

			}
, 			{
				"box" : 				{
					"maxclass" : "comment",
					"text" : "< the trigger object sets up the counter, sends a 0/1 to open/close the gate, and sends a bang to the counter, all in that order",
					"linecount" : 3,
					"fontsize" : 12.0,
					"numinlets" : 1,
					"patching_rect" : [ 211.0, 48.0, 303.0, 48.0 ],
					"numoutlets" : 0,
					"id" : "obj-19",
					"fontname" : "Arial"
				}

			}
, 			{
				"box" : 				{
					"maxclass" : "newobj",
					"text" : "counter 0 0 127",
					"fontsize" : 12.0,
					"numinlets" : 5,
					"patching_rect" : [ 148.0, 110.0, 101.0, 20.0 ],
					"numoutlets" : 4,
					"id" : "obj-17",
					"fontname" : "Arial",
					"outlettype" : [ "int", "", "", "int" ]
				}

			}
, 			{
				"box" : 				{
					"maxclass" : "newobj",
					"text" : "t b i 0",
					"fontsize" : 12.0,
					"numinlets" : 1,
					"patching_rect" : [ 39.0, 47.0, 169.0, 20.0 ],
					"numoutlets" : 3,
					"id" : "obj-16",
					"fontname" : "Arial",
					"outlettype" : [ "bang", "int", "int" ]
				}

			}
, 			{
				"box" : 				{
					"maxclass" : "toggle",
					"numinlets" : 1,
					"patching_rect" : [ 39.0, 17.0, 20.0, 20.0 ],
					"numoutlets" : 1,
					"id" : "obj-15",
					"outlettype" : [ "int" ]
				}

			}
, 			{
				"box" : 				{
					"maxclass" : "newobj",
					"text" : "gate",
					"fontsize" : 12.0,
					"numinlets" : 2,
					"patching_rect" : [ 114.0, 138.0, 53.0, 20.0 ],
					"numoutlets" : 1,
					"id" : "obj-10",
					"fontname" : "Arial",
					"outlettype" : [ "" ]
				}

			}
, 			{
				"box" : 				{
					"maxclass" : "itable",
					"hint" : "x 127 y = 0",
					"numinlets" : 2,
					"patching_rect" : [ 114.0, 166.0, 160.0, 145.0 ],
					"numoutlets" : 2,
					"id" : "obj-13",
					"range" : 128,
					"name" : "",
					"outlettype" : [ "int", "bang" ],
					"size" : 128,
					"table_data" : [ 0, 78, 78, 78, 79, 79, 80, 81, 81, 82, 83, 84, 85, 86, 87, 87, 88, 89, 90, 90, 84, 84, 84, 84, 85, 85, 86, 86, 86, 86, 86, 86, 86, 86, 95, 94, 94, 93, 93, 92, 92, 91, 91, 90, 90, 89, 89, 88, 88, 87, 87, 86, 86, 85, 85, 84, 84, 83, 82, 81, 81, 80, 80, 79, 78, 78, 77, 77, 76, 74, 74, 74, 74, 74, 74, 75, 76, 77, 78, 80, 82, 84, 94, 94, 93, 92, 90, 89, 87, 86, 84, 83, 81, 79, 77, 75, 72, 70, 68, 66, 69, 69, 68, 67, 67, 66, 66, 65, 65, 64, 64, 63, 63, 62, 60, 59, 57, 56, 54, 53, 51, 50, 48, 47, 45, 44, 42, 41, 0 ]
				}

			}
, 			{
				"box" : 				{
					"maxclass" : "panel",
					"bgcolor" : [ 0.0, 0.25098, 0.129412, 0.501961 ],
					"numinlets" : 1,
					"patching_rect" : [ 108.0, 317.0, 465.0, 253.0 ],
					"numoutlets" : 0,
					"id" : "obj-9"
				}

			}
 ],
		"lines" : [ 			{
				"patchline" : 				{
					"source" : [ "obj-22", 0 ],
					"destination" : [ "obj-7", 1 ],
					"hidden" : 0,
					"midpoints" : [  ]
				}

			}
, 			{
				"patchline" : 				{
					"source" : [ "obj-67", 0 ],
					"destination" : [ "obj-62", 0 ],
					"hidden" : 0,
					"midpoints" : [  ]
				}

			}
, 			{
				"patchline" : 				{
					"source" : [ "obj-62", 1 ],
					"destination" : [ "obj-61", 1 ],
					"hidden" : 0,
					"midpoints" : [ 308.5, 701.0, 261.5, 701.0 ]
				}

			}
, 			{
				"patchline" : 				{
					"source" : [ "obj-62", 0 ],
					"destination" : [ "obj-61", 0 ],
					"hidden" : 0,
					"midpoints" : [  ]
				}

			}
, 			{
				"patchline" : 				{
					"source" : [ "obj-29", 0 ],
					"destination" : [ "obj-21", 1 ],
					"hidden" : 0,
					"midpoints" : [  ]
				}

			}
, 			{
				"patchline" : 				{
					"source" : [ "obj-21", 0 ],
					"destination" : [ "obj-17", 0 ],
					"hidden" : 0,
					"midpoints" : [ 123.5, 710.0, 26.0, 710.0, 26.0, 78.0, 157.5, 78.0 ]
				}

			}
, 			{
				"patchline" : 				{
					"source" : [ "obj-20", 0 ],
					"destination" : [ "obj-21", 0 ],
					"hidden" : 0,
					"midpoints" : [  ]
				}

			}
, 			{
				"patchline" : 				{
					"source" : [ "obj-10", 0 ],
					"destination" : [ "obj-13", 0 ],
					"hidden" : 0,
					"midpoints" : [  ]
				}

			}
, 			{
				"patchline" : 				{
					"source" : [ "obj-16", 2 ],
					"destination" : [ "obj-17", 2 ],
					"hidden" : 0,
					"midpoints" : [  ]
				}

			}
, 			{
				"patchline" : 				{
					"source" : [ "obj-17", 0 ],
					"destination" : [ "obj-10", 1 ],
					"hidden" : 0,
					"midpoints" : [  ]
				}

			}
, 			{
				"patchline" : 				{
					"source" : [ "obj-16", 0 ],
					"destination" : [ "obj-17", 0 ],
					"hidden" : 0,
					"midpoints" : [ 48.5, 96.0, 157.5, 96.0 ]
				}

			}
, 			{
				"patchline" : 				{
					"source" : [ "obj-16", 1 ],
					"destination" : [ "obj-10", 0 ],
					"hidden" : 0,
					"midpoints" : [  ]
				}

			}
, 			{
				"patchline" : 				{
					"source" : [ "obj-15", 0 ],
					"destination" : [ "obj-16", 0 ],
					"hidden" : 0,
					"midpoints" : [  ]
				}

			}
, 			{
				"patchline" : 				{
					"source" : [ "obj-6", 1 ],
					"destination" : [ "obj-1", 0 ],
					"hidden" : 0,
					"midpoints" : [  ]
				}

			}
, 			{
				"patchline" : 				{
					"source" : [ "obj-6", 0 ],
					"destination" : [ "obj-7", 0 ],
					"hidden" : 0,
					"midpoints" : [  ]
				}

			}
, 			{
				"patchline" : 				{
					"source" : [ "obj-13", 0 ],
					"destination" : [ "obj-6", 0 ],
					"hidden" : 0,
					"midpoints" : [  ]
				}

			}
, 			{
				"patchline" : 				{
					"source" : [ "obj-7", 0 ],
					"destination" : [ "obj-20", 0 ],
					"hidden" : 0,
					"midpoints" : [  ]
				}

			}
, 			{
				"patchline" : 				{
					"source" : [ "obj-12", 0 ],
					"destination" : [ "obj-8", 0 ],
					"hidden" : 0,
					"midpoints" : [  ]
				}

			}
, 			{
				"patchline" : 				{
					"source" : [ "obj-61", 0 ],
					"destination" : [ "obj-12", 0 ],
					"hidden" : 0,
					"midpoints" : [  ]
				}

			}
, 			{
				"patchline" : 				{
					"source" : [ "obj-20", 1 ],
					"destination" : [ "obj-67", 0 ],
					"hidden" : 0,
					"midpoints" : [  ]
				}

			}
, 			{
				"patchline" : 				{
					"source" : [ "obj-1", 0 ],
					"destination" : [ "obj-5", 0 ],
					"hidden" : 0,
					"midpoints" : [  ]
				}

			}
, 			{
				"patchline" : 				{
					"source" : [ "obj-24", 0 ],
					"destination" : [ "obj-5", 1 ],
					"hidden" : 0,
					"midpoints" : [ 604.5, 384.5, 200.5, 384.5 ]
				}

			}
, 			{
				"patchline" : 				{
					"source" : [ "obj-5", 0 ],
					"destination" : [ "obj-22", 0 ],
					"hidden" : 0,
					"midpoints" : [  ]
				}

			}
, 			{
				"patchline" : 				{
					"source" : [ "obj-25", 0 ],
					"destination" : [ "obj-5", 1 ],
					"hidden" : 0,
					"midpoints" : [ 590.5, 384.5, 200.5, 384.5 ]
				}

			}
, 			{
				"patchline" : 				{
					"source" : [ "obj-28", 0 ],
					"destination" : [ "obj-5", 1 ],
					"hidden" : 0,
					"midpoints" : [ 618.5, 384.0, 200.5, 384.0 ]
				}

			}
, 			{
				"patchline" : 				{
					"source" : [ "obj-30", 0 ],
					"destination" : [ "obj-5", 1 ],
					"hidden" : 0,
					"midpoints" : [ 632.5, 384.0, 200.5, 384.0 ]
				}

			}
, 			{
				"patchline" : 				{
					"source" : [ "obj-31", 0 ],
					"destination" : [ "obj-5", 1 ],
					"hidden" : 0,
					"midpoints" : [ 646.5, 384.5, 200.5, 384.5 ]
				}

			}
 ]
	}

}
